<?xml version="1.0" encoding="iso-8859-1"?>
<!-- Generator: Adobe Illustrator 16.0.0, SVG Export Plug-In . SVG Version: 6.00 Build 0)  -->
<!DOCTYPE svg PUBLIC "-//W3C//DTD SVG 1.1//EN" "http://www.w3.org/Graphics/SVG/1.1/DTD/svg11.dtd">
<svg version="1.1" id="Capa_1" xmlns="http://www.w3.org/2000/svg" xmlns:xlink="http://www.w3.org/1999/xlink" x="0px" y="0px"
	 width="589.814px" height="589.813px" viewBox="0 0 589.814 589.813" style="enable-background:new 0 0 589.814 589.813;"
	 xml:space="preserve">
<g>
	<g>
		<path fill="#9FBF62" d="M163.101,432.803c-6.875,44.802-46.896,90.58-46.896,90.58c66.875,2.709,117.492-27.377,147.671-52.384v82.629
			c0,20.628,15.786,36.186,36.72,36.186c20.935,0,36.72-15.558,36.72-36.186v-76.235c31.18,22.714,78.838,46.418,139.435,42.938
			c0,0-40.788-45.093-48.422-89.772c0,0,95.521,23.378,143.2-96.749c0,0-50.449,3.072-112.098-21.285
			c-15.479,6.499-29.891,8.262-40.363,8.352c10.163,26.524,31.407,50.298,31.656,50.575c3.162,3.497,4.035,8.495,2.248,12.853
			c-1.787,4.361-5.92,7.307-10.624,7.576c-3.423,0.196-6.888,0.298-10.294,0.298c-38.703,0-70.661-12.448-94.737-26.911
			c-3.578-2.15-6.973-4.346-10.2-6.549c-3.627-2.477-7.03-4.965-10.2-7.422c-8.968-6.943-16.112-13.603-21.273-18.869
			c-3.08,3.251-6.878,7.033-11.367,11.085c-3.072,2.774-6.483,5.684-10.2,8.638c-3.17,2.521-6.573,5.079-10.2,7.625
			c-25.161,17.662-61.204,34.725-106.631,34.725c-2.411,0-4.863-0.049-7.283-0.146c-4.708-0.191-8.89-3.068-10.751-7.397
			c-1.86-4.328-1.073-9.343,2.032-12.889c0.249-0.285,21.098-24.345,30.808-51.102c-0.294,0.004-0.588,0.004-0.886,0.004
			c-10.845,0-25.206-1.664-40.531-7.919c-61.514,25.675-112.351,23.443-112.351,23.443
			C67.992,457.792,163.101,432.803,163.101,432.803z M295.774,438.938c0,0,7.348,9.449,21.139,21.901v92.792
			c0,10.522-8.16,15.785-16.32,15.785s-16.32-5.263-16.32-15.785V452.068C291.825,444.202,295.774,438.938,295.774,438.938z"/>
		<path fill="#9FBF62" d="M442.781,305.376c24.688-6.654,55.312-25.704,75.414-76.349c0,0-1.673,0.102-4.741,0.102
			c-11.815,0-44.451-1.555-82.93-16.202c-13.819,8.209-27.356,10.942-37.553,11.571c7.875,17.833,21.563,33.167,21.73,33.354
			c3.162,3.497,4.035,8.495,2.248,12.852c-1.787,4.361-5.92,7.307-10.624,7.577c-2.645,0.151-5.316,0.229-7.948,0.229
			c-0.714,0-1.399-0.062-2.105-0.074c-22.925-0.351-42.701-6.32-58.96-14.223c-3.558-1.73-6.984-3.529-10.2-5.402
			c-3.627-2.114-7.021-4.288-10.199-6.479c-9.078-6.255-16.32-12.591-21.539-17.695c-3.019,3.06-6.731,6.557-11.101,10.225
			c-3.072,2.579-6.479,5.239-10.2,7.891c-3.166,2.26-6.577,4.504-10.2,6.691c-18.274,11.036-42.293,20.396-71.359,20.759
			c-0.58,0.008-1.13,0.062-1.714,0.062c-1.852,0-3.729-0.037-5.622-0.114c-4.708-0.192-8.89-3.068-10.751-7.397
			c-1.86-4.329-1.073-9.343,2.032-12.889c4.561-5.214,14.888-18.976,21.126-33.713c-10.539-0.461-24.296-3.027-38.295-11.134
			c-41.041,16.541-75.7,17.83-85.288,17.83c-1.722,0-2.632-0.041-2.632-0.041c20.682,49.637,51.086,68.332,75.717,74.806
			c9.062,2.383,17.352,3.126,24.076,3.126c10.473,0,17.168-1.759,17.168-1.759c-5.553,36.186-37.875,73.154-37.875,73.154
			c2.285,0.094,4.549,0.139,6.785,0.139c46.638,0,82.946-19.584,106.631-37.785c3.717-2.855,7.115-5.671,10.2-8.38
			c3.925-3.443,7.328-6.691,10.2-9.596c7.352-7.438,11.208-12.579,11.208-12.579s7.471,9.621,21.433,21.51
			c3.088,2.632,6.482,5.365,10.2,8.14c3.174,2.37,6.581,4.757,10.199,7.124c23.167,15.157,55.288,29.241,94.738,29.241
			c3.149,0,6.348-0.09,9.592-0.277c0,0-32.942-36.418-39.106-72.506c0,0,6.059,1.48,15.622,1.48
			C424.914,308.648,433.425,307.897,442.781,305.376z"/>
		<path fill="#9FBF62" d="M125.94,155.13c9.666,23.199,22.146,37.434,34.667,46.092c2.191,1.514,4.386,2.88,6.565,4.068
			c2.301,1.256,4.582,2.33,6.834,3.264c10.371,4.305,20.045,5.443,27.315,5.443c7.911,0,12.966-1.33,12.966-1.33
			c-4.194,27.332-28.609,55.26-28.609,55.26c1.726,0.069,3.435,0.102,5.125,0.102c6.622,0,12.958-0.542,19.017-1.485
			c21.979-3.411,40.184-12.293,54.056-21.669c3.713-2.509,7.12-5.047,10.2-7.528c3.929-3.162,7.336-6.222,10.2-8.984
			c7.181-6.924,10.947-11.958,10.947-11.958s7.609,9.804,21.693,20.718c3.089,2.395,6.499,4.839,10.2,7.25
			c3.187,2.073,6.577,4.121,10.199,6.08c11.515,6.222,25.219,11.538,40.837,14.125c6.431,1.065,13.166,1.693,20.233,1.693
			c2.378,0,4.794-0.069,7.246-0.208c0,0-24.885-27.507-29.54-54.766c0,0,4.578,1.118,11.8,1.118c7.259,0,17.201-1.146,27.862-5.679
			c2.375-1.008,4.782-2.187,7.205-3.558c2.094-1.183,4.198-2.513,6.3-4.006c12.477-8.845,24.843-23.342,34.198-46.9
			c0,0-1.261,0.078-3.582,0.078c-9.809,0-38.593-1.387-71.367-15.797c-4.496,1.66-9.323,2.925-14.59,3.554
			c4.736,9.249,11.191,17.503,14.219,20.873c3.162,3.497,4.035,8.495,2.248,12.852c-0.526,1.277-1.27,2.416-2.154,3.423
			c-1.497,1.706-3.439,2.958-5.622,3.623c-0.918,0.278-1.865,0.478-2.849,0.535c-2.064,0.118-4.157,0.18-6.218,0.18
			c-0.208,0-0.407-0.021-0.616-0.021c-13.231-0.078-25.128-2.57-35.602-6.312c-3.647-1.301-7.115-2.75-10.404-4.308
			c-5.442-2.579-10.416-5.418-14.847-8.34c-1.126-0.742-2.199-1.485-3.256-2.228c-5.455-3.839-10.037-7.691-13.64-11.049
			c-4.77,4.603-11.281,10.11-19.355,15.329c-3.623,2.342-7.548,4.619-11.804,6.732c-13.174,6.541-29.314,11.465-48.148,11.522
			c-0.11,0-0.216,0.012-0.326,0.012c-1.449,0-2.917-0.028-4.398-0.09c-1.375-0.057-2.688-0.363-3.929-0.844
			c-2.101-0.816-3.933-2.195-5.304-3.999c-0.596-0.783-1.118-1.624-1.518-2.554c-1.86-4.329-1.073-9.343,2.032-12.889
			c2.982-3.411,9.306-11.758,13.888-21.118c-5.504-0.571-10.539-1.836-15.223-3.534c-34.721,16.087-65.239,17.258-73.158,17.258
			C126.625,155.158,125.94,155.13,125.94,155.13z"/>
		<path fill="#9FBF62" d="M371.547,128.018c2.893-0.322,6.079-0.934,9.434-1.925c2.505-0.743,5.1-1.714,7.747-2.966
			c12.098-5.724,25.129-17.36,34.334-40.547c0,0-0.959,0.057-2.726,0.057c-14.872,0-87.06-4.157-126.432-82.636
			c-39.208,81.567-114.623,84.774-126.227,84.774c-0.987,0-1.514-0.024-1.514-0.024c9.474,22.742,22.493,34.146,34.562,39.743
			c2.742,1.273,5.422,2.244,8.013,2.979c3.117,0.881,6.104,1.452,8.833,1.754c2.154,0.236,4.162,0.331,5.969,0.331
			c6.022,0,9.87-1.012,9.87-1.012c-3.19,20.804-21.775,42.061-21.775,42.061c0.049,0,0.098,0,0.151,0.004
			c1.261,0.049,2.513,0.078,3.75,0.078c2.219,0,4.345-0.167,6.483-0.314c3.554-0.245,7.018-0.632,10.335-1.236
			c15.019-2.722,27.601-8.744,37.475-15.227c6.989-4.586,12.656-9.38,16.797-13.366c5.5-5.296,8.389-9.151,8.389-9.151
			s2.126,2.705,6.083,6.63c6.491,6.434,18.042,16.177,33.889,23.105c6.255,2.738,13.146,5.039,20.686,6.496
			c3.574,0.689,7.323,1.13,11.171,1.403c2.203,0.159,4.402,0.318,6.691,0.318c1.13,0,2.289-0.057,3.436-0.098
			c0.693-0.024,1.375-0.021,2.076-0.061c0,0-18.939-20.938-22.484-41.686c0,0,3.484,0.853,8.979,0.853
			C367.345,128.357,369.369,128.263,371.547,128.018z"/>
	</g>
</g>
<g>
</g>
<g>
</g>
<g>
</g>
<g>
</g>
<g>
</g>
<g>
</g>
<g>
</g>
<g>
</g>
<g>
</g>
<g>
</g>
<g>
</g>
<g>
</g>
<g>
</g>
<g>
</g>
<g>
</g>
</svg>
