<?xml version="1.0" encoding="iso-8859-1"?>
<!-- Generator: Adobe Illustrator 16.0.0, SVG Export Plug-In . SVG Version: 6.00 Build 0)  -->
<!DOCTYPE svg PUBLIC "-//W3C//DTD SVG 1.1//EN" "http://www.w3.org/Graphics/SVG/1.1/DTD/svg11.dtd">
<svg version="1.1" id="Capa_1" xmlns="http://www.w3.org/2000/svg" xmlns:xlink="http://www.w3.org/1999/xlink" x="0px" y="0px"
	 width="587.682px" height="587.683px" viewBox="0 0 587.682 587.683" style="enable-background:new 0 0 587.682 587.683;"
	 xml:space="preserve">
<g>
	<g>
		<path d="M291.015,587.683c10.906,0,22.501-7.719,22.501-22.031v-73.697c63.586-14.823,122.967-70.482,124.012-137.684
			c-1.359,0.24-2.713,0.497-4.084,0.705c-1.359,0.204-2.738,0.359-4.109,0.522c-5.879,0.714-11.848,1.122-17.916,1.122
			c-3.385,0-6.734-0.155-10.068-0.379c-0.037,0.04-0.07,0.081-0.105,0.122c-1.43,1.604-2.902,3.158-4.432,4.663
			c-1.51,1.485-3.076,2.913-4.684,4.301c-6.283,35.712-41.379,68.303-78.617,80.441v-58.405c-1.371-0.229-2.73-0.478-4.08-0.759
			c-1.371-0.29-2.734-0.596-4.08-0.942c-10.335-2.665-19.988-7.026-28.679-12.738c-1.383-0.91-2.746-1.853-4.08-2.827
			c-1.387-1.016-2.75-2.064-4.08-3.154v38.291c-4.994-2.86-10.069-5.622-15.055-8.335c-10.404-5.668-19.608-10.886-27.417-16.063
			c-1.265,0.857-2.554,1.673-3.852,2.485c-1.265,0.795-2.55,1.562-3.848,2.312c-9.351,5.419-19.445,9.678-30.102,12.579
			c-1.53,0.416-3.076,0.796-4.631,1.158c-1.542,0.359-3.093,0.698-4.655,0.996c1.995,2.13,4.068,4.243,6.3,6.328
			c22.403,20.918,54.227,37.434,83.256,50.922v108.043C268.513,579.964,280.108,587.683,291.015,587.683z"/>
		<path d="M313.977,97.034c22.957-20.098,52.135-33.228,84.244-36.079C387.727,25.712,355.124,0,316.473,0
			c-27.862,0-52.525,13.415-68.099,34.072C278.272,44.594,302.262,67.711,313.977,97.034z"/>
		<path d="M154.971,148.969c13.072,0,25.684,1.991,37.557,5.679c29.751,9.241,54.847,29.164,70.78,55.26
			c-0.004-0.478-0.037-0.951-0.037-1.428c0-14.733,2.191-28.956,6.214-42.395c0.4-1.334,0.824-2.66,1.261-3.982
			c0.444-1.338,0.877-2.685,1.358-4.006c3.852-10.62,8.911-20.665,14.97-30c5.908-9.111,12.775-17.54,20.482-25.125
			c-10.604-29.241-34.26-52.212-63.922-61.91c-1.346-0.441-2.705-0.849-4.076-1.232c-1.355-0.379-2.722-0.734-4.097-1.057
			c-7.519-1.775-15.353-2.742-23.415-2.742c-56.096,0-101.571,45.476-101.571,101.571c0,6.426,0.624,12.706,1.767,18.801
			C125.603,151.601,139.981,148.969,154.971,148.969z"/>
		<path d="M154.971,394.507c6.035,0,11.967-0.461,17.76-1.334c1.518-0.229,3.02-0.51,4.517-0.796
			c1.542-0.293,3.068-0.624,4.59-0.979c10.379-2.411,20.249-6.161,29.396-11.105c1.298-0.702,2.575-1.444,3.844-2.195
			c1.285-0.759,2.546-1.542,3.798-2.347c12.032-7.719,22.603-17.523,31.151-28.935c-10.633-15.476-16.875-34.199-16.875-54.354
			c0-0.853,0.041-1.697,0.065-2.546c0.465-17.85,5.806-34.497,14.753-48.667c1.265-2.003,2.591-3.966,3.995-5.863
			c1.815-2.456,3.745-4.823,5.781-7.091c1.302-1.448,2.64-2.86,4.023-4.227c-14.643-30.098-41.649-53.093-74.362-62.404
			c-10.318-2.933-21.188-4.541-32.432-4.541c-14.366,0-28.14,2.566-40.894,7.263c-1.281,0.473-2.538,0.987-3.798,1.501
			c-1.273,0.518-2.53,1.064-3.778,1.628c-41.342,18.576-70.217,60.114-70.217,108.299
			C36.284,341.264,89.523,394.507,154.971,394.507z"/>
		<path d="M408.424,68.568c-1.375,0.028-2.758,0.037-4.125,0.106c-1.379,0.069-2.738,0.2-4.104,0.306
			c-32,2.542-60.973,15.81-83.289,36.25c-1.135,1.037-2.24,2.105-3.338,3.183c-1.113,1.089-2.199,2.203-3.277,3.329
			c-5.748,6.006-10.975,12.509-15.589,19.466c-5.532,8.344-10.18,17.315-13.843,26.785c-0.522,1.342-1.024,2.693-1.506,4.06
			c-0.245,0.698-0.477,1.404-0.714,2.105c-0.208,0.62-0.428,1.228-0.628,1.852c-0.416,1.306-0.792,2.627-1.167,3.95
			c-1.922,6.724-3.35,13.651-4.248,20.75c-0.738,5.822-1.163,11.747-1.163,17.769c0,2.375,0.061,4.733,0.179,7.079
			c0.323-0.245,0.657-0.478,0.983-0.718c1.334-0.979,2.697-1.917,4.08-2.828c3.329-2.187,6.793-4.178,10.392-5.948
			c2.689-1.322,5.451-2.518,8.274-3.591c2.212-0.84,4.464-1.595,6.749-2.272c1.084-0.322,2.166-0.645,3.264-0.93
			c1.346-0.347,2.709-0.653,4.08-0.942c1.35-0.286,2.713-0.535,4.08-0.759c5.164-0.861,10.457-1.33,15.863-1.33
			c4.691,0,9.301,0.355,13.814,1.007c46.535,6.724,82.412,46.855,82.412,95.223c0,8.94-1.254,17.589-3.547,25.81
			c-0.367,1.314-0.754,2.62-1.174,3.913s-0.861,2.578-1.334,3.848c-2.992,8.005-7.027,15.495-11.926,22.329
			c1.264,0.033,2.518,0.095,3.789,0.095c6.043,0,11.979-0.425,17.818-1.167c1.357-0.172,2.721-0.335,4.062-0.547
			c1.359-0.212,2.701-0.47,4.045-0.723c64.916-12.162,114.055-69.099,114.055-137.549c0-77.312-62.672-139.985-139.984-139.985
			C410.417,68.495,409.424,68.548,408.424,68.568z"/>
		<path d="M260.125,346.693c2.583,3.289,5.377,6.39,8.388,9.278c1.326,1.272,2.676,2.521,4.08,3.709
			c1.318,1.113,2.697,2.142,4.08,3.178c8.511,6.39,18.185,11.277,28.679,14.264c1.346,0.384,2.709,0.73,4.08,1.053
			c1.35,0.314,2.705,0.604,4.08,0.857c5.152,0.942,10.439,1.505,15.863,1.505c24.021,0,45.809-9.689,61.713-25.341
			c0.701-0.689,1.355-1.424,2.031-2.134c0.479-0.502,0.936-1.024,1.4-1.538c0.824-0.905,1.686-1.779,2.473-2.718
			c0.277-0.33,0.539-0.673,0.807-1.007c0.963-1.191,1.854-2.444,2.756-3.685c3.887-5.345,7.258-11.086,9.877-17.238
			c0.668-1.566,1.203-3.198,1.783-4.814c0.521-1.456,1.061-2.904,1.51-4.398c2.391-7.988,3.717-16.438,3.717-25.193
			c0-43.611-31.898-79.821-73.57-86.77c-4.729-0.788-9.553-1.297-14.502-1.297c-5.422,0-10.709,0.563-15.861,1.505
			c-1.375,0.253-2.73,0.542-4.08,0.857c-1.371,0.318-2.734,0.669-4.08,1.053c-4.754,1.35-9.323,3.104-13.709,5.198
			c-5.308,2.529-10.31,5.565-14.97,9.062c-1.379,1.037-2.762,2.064-4.08,3.178c-0.041,0.033-0.074,0.069-0.114,0.102
			c-0.282,0.241-0.543,0.506-0.82,0.747c-0.971,0.845-1.926,1.709-2.86,2.599c-0.094,0.09-0.192,0.171-0.286,0.261
			c-0.012,0.012-0.029,0.024-0.041,0.037c-1.081,1.041-2.122,2.118-3.149,3.211c-0.037,0.037-0.07,0.078-0.106,0.114
			c-0.734,0.783-1.46,1.571-2.162,2.379c-13.407,15.377-21.616,35.386-21.726,57.315c0,0.151-0.021,0.294-0.021,0.445
			c0,17.303,5.088,33.407,13.741,47.035c0.808,1.269,1.632,2.521,2.501,3.745C258.378,344.421,259.239,345.563,260.125,346.693z"/>
	</g>
</g>
<g>
</g>
<g>
</g>
<g>
</g>
<g>
</g>
<g>
</g>
<g>
</g>
<g>
</g>
<g>
</g>
<g>
</g>
<g>
</g>
<g>
</g>
<g>
</g>
<g>
</g>
<g>
</g>
<g>
</g>
</svg>
