<?xml version="1.0" encoding="iso-8859-1"?>
<!-- Generator: Adobe Illustrator 16.0.0, SVG Export Plug-In . SVG Version: 6.00 Build 0)  -->
<!DOCTYPE svg PUBLIC "-//W3C//DTD SVG 1.1//EN" "http://www.w3.org/Graphics/SVG/1.1/DTD/svg11.dtd">
<svg version="1.1" id="Capa_1" xmlns="http://www.w3.org/2000/svg" xmlns:xlink="http://www.w3.org/1999/xlink" x="0px" y="0px"
	 width="582.776px" height="582.775px" viewBox="0 0 582.776 582.775" style="enable-background:new 0 0 582.776 582.775;"
	 xml:space="preserve">
<g>
	<g>
		<path d="M228.287,468.865v66.838c0,26.834,20.563,47.072,47.834,47.072c27.271,0,47.834-20.238,47.834-47.072v-60.611
			c116.402-15.893,206.113-115.645,206.113-236.412C530.068,106.859,423.208,0,291.387,0c-131.82,0-238.68,106.859-238.68,238.68
			C52.712,348.645,127.103,441.188,228.287,468.865z M299.478,401.803v75.35v58.547c0,15.061-11.677,22.592-23.354,22.592
			c-11.677,0-23.354-7.531-23.354-22.592v-61.498v-64.158c-25.325-25.002-50.645-50.004-75.97-75.006
			c-7.254-3.219-12.742-10.02-12.627-20.42c0.343-31.135,0.689-62.27,1.032-93.408c0.167-15.055,11.934-22.591,23.615-22.587
			c11.673,0,23.26,7.527,23.093,22.587c-0.302,27.319-0.604,54.643-0.906,81.962c13.403,13.232,26.805,26.463,40.204,39.695V129.336
			c0-15.06,11.677-22.591,23.354-22.591c11.677,0,23.354,7.532,23.354,22.591v224.168c18.111-4.982,36.227-9.965,54.338-14.945
			c11.057-3.039,31.812-5.162,34.839-18.924c2.518-11.424,1.358-22.807,0.191-34.337c-1.509-14.945,9.36-22.362,21.009-22.362
			c11.705,0,24.198,7.491,25.699,22.362c3.166,31.321-0.236,71.706-33.925,86.19c-31.853,13.695-66.68,21.648-100.601,30.289
			C299.474,401.785,299.478,401.795,299.478,401.803z"/>
	</g>
</g>
<g>
</g>
<g>
</g>
<g>
</g>
<g>
</g>
<g>
</g>
<g>
</g>
<g>
</g>
<g>
</g>
<g>
</g>
<g>
</g>
<g>
</g>
<g>
</g>
<g>
</g>
<g>
</g>
<g>
</g>
</svg>
