<?xml version="1.0" encoding="iso-8859-1"?>
<!-- Generator: Adobe Illustrator 16.0.0, SVG Export Plug-In . SVG Version: 6.00 Build 0)  -->
<!DOCTYPE svg PUBLIC "-//W3C//DTD SVG 1.1//EN" "http://www.w3.org/Graphics/SVG/1.1/DTD/svg11.dtd">
<svg version="1.1" id="Capa_1" xmlns="http://www.w3.org/2000/svg" xmlns:xlink="http://www.w3.org/1999/xlink" x="0px" y="0px"
	 width="553.146px" height="553.146px" viewBox="0 0 553.146 553.146" style="enable-background:new 0 0 553.146 553.146;"
	 xml:space="preserve">
<g>
	<g>
		<path d="M468.418,13.854c-4.737-0.893-9.584-0.829-14.339-0.07c1.239-0.682,2.328-1.267,3.313-1.784
			c1.714-0.138,3.424-0.202,5.116-0.123c5.845,0.272,11.585,2.007,16.925,4.327c3.17,1.38,6.387,3.105,9.795,3.855
			c-3.804-4.352-8.448-8.176-13.445-11.086c4.385-3.865-0.765-5.444-4.373-5.597c-2.282-0.098-4.587,0.024-6.851,0.336
			c3.292-3.99-2.675-3.877-5.239-3.592c-3.402,0.382-6.692,1.353-9.825,2.72c-5.625,2.454-10.677,6.193-14.569,10.942
			c-1.261,1.542-4.21,4.413-4.036,6.677c-0.526,0.272-1.027,0.523-1.563,0.802c-6.438,3.442-13.645,7.476-21.264,12.301
			c-7.607,4.837-15.744,10.312-23.947,16.674c-8.32,6.227-16.546,13.513-24.826,21.334c-4.045,4.006-8.237,8.021-12.157,12.405
			c-1.971,2.179-4.076,4.275-5.952,6.585c-1.903,2.292-3.812,4.596-5.734,6.906c-1.971,2.28-3.739,4.728-5.566,7.148
			c-1.814,2.433-3.632,4.875-5.455,7.32l-5.129,7.61c-1.735,2.531-3.434,5.089-4.96,7.754l-4.771,7.895
			c-0.82,1.304-1.555,2.653-2.265,4.015l-2.21,4.042c-1.465,2.705-2.925,5.404-4.382,8.094c-1.321,2.763-2.641,5.517-3.953,8.262
			c-2.745,5.453-4.981,11.071-7.13,16.659c-2.375,5.518-3.785,11.264-5.526,16.812c-0.78,2.8-1.563,5.575-2.09,8.378
			c-0.618,2.782-1.139,5.56-1.631,8.311c-0.456,2.754-1.117,5.444-1.374,8.161c-0.013,0.104-0.021,0.202-0.034,0.306
			c-1.529-3.941-3.17-7.779-4.862-11.494c-3.326-7.068-6.756-13.773-10.499-19.829c-3.381-5.676-6.906-10.823-10.306-15.523
			c0.505-1.836,1.249-3.608,2.164-5.272c2.169-3.947,5.633-7.09,9.364-9.55c7.781-5.141,19.055-9.229,22.384-18.84
			c0.691-1.995,0.842-4.317-0.119-6.255c-0.558-1.12,1.245-2.154,1.942-3.026c1.558-1.946,2.963-4.024,4.098-6.246
			c1.965-3.843,3.587-8.997,2.081-13.292c-4.997,13.464-21.124,17.191-30.833,26.095c-7.503,6.882-11.977,16.656-13.837,26.567
			c-0.095,0.501-0.279,2.797-0.367,5.618c-0.468-0.609-0.93-1.193-1.396-1.781c0.141-1.34,0.208-2.604,0.266-2.962
			c1.34-8.442,4.728-17.234,10.214-23.896c3.718-4.517,8.546-8.075,13.602-10.961c3.002-1.714,6.312-3.256,8.954-5.533
			c-5.763,0.441-11.607,1.87-16.935,4.128c-0.468-5.826-4.816-2.647-7.099,0.153c-1.444,1.769-2.727,3.69-3.834,5.688
			c-1.224-5.024-4.707-0.181-6.013,2.044c-1.732,2.953-2.925,6.169-3.706,9.499c-1.215,5.174-1.331,10.569-0.404,15.802
			c-0.618-0.731-1.239-1.463-1.836-2.154c-3.305-3.746-6.264-6.922-8.837-9.413c-5.064-5.028-8.29-7.604-8.29-7.604l-0.018-0.016
			c-0.429-0.343-1.056-0.333-1.475,0.049c-0.462,0.422-0.496,1.141-0.074,1.606c0,0,2.681,2.935,6.824,8.589
			c4.137,5.63,9.773,13.883,15.493,24.312c5.75,10.395,11.509,22.999,16.096,36.897c1.08,3.498,2.243,7.023,3.127,10.67
			c1.004,3.611,1.839,7.304,2.656,11.022c0.845,3.709,1.377,7.512,2.05,11.285c0.398,3.822,1.062,7.607,1.251,11.448
			c0.22,3.834,0.569,7.644,0.407,11.466c-0.028,1.9-0.055,3.797-0.08,5.689c-0.071,0.945-0.138,1.885-0.208,2.827
			c-0.514-1.876-1.056-3.749-1.661-5.612c-0.897-2.947-1.799-5.906-2.702-8.874c-1.046-2.916-2.096-5.845-3.149-8.776l-1.591-4.382
			c-0.496-1.472-1.019-2.935-1.634-4.367l-3.534-8.635c-1.108-2.901-2.399-5.726-3.733-8.522c-1.31-2.803-2.616-5.606-3.923-8.399
			c-1.435-2.727-2.867-5.447-4.296-8.161c-1.441-2.702-2.824-5.419-4.428-8.002c-3.097-5.227-6.111-10.425-9.544-15.275
			c-3.229-4.976-6.787-9.627-10.199-14.238c-7.038-9.067-14.106-17.577-21.417-25.058c-7.179-7.592-14.421-14.287-21.23-20.264
			c-6.821-5.973-13.421-11.016-19.296-15.395c-2.543-1.845-4.933-3.531-7.219-5.104c-0.587-2.904-3.908-6.236-5.425-8.127
			c-5.312-6.601-12.228-11.818-19.954-15.27c-4.306-1.925-8.832-3.305-13.516-3.874c-3.534-0.425-11.756-0.655-7.268,4.887
			c-3.118-0.456-6.294-0.655-9.443-0.548c-4.979,0.166-12.099,2.277-6.102,7.663c-6.925,3.954-13.381,9.171-18.678,15.123
			c4.707-0.995,9.162-3.335,13.553-5.196c7.39-3.133,15.328-5.453,23.391-5.759c8.094-0.306,16.441,1.307,24.229,4.11
			c1.365,1.086,2.972,2.402,4.783,3.935c-11.598-5.138-24.643-7.644-37.182-5.395c-17.88,3.21-35.447,17.782-54.389,12.014
			c3.452,5.242,10.462,7.766,16.319,8.825c3.385,0.612,6.839,0.808,10.272,0.725c1.54-0.037,4.18-1.147,4.945,0.398
			c1.322,2.674,3.999,4.446,6.762,5.358c13.327,4.379,27.231-4.568,39.37-8.81c5.817-2.032,12.154-3.207,18.299-2.289
			c3.415,0.511,6.793,1.5,9.875,3.066c0.683,0.346,2.675,2.004,4.541,3.442c4.354,4.366,8.994,9.241,13.807,14.654
			c5.78,6.551,11.851,13.792,17.714,21.833c5.96,7.962,11.784,16.656,17.341,25.869c2.687,4.67,5.493,9.345,7.947,14.296
			c1.239,2.463,2.613,4.869,3.794,7.39c1.19,2.509,2.39,5.03,3.592,7.564c1.258,2.5,2.286,5.123,3.372,7.717
			c1.074,2.598,2.148,5.202,3.229,7.812c0.949,2.656,1.897,5.318,2.849,7.98c0.977,2.65,1.913,5.312,2.663,8.039
			c1.557,5.432,3.295,10.787,4.305,16.322c0.575,2.745,1.209,5.462,1.732,8.192c0.123,0.82,0.245,1.634,0.37,2.454
			c-1.028-0.569-2.087-1.132-3.194-1.673c-0.934-0.456-1.885-0.918-2.846-1.389c-0.995-0.404-2.004-0.817-3.021-1.23
			c-1.986-0.89-4.18-1.453-6.276-2.136c-2.145-0.581-4.348-1-6.484-1.386c-1.273-0.08-2.506-0.242-3.724-0.349
			c-0.009-0.021,0-0.043-0.013-0.064c-1.315-2.494-6.573-2.98-9.012-3.503c-7.233-1.548-14.792-1.276-21.928,0.636
			c-3.978,1.065-7.803,2.623-11.292,4.816c-2.628,1.656-8.329,6.028-2.234,7.314c-2.362,1.407-4.626,3.02-6.701,4.825
			c-3.283,2.852-6.946,8.204,0.083,8.55c-2.519,6.493-4.018,13.583-4.333,20.532c2.641-3.265,4.373-7.304,6.322-10.982
			c3.283-6.19,7.387-12.133,12.68-16.777c6.145-5.393,13.926-9.242,21.885-11.592c0.413-0.076,0.814-0.146,1.251-0.226
			c0.374-0.067,0.756-0.138,1.147-0.208c0.401-0.006,0.808-0.009,1.221-0.015c0.82-0.012,1.667-0.021,2.54-0.034
			c1.123-0.104,2.292,0.074,3.479,0.26c-2.124,0.177-3.709,0.367-4.143,0.465c-11.858,2.613-23.452,8.363-31.454,17.65
			c-10.349,12.021-14.232,31.564-30.248,38.085c5.227,1.652,11.365-0.495,15.918-3.002c2.631-1.45,5.08-3.219,7.362-5.165
			c1.022-0.872,2.2-3.078,3.571-2.451c2.369,1.083,5.159,0.814,7.534-0.092c11.441-4.369,15.939-18.088,21.83-27.644
			c2.824-4.581,6.472-8.865,11.142-11.625c2.595-1.533,5.428-2.724,8.381-3.357c0.107-0.021,0.306-0.037,0.489-0.052
			c0.873,0.358,1.741,0.729,2.592,1.138c1.756,0.967,3.549,1.769,5.177,2.901c0.823,0.526,1.64,1.047,2.448,1.561
			c0.774,0.572,1.539,1.139,2.289,1.695c2.999,2.213,5.584,4.578,7.733,6.634c0.643,0.64,1.23,1.24,1.787,1.818
			c0.282,2.72,0.521,5.428,0.854,8.097c0.713,5.324,0.878,10.648,1.444,15.826c0.698,5.168,0.753,10.315,1.288,15.324
			c0.576,5.01,0.744,9.948,1.065,14.771c0.144,2.412,0.294,4.795,0.502,7.148c0.125,2.354,0.11,4.676,0.174,6.965
			c0.141,4.58,0.41,9.036,0.478,13.329c-0.046,4.281,0.021,8.421,0.083,12.381c0,1.977,0.174,39.765,0.104,41.641
			c-0.064,1.872-0.098,3.702-0.107,5.486c-0.113,4.765-0.006,9.158,0.003,13.128c-0.306,2.582-0.478,5.158-0.676,7.705
			c-0.34,4.085-0.089,8.1,0.098,12.022c0.12,3.929,0.744,7.727,1.334,11.407c0.281,1.843,0.566,3.654,0.906,5.429
			c0.367,1.769,0.823,3.491,1.224,5.189c0.027,0.099,0.049,0.193,0.076,0.294c-58.516,4.893-103.578,35.12-103.578,71.696h240.535
			c0-37.944-48.492-69.05-110.194-72.134c0.024-1.01,0.049-2.014,0.07-3.045c0.013-1.536-0.03-3.091,0.021-4.669
			c0.113-1.582,0.172-3.177,0.224-4.789c0.132-3.229,0.144-6.524,0.395-9.872c0.229-3.348,0.086-6.766,0.358-10.22
			c0.205-6.922,0.165-14.113,0.654-21.457c0.113-1.842,0.227-3.693,0.34-5.551c0.189-1.849,0.469-39.526,0.698-41.387
			c0.354-3.751,1.264-7.399,2.02-11.102c0.74-3.712,1.942-7.295,2.885-10.964c1.206-3.574,2.28-7.206,3.645-10.704
			c1.338-3.51,2.702-6.989,4.195-10.379c1.387-3.446,3.026-6.727,4.587-10.001c3.25-6.475,6.727-12.613,10.307-18.292
			c1.11-1.809,2.239-3.544,3.378-5.251c1.414-1.025,5.013-7.433,6.004-8.458c2.576-2.668,5.658-4.854,8.941-6.563
			c5.908-3.082,12.748-4.106,19.354-4.082c13.791,0.052,31.019,4.259,42.999-4.845c2.484-1.891,4.578-4.623,4.984-7.8
			c0.232-1.836,3.299-1.631,4.875-2.136c3.51-1.12,6.943-2.524,10.162-4.33c5.569-3.122,11.793-8.137,13.458-14.658
			c-17.188,12.479-40.099,3.85-59.349,6.852c-5.875,0.915-11.524,2.803-16.87,5.373c0.067-0.33,0.027-0.688-0.141-1.013
			c-0.205-0.389-0.554-0.643-0.945-0.75c2.849-1.374,5.771-2.54,8.745-3.443c8.28-2.509,17.143-2.938,25.731-2.344
			c5.104,0.352,10.438,1.166,15.561,0.529c-7.454-4.18-15.823-7.212-24.229-8.797c4.198-7.558-3.761-7.207-8.864-5.633
			c-3.229,0.991-6.381,2.304-9.382,3.858c2.612-7.191-5.646-4.082-9.079-2.411c-4.551,2.215-8.657,5.199-12.351,8.657
			c-6.625,6.203-11.814,13.914-14.89,22.463c-0.802,2.24-2.708,6.228-2.708,9.303c-0.896,0.802-1.8,1.609-2.709,2.463
			c-4.528,4.254-9.342,9.012-14.094,14.395c-1.16,1.27-2.308,2.586-3.445,3.935c0.009-0.109,0.03-0.22,0.039-0.333
			c0.27-2.953,0.618-5.937,0.734-8.966c0.145-1.341,0.31-2.727,0.539-4.177c0.37-3.075,0.768-6.401,1.196-9.954
			c0.609-7.087,2.173-14.979,3.191-23.538c0.643-4.272,1.549-8.678,2.332-13.238c0.395-2.28,0.719-4.602,1.185-6.94
			c0.547-2.323,1.052-4.685,1.557-7.075c1.06-4.774,1.916-9.707,3.29-14.633c1.396-4.917,2.169-10.092,3.825-15.129
			c1.392-5.101,2.567-10.37,4.238-15.557c1.615-5.205,2.949-10.6,4.929-15.817c0.919-2.644,1.837-5.297,2.761-7.956
			c1.025-2.619,2.157-5.208,3.234-7.833c2.035-5.312,4.706-10.343,7.243-15.459c1.233-2.579,2.641-5.061,4.085-7.524l4.256-7.43
			c1.536-2.402,3.072-4.801,4.603-7.191c1.542-2.387,3.029-4.804,4.725-7.065c1.646-2.301,3.283-4.593,4.915-6.873
			c1.621-2.292,3.418-4.431,5.092-6.649c3.326-4.465,6.952-8.596,10.456-12.736c7.166-8.127,14.498-15.683,21.817-22.488
			c7.24-6.904,14.535-12.975,21.417-18.412c6.895-5.422,13.488-10.055,19.419-14.052c1.783-0.704,3.632-1.249,5.526-1.512
			c4.461-0.627,9.051,0.267,13.256,1.778c8.775,3.152,18.801,9.731,28.491,6.644c2.011-0.643,3.963-1.913,4.939-3.84
			c0.562-1.117,2.472-0.294,3.586-0.257c2.491,0.083,4.997-0.037,7.454-0.459c4.253-0.728,9.354-2.515,11.892-6.294
			C494.006,26.979,481.361,16.299,468.418,13.854z"/>
	</g>
</g>
<g>
</g>
<g>
</g>
<g>
</g>
<g>
</g>
<g>
</g>
<g>
</g>
<g>
</g>
<g>
</g>
<g>
</g>
<g>
</g>
<g>
</g>
<g>
</g>
<g>
</g>
<g>
</g>
<g>
</g>
</svg>
