<?xml version="1.0" encoding="iso-8859-1"?>
<!-- Generator: Adobe Illustrator 16.0.0, SVG Export Plug-In . SVG Version: 6.00 Build 0)  -->
<!DOCTYPE svg PUBLIC "-//W3C//DTD SVG 1.1//EN" "http://www.w3.org/Graphics/SVG/1.1/DTD/svg11.dtd">
<svg version="1.1" id="Capa_1" xmlns="http://www.w3.org/2000/svg" xmlns:xlink="http://www.w3.org/1999/xlink" x="0px" y="0px"
	 width="545.863px" height="545.863px" viewBox="0 0 545.863 545.863" style="enable-background:new 0 0 545.863 545.863;"
	 xml:space="preserve">
<g>
	<g>
		<path fill="#93C281" d="M338.054,138.524c-1.273-5.5-5.137-10.322-10.131-12.689c-3.852-2.603-8.638-3.325-13.452-2.007
			c-69.829,19.05-121.42,95.929-145.962,140.062c-34.317,61.727-51.971,131.506-51.049,201.801
			c0.298,22.717,2.57,45.451,6.756,67.564c1.473,7.777,7.177,12.607,14.88,12.607c3.958,0,7.956-1.346,11.195-3.732h96.741
			c5.553,0,10.245-2.338,13.272-6.602c3.529-3.094,5.28-7.586,4.933-12.73c-7.956-118.369-17.858-265.681,69.091-369.272
			C337.968,149.194,339.286,143.869,338.054,138.524z M230.358,508.217h-76.01c-16.23-116.916,29.119-239.81,116.827-319.794
			C221.598,284.561,223.385,398.652,230.358,508.217z"/>
		<path fill="#93C281" d="M334.426,226.24c66.031,11.922,123.775,47.467,162.711,100.131c1.542,7.25,7.132,11.885,14.451,11.885l0,0
			c4.888,0,9.906-2.117,13.423-5.666c3.235-3.268,5.022-7.557,5.048-12.105c0.212-2.061-0.05-4.141-0.779-6.186
			c-10.898-61.734-42.967-117.716-90.797-158.912c15.989,1.281,31.555,5.496,46.394,12.562c0.563,0.27,1.122,0.473,1.767,0.686
			c2.452,1.795,5.369,2.742,8.499,2.742c5.948,0,11.95-3.439,15.288-8.76c3.182-5.08,3.472-11.159,0.795-16.687
			c-16.989-35.06-45.39-62.29-80.943-77.977c7.034-0.478,14.149-0.412,21.314,0.188c5.626,0.494,10.204-1.481,13.288-5.39
			c4.644-2.913,7.851-7.735,8.442-12.787c0.575-4.9-1.294-9.608-5.264-13.264C442.334,13.036,409.532,0,375.7,0
			c-39.727,0-77.263,17.703-103.485,48.687c-28.364-13.839-59.898-21.139-91.417-21.139c-34.811,0-69.421,8.846-100.09,25.582
			c-3.644,1.983-6.243,4.929-7.544,8.543c-3.15,5.439-3.281,12.595-0.286,17.964c2.746,4.929,7.731,7.752,13.672,7.752l0.8-0.016
			c17.128-0.682,33.321,3.26,47.475,11.465c-47.63,10.583-88.993,41.33-112.09,83.758c-2.66,2.615-4.296,5.871-4.773,9.51
			l-0.045,0.086c-0.192,0.371-0.388,0.747-0.555,1.122c-2.53,5.585-2.097,11.709,1.187,16.801c3.395,5.259,9.348,8.658,15.169,8.658
			c5.843,0,10.694-3.313,13.313-9.099c0.543-1.199,1.139-2.362,1.734-3.525l0.232-0.457c20.318-11.889,43.13-18.168,66.047-18.168
			c18.625,0,36.671,4.047,53.636,12.023c2.46,1.155,5.006,1.742,7.564,1.742c8.14,0,15.663-6.206,17.503-14.439
			c1.608-7.189-1.689-13.676-8.601-16.924c-22.689-10.665-46.634-16.075-71.159-16.075c-7.875,0-15.729,0.575-23.493,1.718
			c23.37-17.462,51.628-26.937,81.049-26.937l1.677,0.008c4.59,0,8.584-1.583,11.555-4.574c3.027-3.056,4.77-7.454,4.802-12.113
			c0.559-4.667-0.706-9.139-3.668-12.958c-11.122-14.337-25.402-25.839-41.763-33.721c12.065-2.611,24.378-3.929,36.741-3.929
			c30.351,0,60.363,8.029,86.79,23.223c7.455,4.284,16.173,2.375,21.367-4.276c1.853-1.195,3.464-2.742,4.807-4.606
			c19.176-26.741,48.805-42.073,81.294-42.073c9.604,0,19.017,1.342,28.132,4.002c-15.9,3.521-31.266,9.425-45.839,17.613
			c-6.757,3.803-9.76,10.743-7.825,18.12c2.02,7.707,8.804,13.325,16.201,13.464c1.518,0.481,2.93,0.747,4.402,0.82
			c31.298,1.599,60.27,14.125,82.812,35.578c-21.648-3.395-43.737-2.457-65.725,2.754c-7.173,1.697-11.774,6.96-12.305,14.076
			c-0.556,7.41,3.618,14.708,10.008,17.695c0.828,0.767,1.693,1.424,2.623,2.007c36.647,23.019,65.962,55.137,85.607,93.599
			c-37.965-30.73-82.71-51.347-130.495-59.972c-1.122-0.2-2.244-0.302-3.342-0.302c-10.429,0-16.83,8.642-17.556,16.769
			C321.081,218.158,326.148,224.747,334.426,226.24z"/>
	</g>
</g>
<g>
</g>
<g>
</g>
<g>
</g>
<g>
</g>
<g>
</g>
<g>
</g>
<g>
</g>
<g>
</g>
<g>
</g>
<g>
</g>
<g>
</g>
<g>
</g>
<g>
</g>
<g>
</g>
<g>
</g>
</svg>
