<?xml version="1.0" encoding="iso-8859-1"?>
<!-- Generator: Adobe Illustrator 16.0.0, SVG Export Plug-In . SVG Version: 6.00 Build 0)  -->
<!DOCTYPE svg PUBLIC "-//W3C//DTD SVG 1.1//EN" "http://www.w3.org/Graphics/SVG/1.1/DTD/svg11.dtd">
<svg version="1.1" id="Capa_1" xmlns="http://www.w3.org/2000/svg" xmlns:xlink="http://www.w3.org/1999/xlink" x="0px" y="0px"
	 width="577.815px" height="577.815px" viewBox="0 0 577.815 577.815" style="enable-background:new 0 0 577.815 577.815;"
	 xml:space="preserve">
<g>
	<g>
		<path fill="#9FBF62" d="M66.474,423.396c-2.346,3.848-0.591,6.969,3.913,6.969h184.485V541.63c0,20.628,15.786,36.186,36.72,36.186
			s36.72-15.558,36.72-36.186V430.364h179.116c4.508,0,6.259-3.121,3.912-6.969l-71.334-117.071
			c-2.347-3.848-0.592-6.969,3.912-6.969h21.727c4.508,0,6.259-3.121,3.912-6.969L293.155,2.886c-2.346-3.848-6.149-3.848-8.491,0
			L108.257,292.387c-2.346,3.848-0.592,6.969,3.913,6.969h21.726c4.508,0,6.259,3.121,3.913,6.969L66.474,423.396z M307.917,541.63
			c0,10.522-8.16,15.785-16.32,15.785s-16.32-5.263-16.32-15.785V430.364V166.27c0-10.522,8.16-15.786,16.32-15.786
			s16.32,5.264,16.32,15.786v24.488v35.83v203.776V541.63z"/>
	</g>
</g>
<g>
</g>
<g>
</g>
<g>
</g>
<g>
</g>
<g>
</g>
<g>
</g>
<g>
</g>
<g>
</g>
<g>
</g>
<g>
</g>
<g>
</g>
<g>
</g>
<g>
</g>
<g>
</g>
<g>
</g>
</svg>
