<?xml version="1.0" encoding="iso-8859-1"?>
<!-- Generator: Adobe Illustrator 16.0.0, SVG Export Plug-In . SVG Version: 6.00 Build 0)  -->
<!DOCTYPE svg PUBLIC "-//W3C//DTD SVG 1.1//EN" "http://www.w3.org/Graphics/SVG/1.1/DTD/svg11.dtd">
<svg version="1.1" id="Capa_1" xmlns="http://www.w3.org/2000/svg" xmlns:xlink="http://www.w3.org/1999/xlink" x="0px" y="0px"
	 width="555.043px" height="555.043px" viewBox="0 0 555.043 555.043" style="enable-background:new 0 0 555.043 555.043;"
	 xml:space="preserve">
<g>
	<g>
		<path d="M459.522,319.163h11.448c10.009,0,16.871-4.88,20.588-11.571c9.665-8.568,13.615-23.737,1.812-35.524
			c-22.232-22.2-44.468-44.403-66.704-66.602c4.479-0.277,8.192-1.652,11.31-3.652c14.709-5.969,24.297-25.793,9.625-40.4
			c-49.747-49.531-99.495-99.062-149.242-148.589c-3.19-4.476-7.728-8.046-12.836-9.951c-2.052-0.804-4.129-1.253-6.197-1.416
			c-0.151-0.012-0.307-0.028-0.457-0.037c-0.453-0.024-0.902-0.033-1.351-0.029c-0.449-0.004-0.897,0.008-1.351,0.033
			c-0.155,0.008-0.306,0.025-0.457,0.037c-2.064,0.159-4.145,0.608-6.197,1.416c-5.108,1.901-9.645,5.476-12.836,9.951
			c-49.747,49.523-99.495,99.054-149.242,148.581c-14.671,14.606-5.083,34.436,9.629,40.4c3.117,1.999,6.83,3.378,11.31,3.651
			c-22.232,22.2-44.468,44.403-66.7,66.602c-11.803,11.788-7.858,26.957,1.812,35.525c3.717,6.691,10.58,11.57,20.588,11.57h11.448
			c-29.441,29.812-58.878,59.621-88.32,89.434c-9.645,9.768-8.646,21.796-2.611,30.527c1.774,10.596,9.604,19.996,23.497,19.996
			c69.543,0,139.091,0,208.635,0v-49.397c-14.06,0-28.103,0-42.187,0c-26.94,0-53.881,0-80.821,0c-5.398,0-34.244-4.01-38.205,0
			c31.689-32.089,63.375-64.174,95.064-96.263c7.087-7.177,8.425-15.578,6.242-22.995c-1.542-10.882-9.392-20.698-23.59-20.698
			h-19.339c23.272-23.239,46.549-46.479,69.821-69.719c7.646-7.634,8.674-16.691,5.834-24.456
			c-1.954-10.367-9.735-19.437-23.382-19.437h-3.427c31.592-31.453,63.187-62.914,94.787-94.371
			c31.6,31.461,63.196,62.918,94.795,94.378h-3.428c-13.647,0-21.428,9.074-23.382,19.438c-2.844,7.764-1.812,16.822,5.834,24.456
			c23.272,23.24,46.549,46.479,69.821,69.719h-19.339c-14.199,0-22.053,9.817-23.591,20.698c-2.179,7.418-0.845,15.818,6.242,22.995
			c31.689,32.089,63.375,64.174,95.064,96.264c-28.887,0-57.773,0-86.659,0c-24.893,0-49.72,0-74.555,0v49.396
			c69.544,0,139.092,0,208.636,0c13.892,0,21.722-9.4,23.496-19.996c6.034-8.731,7.034-20.764-2.611-30.526
			C518.4,378.783,488.96,348.976,459.522,319.163z"/>
		<path d="M297.918,533.922v-74.799v-49.396V222.344c0-13.154-10.2-19.735-20.401-19.735c-10.2,0-20.4,6.577-20.4,19.735v187.378
			v49.396v74.799c0,13.153,10.2,19.734,20.4,19.734C287.718,553.652,297.918,547.075,297.918,533.922z"/>
	</g>
</g>
<g>
</g>
<g>
</g>
<g>
</g>
<g>
</g>
<g>
</g>
<g>
</g>
<g>
</g>
<g>
</g>
<g>
</g>
<g>
</g>
<g>
</g>
<g>
</g>
<g>
</g>
<g>
</g>
<g>
</g>
</svg>
