<?xml version="1.0" encoding="iso-8859-1"?>
<!-- Generator: Adobe Illustrator 16.0.0, SVG Export Plug-In . SVG Version: 6.00 Build 0)  -->
<!DOCTYPE svg PUBLIC "-//W3C//DTD SVG 1.1//EN" "http://www.w3.org/Graphics/SVG/1.1/DTD/svg11.dtd">
<svg version="1.1" id="Capa_1" xmlns="http://www.w3.org/2000/svg" xmlns:xlink="http://www.w3.org/1999/xlink" x="0px" y="0px"
	 width="564.586px" height="564.586px" viewBox="0 0 564.586 564.586" style="enable-background:new 0 0 564.586 564.586;"
	 xml:space="preserve">
<g>
	<g>
		<path d="M130.562,208.904l-0.526,53.815c3.807-0.012,11.983-0.314,22.873-2.232l-0.514-52.628c0.734,0.645,1.514,1.31,2.317,1.979
			l-0.885-2.129l12.754,0.49c0.078,0.004,0.424,0.012,1.016,0.012c3.578,0,18.054-0.437,36.006-6.585
			c-0.959-2.733-1.738-5.508-2.211-8.286c0,0,0.437,0.106,1.22,0.236c-5.737-5.357-11.253-12.856-15.676-23.468l-4.875-11.771
			l12.746,0.481c0.069,0.004,0.318,0.008,0.726,0.008c5.296,0,23.24-0.906,42.281-11.755c-8.846-1.873-19.127-4.92-29.943-9.951
			c11.089-2.986,24.843-11.53,33.872-34.28c0,0-21.293,1.297-46.014-10c7.454-3.166,15.704-10.037,21.432-24.463
			c0,0-19.983,1.208-41.261-10.894c6.708-0.747,16.883-4.672,23.125-20.404c0,0-38.217,2.342-57.997-37.079
			C121.92,39.748,83.667,38.054,83.667,38.054c6.385,15.329,16.365,19.229,23.084,19.968C85.653,70.527,65.604,69.654,65.604,69.654
			c5.9,14.162,14.137,20.898,21.575,23.986c-24.627,11.836-46.08,10.894-46.08,10.894c9.291,22.297,22.946,30.682,34.007,33.587
			c-30.82,15.059-57.846,13.872-57.846,13.872c22.322,53.57,65.027,42.35,65.027,42.35c-3.089,20.119-21.057,40.673-21.057,40.673
			C93.634,236.33,117.514,220.516,130.562,208.904z"/>
		<path d="M547.326,149.899c0,0-26.854,1.636-57.821-12.774c11.089-2.987,24.843-11.53,33.872-34.28c0,0-21.294,1.297-46.015-10
			c7.454-3.166,15.704-10.037,21.433-24.464c0,0-19.984,1.208-41.262-10.894c6.708-0.747,16.884-4.671,23.126-20.404
			c0,0-38.218,2.342-57.997-37.079C403.555,39.751,365.3,38.059,365.3,38.059c6.386,15.329,16.365,19.229,23.085,19.967
			c-21.098,12.505-41.146,11.632-41.146,11.632c5.899,14.162,14.137,20.898,21.579,23.986c-24.627,11.836-46.08,10.894-46.08,10.894
			c9.29,22.297,22.946,30.681,34.007,33.586c-8.384,4.096-16.458,6.96-23.811,9c18.177,9.392,34.814,10.2,39.874,10.2
			c0.836,0,1.334-0.02,1.411-0.024l12.823-0.787l-4.74,11.942c-5.047,12.717-11.71,21.085-18.523,26.634
			c-0.245,1.436-0.571,2.868-0.955,4.3c17.838,6.218,32.624,6.846,37.769,6.846c1.188,0,1.877-0.032,1.971-0.037l12.812-0.775
			l-3.231,8.139l-0.429,43.832c9.837,1.853,17.817,2.46,22.815,2.64l-0.51-52.179c13.011,11.452,37.564,27.699,70.743,25.793
			c0,0-18.315-20.249-21.742-40.31C483.021,193.339,525.914,203.837,547.326,149.899z"/>
		<path d="M478.888,341.725c0,0-1.437,0.086-4.084,0.086c-11.661,0-46.831-1.697-86.264-20.049
			c13.015-3.506,28.38-11.914,41.204-30.951c1.726-2.562,3.39-5.361,5.01-8.32c2.37-4.324,4.631-9.037,6.716-14.292
			c0,0-1.163,0.069-3.305,0.069c-0.971,0-2.191-0.02-3.55-0.065c-5.243-0.163-13.207-0.743-22.979-2.497
			c-11.967-2.15-26.581-6.055-42.064-13.133c11.179-4.75,23.488-14.855,32.374-35.586c0.376-0.873,0.751-1.73,1.114-2.64
			c0,0-0.865,0.053-2.464,0.053c-5.855,0-21.543-0.73-40.393-7.295c-6.896-2.399-14.198-5.557-21.62-9.78
			c2.873-0.318,6.161-1.036,9.613-2.383c9.135-3.558,19.445-11.661,26.523-29.498c0,0-0.673,0.041-1.913,0.041
			c-6.553,0-28.948-1.159-51.547-15.634c-13.403-8.584-26.879-21.849-37.161-42.347c-9.416,19.592-21.815,32.738-34.374,41.559
			c-24.121,16.944-48.838,17.919-54.195,17.919c-0.693,0-1.061-0.017-1.061-0.017c6.075,14.586,14.231,22.526,22.056,26.786
			c5.022,2.733,9.911,3.965,14.019,4.414c-8.185,4.852-16.25,8.38-23.782,10.996c-19.082,6.63-34.619,7.201-39.164,7.201
			c-0.881,0-1.351-0.021-1.351-0.021c0.379,0.914,0.775,1.774,1.167,2.648c9.119,20.31,21.399,30.2,32.546,34.831
			c-17.626,8.47-34.174,12.734-46.977,14.884c-11.151,1.876-19.441,2.154-23.032,2.162c-0.049,0-0.119,0-0.167,0
			c-1.195,0-1.828-0.028-1.828-0.028c0.632,1.518,1.293,2.941,1.95,4.374c2.97,6.491,6.177,12.186,9.56,17.139
			c13.04,19.104,28.502,27.516,41.628,30.965c-41.596,20.322-78.764,21.709-88.124,21.709c-1.477,0-2.26-0.033-2.26-0.033
			c24.578,58.988,64.978,67.699,86.696,67.699c9.098,0,14.916-1.529,14.916-1.529c-4.822,31.436-32.905,63.555-32.905,63.555
			c1.983,0.08,3.953,0.117,5.896,0.117c47.626,0,82.836-23.496,102.42-40.926l-1.134,115.68c0,8.283,8.147,14.998,18.197,14.998
			c10.049,0,18.196-6.715,18.196-14.998l-1.146-117.312c19.222,16.924,54.583,40.543,102.204,40.543c2.738,0,5.517-0.076,8.332-0.24
			c0,0-28.617-31.637-33.975-62.986c0,0,5.264,1.289,13.57,1.289C413.334,410.893,454.808,402.395,478.888,341.725z"/>
	</g>
</g>
<g>
</g>
<g>
</g>
<g>
</g>
<g>
</g>
<g>
</g>
<g>
</g>
<g>
</g>
<g>
</g>
<g>
</g>
<g>
</g>
<g>
</g>
<g>
</g>
<g>
</g>
<g>
</g>
<g>
</g>
</svg>
