<?xml version="1.0" encoding="iso-8859-1"?>
<!-- Generator: Adobe Illustrator 16.0.0, SVG Export Plug-In . SVG Version: 6.00 Build 0)  -->
<!DOCTYPE svg PUBLIC "-//W3C//DTD SVG 1.1//EN" "http://www.w3.org/Graphics/SVG/1.1/DTD/svg11.dtd">
<svg version="1.1" id="Capa_1" xmlns="http://www.w3.org/2000/svg" xmlns:xlink="http://www.w3.org/1999/xlink" x="0px" y="0px"
	 width="582.188px" height="582.188px" viewBox="0 0 582.188 582.188" style="enable-background:new 0 0 582.188 582.188;"
	 xml:space="preserve">
<g>
	<g>
		<path d="M159.289,432.799c-6.875,44.803-46.896,90.58-46.896,90.58c57.079,2.309,102.298-19.27,133.089-41.188l-0.722,57.969
			v0.125v0.127c0,23.035,20.784,41.775,46.333,41.775c25.548,0,46.333-18.74,46.333-41.775v-0.127v-0.125l-0.756-60.508
			c31.199,21.992,77.68,44.045,136.264,40.682c0,0-40.787-45.092-48.422-89.771c0,0,95.521,23.379,143.201-96.748
			c0,0-59.805,3.643-128.77-28.451c24.691-6.646,55.324-25.675,75.436-76.336c0,0-47.422,2.893-102.475-22.269
			c16.607-7.05,34.971-22.35,47.729-54.484c0,0-44.508,2.693-91.895-24.256c14.938-1.66,37.602-10.408,51.508-45.438
			c0,0-85.113,5.21-129.158-82.58c-42.55,88.52-127.74,84.746-127.74,84.746c14.223,34.141,36.442,42.824,51.412,44.468
			c-46.985,27.85-91.637,25.908-91.637,25.908c13.142,31.543,31.481,46.537,48.054,53.42
			c-54.843,26.356-102.62,24.259-102.62,24.259c20.69,49.658,51.102,68.328,75.737,74.795
			c-68.642,33.537-128.822,30.889-128.822,30.889C64.18,457.789,159.289,432.799,159.289,432.799z M317.03,540.408
			c0,11.809-11.611,21.375-25.933,21.375c-14.321,0-25.932-9.572-25.932-21.375l0.93-74.582l3.15-252.585
			c0-11.803,7.531-37.695,21.852-37.695c14.322,0,21.853,25.892,21.853,37.695l3.121,250.231L317.03,540.408z"/>
	</g>
</g>
<g>
</g>
<g>
</g>
<g>
</g>
<g>
</g>
<g>
</g>
<g>
</g>
<g>
</g>
<g>
</g>
<g>
</g>
<g>
</g>
<g>
</g>
<g>
</g>
<g>
</g>
<g>
</g>
<g>
</g>
</svg>
