<?xml version="1.0" encoding="iso-8859-1"?>
<!-- Generator: Adobe Illustrator 16.0.0, SVG Export Plug-In . SVG Version: 6.00 Build 0)  -->
<!DOCTYPE svg PUBLIC "-//W3C//DTD SVG 1.1//EN" "http://www.w3.org/Graphics/SVG/1.1/DTD/svg11.dtd">
<svg version="1.1" id="Capa_1" xmlns="http://www.w3.org/2000/svg" xmlns:xlink="http://www.w3.org/1999/xlink" x="0px" y="0px"
	 width="583.742px" height="583.742px" viewBox="0 0 583.742 583.742" style="enable-background:new 0 0 583.742 583.742;"
	 xml:space="preserve">
<g>
	<g>
		<path d="M259.304,521.502v29.666c0,18.266,14.304,32.574,32.566,32.574s32.567-14.309,32.567-32.574v-29.666
			c52.914-14.316,91.854-62.641,91.854-120.084c0-34.156-13.775-65.092-36.061-87.576c12.42-17.602,19.74-39.058,19.74-62.236
			c0-36.945-18.545-69.544-46.822-89.042c19.344-17.014,31.566-41.934,31.566-69.719C384.715,41.571,343.148,0,291.871,0
			c-51.277,0-92.845,41.571-92.845,92.844c0,27.789,12.224,52.706,31.567,69.719c-28.274,19.498-46.822,52.097-46.822,89.042
			c0,23.178,7.319,44.635,19.739,62.236c-22.285,22.484-36.059,53.42-36.059,87.576
			C167.455,458.861,206.391,507.186,259.304,521.502z M304.037,525.238v25.93c0,8.119-6.084,12.174-12.167,12.174
			c-6.083,0-12.167-4.061-12.167-12.174v-25.93v-85.754c-23.962-2.242-43.962-19.387-51.955-43.66
			c-3.06-9.297,4.284-15.377,11.693-15.377c4.872,0,9.772,2.623,11.767,8.684c4.68,14.209,15.504,22.59,28.49,24.773v-54.9v-68.361
			c-8.816-0.824-17.091-3.684-24.435-8.156c-12.611-7.683-22.468-20.164-27.515-35.504c-3.06-9.298,4.284-15.377,11.693-15.377
			c4.872,0,9.772,2.624,11.767,8.683c4.68,14.21,15.504,22.591,28.491,24.773v-80.192v-40.661v-4.027
			c-23.962-2.244-43.962-19.388-51.955-43.66c-3.06-9.298,4.284-15.377,11.693-15.377c4.872,0,9.771,2.623,11.767,8.682
			c4.68,14.21,15.504,22.587,28.491,24.774V65.402c0-8.119,6.083-12.175,12.167-12.175s12.167,4.06,12.167,12.175v49.201
			c12.99-2.187,23.814-10.563,28.49-24.774c1.996-6.059,6.895-8.682,11.768-8.682c7.412,0,14.756,6.075,11.693,15.377
			c-7.994,24.276-27.994,41.42-51.955,43.66v4.027v40.661v80.193c12.99-2.187,23.814-10.567,28.49-24.774
			c1.994-6.059,6.895-8.682,11.768-8.682c7.412,0,14.756,6.075,11.693,15.377c-5.053,15.341-14.904,27.821-27.521,35.504
			c-7.344,4.476-15.617,7.332-24.434,8.156v68.357v54.9c12.99-2.188,23.814-10.568,28.49-24.775
			c1.994-6.059,6.895-8.682,11.766-8.682c7.414,0,14.758,6.076,11.693,15.377c-7.992,24.277-27.992,41.422-51.953,43.66v85.754
			H304.037z"/>
	</g>
</g>
<g>
</g>
<g>
</g>
<g>
</g>
<g>
</g>
<g>
</g>
<g>
</g>
<g>
</g>
<g>
</g>
<g>
</g>
<g>
</g>
<g>
</g>
<g>
</g>
<g>
</g>
<g>
</g>
<g>
</g>
</svg>
