<?xml version="1.0" encoding="iso-8859-1"?>
<!-- Generator: Adobe Illustrator 16.0.0, SVG Export Plug-In . SVG Version: 6.00 Build 0)  -->
<!DOCTYPE svg PUBLIC "-//W3C//DTD SVG 1.1//EN" "http://www.w3.org/Graphics/SVG/1.1/DTD/svg11.dtd">
<svg version="1.1" id="Capa_1" xmlns="http://www.w3.org/2000/svg" xmlns:xlink="http://www.w3.org/1999/xlink" x="0px" y="0px"
	 width="560.322px" height="560.322px" viewBox="0 0 560.322 560.322" style="enable-background:new 0 0 560.322 560.322;"
	 xml:space="preserve">
<g>
	<g>
		<path d="M448.063,560.318l-3.361-63.75c-7.401,1.176-14.982,1.799-22.705,1.799c-16.492,0-32.335-2.814-47.108-7.928
			c-4.096,7.713-3.708,18.354,3.28,24.211c6.141,5.146,11.886,10.699,17.377,16.516l-2.052,29.156h54.569V560.318z"/>
		<path d="M455.154,230.116c-5.875,88.112-61.347,162.841-138.711,196.427c18.992,27.549,48.486,47.271,82.701,53.436
			c7.422,1.34,15.047,2.074,22.852,2.074c7.45,0,14.737-0.674,21.841-1.895c60.363-10.371,106.305-62.93,106.305-126.256
			C550.141,294.6,509.851,244.73,455.154,230.116z"/>
		<path d="M268.454,560.318l-6.214-117.85c-12.195,1.998-24.692,3.08-37.442,3.08c-13.443,0-26.602-1.221-39.425-3.436l-2.26,32.121
			c-0.649-0.637-1.298-1.273-1.946-1.908c-7.936-7.781-20.931-7.92-28.85,0c-7.801,7.801-7.94,21.068,0,28.85
			c8.474,8.303,16.944,16.605,25.418,24.912c0.51,0.498,1.089,0.877,1.64,1.312l-2.313,32.914h91.392V560.318z"/>
		<path d="M439.039,226.921c0.154-2.713,0.22-5.447,0.269-8.185c0.024-1.375,0.106-2.737,0.106-4.121
			c0-1.375-0.077-2.734-0.102-4.101C437.113,93.885,341.951,0,224.797,0C106.265,0,10.181,96.088,10.181,214.616
			c0,105.456,76.084,193.087,176.342,211.144c12.428,2.24,25.202,3.473,38.274,3.473c12.477,0,24.684-1.127,36.577-3.166
			c10.734-1.844,21.188-4.484,31.314-7.857c2.606-0.869,5.202-1.768,7.764-2.734c2.546-0.959,5.088-1.938,7.585-2.99
			C381.637,381.484,434.301,310.615,439.039,226.921z"/>
	</g>
</g>
<g>
</g>
<g>
</g>
<g>
</g>
<g>
</g>
<g>
</g>
<g>
</g>
<g>
</g>
<g>
</g>
<g>
</g>
<g>
</g>
<g>
</g>
<g>
</g>
<g>
</g>
<g>
</g>
<g>
</g>
</svg>
