<?xml version="1.0" encoding="iso-8859-1"?>
<!-- Generator: Adobe Illustrator 16.0.0, SVG Export Plug-In . SVG Version: 6.00 Build 0)  -->
<!DOCTYPE svg PUBLIC "-//W3C//DTD SVG 1.1//EN" "http://www.w3.org/Graphics/SVG/1.1/DTD/svg11.dtd">
<svg version="1.1" id="Capa_1" xmlns="http://www.w3.org/2000/svg" xmlns:xlink="http://www.w3.org/1999/xlink" x="0px" y="0px"
	 width="556.748px" height="556.747px" viewBox="0 0 556.748 556.747" style="enable-background:new 0 0 556.748 556.747;"
	 xml:space="preserve">
<g>
	<g>
		<path d="M405.602,228.07c-1.952,0.572-1.353,0.606-0.392,1.692c1.347,1.392,0.34,3.21-0.092,4.728
			c-0.48,3.8-0.089,6.873,1.077,10.526c4.137,12.959,22.815,23.018,36.05,18.348c0.575-1.918-2.028-4.357-1.252-6.086
			c0.331,0.016,2.229,5.221,2.259,5.989c4.535-0.973,8.966-2.632,13.021-4.887c3.28-2.017,7.19-4.168,9.587-7.268
			c1.12-1.448,1.912-3.204,2.099-5.037c0.196-1.885,1.197-3.25,1.57-5.141c0.6-3.029-4.716-21.12-8.198-18.265
			c0.242-0.881,1.582-2.546,1.512-3.708c-6.555-10.857-18.767-19.492-32.344-16.341c-7.305,1.695-15.734,6.093-17.234,14.303
			c0.01,1.438-0.954,3.023,0,4.37c1.414,1.099,2.767,2.292,4.312,3.21c3.029,1.802,7.427,2.971,9.756,5.799
			C420.495,228.823,412.57,226.026,405.602,228.07z"/>
		<path d="M217.506,314.301c0.233,1.913,1.129,3.351,1.185,5.245c0.052,1.839,0.713,3.653,1.72,5.178
			c2.157,3.268,5.896,5.707,9.021,7.959c3.874,2.552,8.171,4.532,12.62,5.842c0.089-0.766,2.365-5.814,2.695-5.806
			c0.646,1.781-2.133,4.021-1.701,5.977c12.849,5.64,32.222-3.002,37.313-15.615c1.436-3.556,2.054-6.591,1.858-10.416
			c-0.318-1.545-1.188-3.431,0.26-4.722c1.04-1.013,1.64-1.001-0.267-1.717c-6.796-2.555-14.908-0.357-21.83,0.609
			c2.534-2.647,7.004-3.485,10.159-5.059c1.609-0.799,3.045-1.888,4.538-2.879c1.053-1.271,0.208-2.926,0.324-4.357
			c-0.884-8.299-8.966-13.312-16.123-15.545c-13.308-4.152-26.129,3.553-33.471,13.892c-0.159,1.157,1.056,2.914,1.23,3.813
			C223.779,293.591,217.133,311.235,217.506,314.301z"/>
		<path d="M188.299,192.948c-0.003-1.243-1.288-1.79-1.91-2.674c-4.507-4.373-11.591-3.378-16.805-1.224
			c-9.694,4.005-13.397,14.633-12.663,24.143c0.465,0.744,2.014,1.175,2.546,1.613c-3.381-0.223,1.273,13.176,2.962,14.768
			c1.056,0.995,2.264,1.392,3.207,2.463c0.915,1.037,2.17,1.769,3.489,2.167c2.821,0.851,6.157,0.459,9.045,0.26
			c3.467-0.392,6.903-1.313,10.107-2.699c-0.318-0.483-1.432-4.501-1.236-4.654c1.23,0.719,0.704,3.351,1.895,4.272
			c10.144-2.925,17.185-17.246,14.054-26.992c-0.884-2.748-1.986-4.801-3.941-6.916c-0.927-0.741-2.338-1.411-2.121-2.855
			c0.113-1.086,0.465-1.368-0.979-0.866c-5.159,1.793-8.792,6.971-12.326,10.86c0.19-2.751,2.372-5.386,3.439-7.815
			C187.607,195.561,187.913,194.239,188.299,192.948z"/>
		<path d="M266.965,123.74c-0.192,0.572-1.135,1.616-1.132,2.387c3.91,7.39,11.628,13.528,20.686,11.958
			c4.872-0.845,10.585-3.427,11.876-8.773c0.049-0.946,0.743-1.956,0.162-2.876c-0.891-0.777-1.735-1.613-2.721-2.273
			c-1.928-1.298-4.776-2.231-6.205-4.18c4.439,1.227,9.553,3.36,14.217,2.273c1.307-0.303,0.915-0.349,0.321-1.098
			c-0.836-0.967-0.104-2.124,0.235-3.109c0.456-2.484,0.312-4.52-0.318-6.971c-2.243-8.684-14.164-15.998-23.048-13.415
			c-0.449,1.243,1.175,2.944,0.597,4.052c-0.217-0.021-1.272-3.519-1.264-4.027c-3.023,0.475-6.001,1.398-8.752,2.733
			c-2.233,1.206-4.89,2.476-6.582,4.428c-0.789,0.909-1.377,2.038-1.569,3.237c-0.199,1.233-0.906,2.096-1.225,3.327
			C261.739,113.385,264.563,125.49,266.965,123.74z"/>
		<path d="M154.703,26.45c0.52,0.251,0.921,0.878,1.576,0.771c0.646-0.315,1.316-0.594,1.919-0.988
			c1.184-0.774,2.383-2.151,3.812-2.494c-1.738,2.2-4.146,4.565-4.642,7.436c-0.138,0.805-0.021,0.597,0.542,0.44
			c0.74-0.239,1.218,0.444,1.689,0.869c1.285,0.845,2.463,1.245,3.984,1.472c5.401,0.799,12.329-4.158,12.98-9.755
			c-0.59-0.547-1.928-0.037-2.414-0.624c0.064-0.116,2.273,0.119,2.558,0.245c0.45-1.808,0.636-3.696,0.539-5.557
			c-0.147-1.54-0.232-3.33-0.927-4.74c-0.324-0.658-0.817-1.254-1.444-1.646c-0.646-0.404-0.961-1.004-1.576-1.475
			c-0.985-0.75-8.446-2.032-8.033-0.27c-0.275-0.241-0.636-1.019-1.071-1.199c-5.071,0.444-10.343,3.323-11.604,8.773
			C151.912,20.642,152.007,24.458,154.703,26.45z"/>
		<path d="M19.448,126.02c0.576,1.107-1.049,2.812-0.597,4.051c8.883,2.583,20.805-4.731,23.048-13.415
			c0.63-2.448,0.777-4.486,0.318-6.971c-0.343-0.982-1.071-2.142-0.235-3.109c0.594-0.75,0.985-0.796-0.321-1.099
			c-4.661-1.086-9.777,1.046-14.217,2.273c1.429-1.949,4.278-2.879,6.206-4.18c0.982-0.661,1.83-1.497,2.72-2.273
			c0.579-0.921-0.116-1.928-0.162-2.876c-1.291-5.349-7.004-7.929-11.876-8.773c-9.054-1.57-16.775,4.568-20.686,11.958
			c-0.003,0.768,0.939,1.815,1.132,2.387c-2.399-1.75-5.227,10.355-4.718,12.329c0.318,1.23,1.025,2.093,1.224,3.326
			c0.193,1.199,0.78,2.326,1.57,3.237c1.692,1.952,4.345,3.222,6.579,4.428c2.751,1.334,5.729,2.262,8.751,2.733
			C18.175,129.535,19.231,126.041,19.448,126.02z"/>
		<path d="M517.876,517.045c-3.356,0-6.059,0.204-7.629,0.363c-4.504-26.102-19.969-37.809-33.513-37.809
			c-7.583,0-14.388,3.574-19.168,10.061c-1.196,1.622-2.298,3.201-3.348,4.713c-5.572,7.996-9.253,13.277-18.151,13.277
			c-9.713,0-25.527-6.588-51.276-21.362c-28.412-16.304-40.781-18.55-49.912-18.55c-1.619,0-3.124,0.083-4.593,0.181
			c-9.594-34.779,2.157-78.782,13.596-121.405c8.415-31.353,17.111-63.768,17.398-92.617c0.007-0.554-0.033-1.095-0.036-1.649
			c0.187-0.358,0.492-0.934,0.976-1.772c0.79-1.411,2.051-3.396,3.654-5.725c1.643-2.295,3.638-4.951,6.049-7.54
			c0.604-0.652,1.215-1.312,1.836-1.98c0.664-0.621,1.335-1.251,2.011-1.885c1.316-1.337,2.853-2.405,4.321-3.611
			c1.518-1.114,3.124-2.102,4.712-3.078c1.674-0.75,3.262-1.772,4.954-2.286c1.689-0.499,3.296-1.279,4.927-1.432
			c1.615-0.196,3.155-0.737,4.6-0.618c1.456-0.009,2.79-0.018,3.975-0.027c1.172,0.144,2.19,0.349,3.041,0.478
			c1.705,0.284,2.681,0.447,2.681,0.447s-0.939-0.303-2.585-0.83c-0.83-0.254-1.833-0.615-3.012-0.933
			c-1.211-0.168-2.579-0.361-4.072-0.569c-1.509-0.336-3.146-0.027-4.905-0.058c-1.781-0.073-3.559,0.475-5.472,0.759
			c-1.918,0.3-3.739,1.114-5.703,1.687c-1.854,0.789-3.765,1.615-5.585,2.583c-1.76,1.053-3.629,2.004-5.245,3.219
			c-0.835,0.581-1.661,1.16-2.481,1.729c-0.774,0.621-1.539,1.236-2.292,1.842c-2.751,2.209-5.079,4.489-7.108,6.57
			c-1.625-14.994-5.612-29.263-9.507-43.17c-10.053-35.885-20.447-72.987,10.067-123.07c0.428-0.701,0.226-1.609-0.453-2.065
			c-0.683-0.453-1.598-0.3-2.084,0.361c-18.706,25.312-25.836,47.794-27.497,68.752c-0.165-0.162-0.331-0.315-0.496-0.48
			c-1.046-0.887-2.065-1.852-3.219-2.696c-1.147-0.854-2.289-1.729-3.541-2.457c-1.196-0.796-2.463-1.479-3.732-2.09
			c-1.228-0.682-2.54-1.145-3.771-1.634c-1.212-0.536-2.476-0.814-3.629-1.151c-1.147-0.364-2.265-0.569-3.302-0.719
			c-1.034-0.153-1.955-0.367-2.797-0.419c-0.838-0.046-1.569-0.085-2.173-0.119c-1.19-0.064-1.872-0.101-1.872-0.101
			s0.66,0.177,1.814,0.489c0.572,0.156,1.264,0.343,2.06,0.557c0.789,0.22,1.64,0.621,2.579,0.97
			c0.942,0.346,1.94,0.759,2.938,1.331c1.007,0.544,2.09,1.031,3.097,1.766c1.025,0.688,2.103,1.337,3.072,2.191
			c1.013,0.783,1.995,1.619,2.901,2.552c0.954,0.86,1.79,1.852,2.619,2.797c0.838,0.934,1.542,1.974,2.271,2.907
			c0.646,1.016,1.337,1.925,1.857,2.889c0.563,0.93,1.056,1.827,1.472,2.674c0.648,1.27,1.099,2.329,1.46,3.231
			c0.214,14.477,2.567,28.314,4.896,41.98c1.05,6.163,2.06,12.096,2.864,18.002c-25.683-46.35-74.805-75.563-122.391-103.862
			c-22.053-13.115-44.48-26.457-64.704-41.588c-0.318-0.811-0.661-1.766-0.998-2.876c-0.288-0.9-0.554-1.888-0.796-2.947
			c-0.293-1.056-0.425-2.191-0.664-3.369c-0.122-1.178-0.336-2.415-0.379-3.669c-0.055-1.258-0.141-2.549-0.052-3.831
			c0.003-1.297,0.135-2.583,0.318-3.85c0.107-1.288,0.431-2.503,0.691-3.712c0.217-1.224,0.658-2.329,1.007-3.418
			c0.321-1.104,0.756-2.093,1.193-2.996c0.435-0.903,0.768-1.781,1.184-2.488c0.422-0.707,0.792-1.322,1.096-1.83
			c0.615-1.025,0.967-1.609,0.967-1.609s-0.465,0.499-1.279,1.371c-0.41,0.44-0.909,0.976-1.481,1.591
			c-0.569,0.622-1.086,1.417-1.726,2.243c-0.643,0.826-1.307,1.75-1.879,2.809c-0.597,1.043-1.313,2.121-1.814,3.348
			c-0.548,1.206-1.172,2.451-1.582,3.792c-0.49,1.322-0.927,2.689-1.239,4.094c-0.395,1.392-0.612,2.815-0.845,4.226
			c-0.248,1.411-0.312,2.809-0.45,4.174c-0.012,0.71-0.046,1.414-0.067,2.105c-16.441-13.219-31.071-27.858-42.305-44.884
			c-0.447-0.679-1.353-0.89-2.053-0.474c-0.701,0.413-0.955,1.307-0.578,2.029c23.519,44.863,63.733,76.638,110.319,109.835
			c-37.751-7.169-91.794-18.225-110.414-46.729C90.979,70,89.191,58.356,92.188,45.361c0.18-0.787-0.279-1.579-1.053-1.809
			c-0.768-0.232-1.594,0.181-1.873,0.933c-4.927,13.308-4.654,25.897,0.817,37.421c2.341,4.93,5.539,9.422,9.284,13.553
			c-0.11-0.015-0.211-0.027-0.324-0.043c-6.934-0.856-16.218-1.689-25.539-1.597c-9.299,0.04-18.672,1.151-25.297,3.47
			c-1.659,0.554-3.127,1.193-4.407,1.796c-1.261,0.652-2.334,1.246-3.161,1.836c-0.866,0.523-1.444,1.077-1.87,1.404
			c-0.416,0.34-0.636,0.52-0.636,0.52s0.242-0.153,0.698-0.438c0.462-0.272,1.092-0.74,2.007-1.147
			c0.875-0.474,1.995-0.921,3.287-1.396c1.312-0.428,2.8-0.863,4.458-1.196c6.628-1.42,15.729-1.355,24.676-0.269
			c8.963,1.037,17.81,2.968,24.358,4.626c3.277,0.829,5.982,1.594,7.861,2.148c1.845,0.566,2.901,0.89,2.901,0.89l0.144,0.046
			c0.174,0.052,0.352,0.095,0.536,0.125c0.75,0.132,1.484,0.052,2.163-0.162c12.815,9.498,28.366,16.264,41.644,20.805
			c7.066,2.424,14.174,4.783,21.279,7.142c23.816,7.91,48.03,15.977,69.909,26.304c-6.16,1.793-13.516,4.207-20.667,7.233
			c-8.583,3.581-16.83,8.173-22.072,12.837c-1.322,1.145-2.439,2.295-3.391,3.338c-0.918,1.083-1.683,2.041-2.225,2.901
			c-0.6,0.811-0.924,1.545-1.193,2.01c-0.254,0.472-0.392,0.726-0.392,0.726s0.168-0.233,0.48-0.67
			c0.324-0.428,0.728-1.102,1.42-1.824c0.627-0.771,1.496-1.609,2.509-2.543c1.049-0.893,2.261-1.863,3.666-2.803
			c5.587-3.837,14.03-7.24,22.718-9.642c8.685-2.451,17.598-4.033,24.284-4.994c2.441-0.352,4.578-0.615,6.319-0.811
			c16.077,8.599,30.502,18.739,41.968,31.432c30.561,33.822,40.475,76.115,30.261,128.86c-0.331-0.432-0.661-0.863-1.02-1.319
			c-1.019-1.264-2.148-2.609-3.366-4.008c-1.282-1.353-2.53-2.847-4.026-4.229c-1.43-1.432-2.956-2.861-4.608-4.21
			c-1.567-1.427-3.375-2.653-5.11-3.93c-1.744-1.267-3.693-2.271-5.483-3.381c-1.965-0.857-3.798-1.854-5.713-2.503
			c-1.962-0.536-3.739-1.344-5.588-1.555c-1.833-0.227-3.513-0.691-5.116-0.652c-1.585,0.013-3.042,0.024-4.33,0.034
			c-1.276,0.107-2.371,0.395-3.271,0.532c-1.79,0.327-2.812,0.515-2.812,0.515s1.04-0.047,2.857-0.123
			c0.906-0.012,1.995-0.144,3.241-0.076c1.236,0.162,2.628,0.343,4.149,0.541c1.512,0.166,3.065,0.848,4.728,1.282
			c1.674,0.42,3.262,1.438,4.976,2.157c1.677,0.836,3.256,2.017,4.924,3.021c1.521,1.276,3.151,2.411,4.596,3.804
			c1.436,1.401,2.913,2.724,4.18,4.25c1.341,1.438,2.559,2.944,3.688,4.446c1.188,1.441,2.151,3.002,3.151,4.389
			c0.939,1.438,1.803,2.817,2.571,4.097c1.502,2.589,2.677,4.786,3.405,6.338c0.743,1.523,1.071,2.355,1.102,2.404l0.218,0.358
			c-0.229,0.937-0.41,1.846-0.652,2.788c-2.074,8.124-4.281,16.318-6.493,24.528c-8.779,32.593-17.735,65.922-18.498,96.081
			c-0.762-0.357-1.475-0.67-2.279-1.067c-6.695-3.309-12.387-4.915-17.405-4.915c-8.605,0-13.789,4.719-18.804,9.281
			c-5.062,4.605-9.841,8.957-18.14,8.957c-4.958,0-10.683-1.543-17.504-4.716c-11.444-5.324-20.52-7.803-28.559-7.803
			c-10.97,0-19.479,4.611-30.254,10.449c-8.896,4.82-19.967,10.82-35.769,15.979c-49.042,16.014-37.519,58.165-37.396,58.587
			c0.189,0.655,0.79,1.104,1.469,1.104h460.427c0.844,0,1.529-0.686,1.529-1.529C556.745,527.702,542.577,517.045,517.876,517.045z"
			/>
	</g>
</g>
<g>
</g>
<g>
</g>
<g>
</g>
<g>
</g>
<g>
</g>
<g>
</g>
<g>
</g>
<g>
</g>
<g>
</g>
<g>
</g>
<g>
</g>
<g>
</g>
<g>
</g>
<g>
</g>
<g>
</g>
</svg>
