<?xml version="1.0" encoding="iso-8859-1"?>
<!-- Generator: Adobe Illustrator 16.0.0, SVG Export Plug-In . SVG Version: 6.00 Build 0)  -->
<!DOCTYPE svg PUBLIC "-//W3C//DTD SVG 1.1//EN" "http://www.w3.org/Graphics/SVG/1.1/DTD/svg11.dtd">
<svg version="1.1" id="Capa_1" xmlns="http://www.w3.org/2000/svg" xmlns:xlink="http://www.w3.org/1999/xlink" x="0px" y="0px"
	 width="587.52px" height="587.52px" viewBox="0 0 587.52 587.52" style="enable-background:new 0 0 587.52 587.52;"
	 xml:space="preserve">
<g>
	<g>
		<path fill="#658744" d="M293.76,1.557C131.519,1.557,0,91.219,0,201.823c0,101.082,109.87,184.628,252.629,198.268l-4.39,158.378l-0.008,0.281
			v0.281c0,26.932,37.675,26.932,50.058,26.932c12.383,0,50.057,0,50.057-26.932v-0.266l-0.008-0.265l-4.174-159.41
			c138.21-16.304,243.355-98.389,243.355-197.268C587.52,91.219,456.001,1.557,293.76,1.557z M327.946,559.035
			c0,4.357-14.827,6.532-29.657,6.532c-14.831,0-29.658-2.179-29.658-6.532l4.366-157.5l2.979-107.483
			c-26.854-3.003-37.862-15.708-56.173-31.853c-6.324,1.436-12.864,2.105-19.4,2.105c-13.281,0-26.553-2.766-38.026-7.507
			c-22.954-9.486-32.893-26.622-39.629-42.02c-2.195-5.019,4.741-8.299,11.404-8.299c4.406,0,8.694,1.436,10.147,4.749
			c6.377,14.59,24.484,40.425,53.705,40.425c3.325,0,6.793-0.334,10.404-1.057c-11.987-14.313-18.009-29.984-14.545-43.546
			c0.873-3.423,4.859-4.9,9.196-4.9c6.548,0,13.909,3.366,12.599,8.491c-1.493,5.851-0.261,12.562,2.982,19.466
			c27.789-10.331,38.148-29.519,26.435-48.071c-3.081-4.88,3.594-8.07,10.473-8.07c4.5,0,9.086,1.367,11.077,4.521
			c15.565,24.644-1.554,51.661-39.931,64.321c14.239,17.911,39.458,34.37,63.97,37.646V174.214c0-4.354,5.65-6.532,11.302-6.532
			c5.65,0,11.302,2.179,11.302,6.532v23.366c28.453-6.813,32.917-26.691,34.419-44.419c0.362-4.288,6.144-6.442,11.737-6.442
			c5.582,0,10.972,2.142,10.608,6.442c-2.072,24.5-12.224,52.183-56.77,58.511v51.461c31.719-12.224,77.137-36.643,66.19-59.274
			c-2.444-5.051,4.496-8.352,11.289-8.352c4.484,0,8.902,1.436,10.51,4.761c4.754,9.825,2.293,20.07-4.802,29.895
			c28.817-9.038,46.688-26.63,46.39-47.006c-0.065-4.305,5.487-6.458,11.073-6.458c5.59,0,11.208,2.154,11.272,6.458
			c0.445,30.266-32.252,56.182-81.057,64.219c-1.081,0.179-2.109,0.257-3.085,0.257c-0.787,0-1.534-0.053-2.252-0.143
			c-17.675,13.382-34.938,24.672-58.181,31.044l3.207,122.519L327.946,559.035z"/>
	</g>
</g>
<g>
</g>
<g>
</g>
<g>
</g>
<g>
</g>
<g>
</g>
<g>
</g>
<g>
</g>
<g>
</g>
<g>
</g>
<g>
</g>
<g>
</g>
<g>
</g>
<g>
</g>
<g>
</g>
<g>
</g>
</svg>
