<?xml version="1.0" encoding="iso-8859-1"?>
<!-- Generator: Adobe Illustrator 16.0.0, SVG Export Plug-In . SVG Version: 6.00 Build 0)  -->
<!DOCTYPE svg PUBLIC "-//W3C//DTD SVG 1.1//EN" "http://www.w3.org/Graphics/SVG/1.1/DTD/svg11.dtd">
<svg version="1.1" id="Capa_1" xmlns="http://www.w3.org/2000/svg" xmlns:xlink="http://www.w3.org/1999/xlink" x="0px" y="0px"
	 width="563.885px" height="563.884px" viewBox="0 0 563.885 563.884" style="enable-background:new 0 0 563.885 563.884;"
	 xml:space="preserve">
<g>
	<g>
		<path d="M304.17,9.955c-2.884-4.117-6.527-6.671-10.42-7.977c-5.814-2.954-12.708-2.905-18.621,2.244
			c-4.296,2.525-7.674,6.328-9.115,10.816c-53.322,67.402-90.523,148.292-99.234,234.314
			c-7.242,71.518,36.724,169.691,99.964,168.842v104.889h-16.32c-26.312,0-26.312,40.801,0,40.801h73.439
			c26.312,0,26.312-40.801,0-40.801h-16.319v-106.08c0-0.057-0.013-0.109-0.013-0.171c75.492-12.068,94.162-99.299,89.744-177.231
			C392.621,157.471,351.274,77.148,304.17,9.955z"/>
	</g>
</g>
<g>
</g>
<g>
</g>
<g>
</g>
<g>
</g>
<g>
</g>
<g>
</g>
<g>
</g>
<g>
</g>
<g>
</g>
<g>
</g>
<g>
</g>
<g>
</g>
<g>
</g>
<g>
</g>
<g>
</g>
</svg>
