<?xml version="1.0" encoding="iso-8859-1"?>
<!-- Generator: Adobe Illustrator 16.0.0, SVG Export Plug-In . SVG Version: 6.00 Build 0)  -->
<!DOCTYPE svg PUBLIC "-//W3C//DTD SVG 1.1//EN" "http://www.w3.org/Graphics/SVG/1.1/DTD/svg11.dtd">
<svg version="1.1" id="Capa_1" xmlns="http://www.w3.org/2000/svg" xmlns:xlink="http://www.w3.org/1999/xlink" x="0px" y="0px"
	 width="566.535px" height="566.535px" viewBox="0 0 566.535 566.535" style="enable-background:new 0 0 566.535 566.535;"
	 xml:space="preserve">
<g>
	<g>
		<path d="M431.852,115.527c0.043-0.395-0.144-0.961-0.695-1.763C431.607,114.419,431.818,115.01,431.852,115.527z"/>
		<path d="M475.386,33.427c-0.061-0.486,0.04-1.062,0.398-1.731C475.132,32.421,475.096,32.999,475.386,33.427z"/>
		<path d="M485.221,9.407c-0.275,0.25-0.538,0.309-0.789,0.291C484.594,9.789,484.835,9.746,485.221,9.407z"/>
		<path d="M454.022,133.239c-0.27,0.257-0.533,0.321-0.78,0.306C453.404,133.633,453.642,133.587,454.022,133.239z"/>
		<path d="M402.996,240.507c0.037-0.395-0.165-0.958-0.73-1.747C402.727,239.405,402.954,239.99,402.996,240.507z"/>
		<path d="M154.212,230.58c-0.324-0.229-0.909-0.343-1.879-0.251C153.125,230.256,153.744,230.357,154.212,230.58z"/>
		<path d="M87.424,132.348c0.086,0.361,0.009,0.621-0.128,0.829C87.455,133.083,87.535,132.85,87.424,132.348z"/>
		<path d="M198.089,250.412c0.003-0.517,0.181-1.12,0.59-1.799C198.178,249.442,198.022,250.021,198.089,250.412z"/>
		<path d="M139.435,147.819c-0.248,0.034-0.514-0.009-0.802-0.245C139.038,147.893,139.282,147.923,139.435,147.819z"/>
		<path d="M149.353,169.279c0.395,0.649,0.529,1.218,0.499,1.708C150.115,170.54,150.044,169.968,149.353,169.279z"/>
		<path d="M375.625,21.264c-0.165-0.129-0.297-0.315-0.321-0.627C375.349,21.068,375.471,21.23,375.625,21.264z"/>
		<path d="M347.928,116.317c0.315-0.3,0.777-0.545,1.429-0.691C348.565,115.806,348.127,116.047,347.928,116.317z"/>
		<path d="M368.464,39.728c-0.181,0.686-0.502,1.074-0.863,1.328C368.087,41.01,368.449,40.627,368.464,39.728z"/>
		<path d="M503.012,0C497.77,2.833,492.829,6.19,488,9.676c0.606-2.427-1.774-4.507-4.026-2.98
			c-1.252,0.848-0.591,2.916,0.459,2.999c-0.579-0.34,0.171-2.886,1.187-3.305c1.402-0.578,1.448,2.809,1.338,3.302
			c-0.548,2.473-3.198,3.896-5.077,5.236c-11.783,8.427-21.377,22.121-28.55,34.496c-0.422-0.551-0.856-1.041-1.358-1.484
			c-3.356-3.008-11.16-5.817-11.992,1.196c-0.459,3.85,6.46,5.367,6.2,1.652c-0.83,4.37-5.989,0.254-5.071-2.735
			c0.78-2.527,4.958-2.344,6.689-1.154c2.421,1.662,2.84,5.199,2.365,7.864c-0.618,3.476-2.876,6.836-4.192,10.098
			c-1.885,4.669-3.491,9.455-4.81,14.314c-2.645,9.74-4.144,19.786-4.468,29.872c-3.742-1.576-11.022-2.494-12.075,2.919
			c-1.392,7.146,7.467,7.219,7.231,3.559c-0.172,1.545-4.089,0.306-5.48-1.099c-4.743-4.783,4.342-5.627,7.414-3.859
			c3.014,1.732,2.926,5.851,3.005,8.865c0.095,3.639,0.392,7.271,0.756,10.894c-22.745-4.851-32.8,15.976-32.8,15.976
			c18.77,4.526,28.867-3.73,33.5-9.661c0.53,4.106,1.179,8.198,1.867,12.28c-6.744,7.647-12.47,16.625-17.09,25.022
			c-0.438-0.542-0.882-1.022-1.393-1.454c-3.421-2.932-11.285-5.572-11.965,1.459c-0.373,3.859,6.576,5.224,6.236,1.518
			c-0.734,4.385-5.982,0.385-5.129-2.623c0.726-2.543,4.905-2.454,6.662-1.301c2.457,1.606,2.953,5.135,2.537,7.81
			c-0.542,3.491-2.727,6.897-3.969,10.189c-1.781,4.712-3.281,9.532-4.496,14.419c-1.175,4.74-2.068,9.547-2.701,14.388
			c-1.87-0.493-3.898-0.413-5.995,0.551c-9.048,4.158,2.249,14.657,4.691,9.21c-2.2,2.402-7.164,0.361-6.836-2.95
			c0.48-3.767,3.782-5.41,7.246-4.241c0.211,0.07,0.392,0.171,0.59,0.254c-0.462,4.235-0.762,8.488-0.805,12.751
			c-3.772-1.493-11.074-2.252-12.007,3.186c-1.236,7.172,7.622,7.053,7.307,3.399c-0.138,1.548-4.078,0.395-5.505-0.979
			c-4.847-4.679,4.22-5.719,7.326-4.021c2.147,1.172,2.775,3.559,3.014,5.918c-3.607,2.39-9.434,3.92-12.84,5.459
			c-4.981,2.255-10.027,4.305-15.079,6.371c-9.235-18.299-27.091-16.451-27.091-16.451c2.154,12.347,8.914,18.672,15.518,21.956
			c-5.535,3.29-10.389,7.521-13.547,13.409c-4.097-5.425-11.872-9.495-18.761-8.348c-7.353,1.224-11.731,10.474-6.272,16.353
			c3.574,2.978,11.456,1.23,10.248-4.422c0.346,5.141-6.986,5.101-9.187,1.674c-4.085-6.368,3.477-11.812,9.263-9.483
			c6.87,2.766,11.129,8.452,10.395,15.943c-0.866,8.824-3.054,18.299-5.7,26.74c-2.751,8.766-5.579,18.654-10.102,26.688
			c-1.863,3.307-4.682,5.68-7.43,8.219c-4.511,4.17-8.507,8.844-11.814,14.027c-3.069,4.811-5.45,9.99-7.393,15.346
			c-2.491-0.664-5.279-0.373-7.399,0.967c-2.549,1.609-4.012,8.141-6.612,8.736c-8.008-5.205-17.191-8.994-24.101-15.74
			c-1.104-1.08-2.13-2.32-3.06-3.664c0.881-1.406,1.769-2.809,2.613-4.236c3.048-5.162,5.896-10.545,8.103-16.154
			c0.092-0.188,0.174-0.377,0.235-0.578c0.612-1.596,1.142-3.217,1.637-4.848c22.054,1.77,29.851-19.035,29.851-19.035
			c-13.602-1.992-22.213,2.086-27.534,6.877c0.257-3.268,0.272-6.551,0.009-9.828c-0.251-3.127-0.64-6.188,0.089-9.283
			c1.775-7.516,5.648-15.211,8.929-22.176c3.16-6.705,7.19-13.783,11.668-19.71c3.8-5.031,9.654-6.117,15.456-3.92
			c4.887,1.852,6.453,9.495,0.321,11.102c-3.302,0.866-7.84-3.274-4.71-6.245c-3.953,2.793-0.089,8.348,3.804,8.541
			c6.701-0.521,9.254-8.706,5.419-13.636c-3.592-4.617-10.694-6.527-16.297-5.508c2.136-8.274-0.318-16.432-3.819-23.944
			c-2.239-4.804-4.52-9.572-6.591-14.456c-1.004-2.366-3.018-5.655-4.192-8.706c16.83,20.615,38.761,7.35,38.761,7.35
			c-19.055-20.175-37.562-8.467-38.858-7.607c-0.508-1.368-0.852-2.687-0.817-3.834c0.175-5.692,5.429-13.409,11.892-10.53
			c2.797,1.249,3.898,4.134,2.056,6.726c-1.677,2.228-5.894,0.667-5.884-2.062c-1.589,4.743,11.331,4.688,8.118-3.011
			c-3.403-8.155-16.104-4.737-18.647,2.412c-2.219-7.286-3.25-14.504-2.69-21.374c25.695,4.633,33.914-15.456,33.914-15.456
			c-17.074-5.569-27.735,2.977-32.932,9.253c1.726-7.179,5.487-13.847,11.897-19.621c4.385-3.932,11.992-8.617,15.634-0.651
			c1.248,2.735-0.569,6.028-3.685,5.982c-2.867-0.042-3.501-4.899-0.542-5.239c-6.955,0.796-1.07,7.855,2.855,6.812
			c7.371-1.958,2.265-15.11-4.082-15.034c7.886-5.964,15.902-11.766,23.467-18.136c3.58-3.018,7.084-6.151,10.349-9.514
			c1.763-1.812,4.046-4.4,6.886-3.755c2.895,0.655,8.014,6.334,2.374,6.585c-1.655,0.073-4.773-1.386-4.002-2.436
			c-2.222,2.124,3.277,7.105,6.475,1.913c2.427-3.935-2.583-7.5-5.78-8.654c3.907-4.525,7.424-9.385,10.539-14.489
			c16.355,16.074,35.93,4.238,35.93,4.238c-12.652-13.396-25.058-12.732-32.35-10.523c0.027-0.055,0.061-0.107,0.092-0.162
			c1.946-3.742,3.675-7.601,5.165-11.548c1.04-2.757,1.558-6.108,3.151-8.602c0.579-0.909,1.401-1.814,2.359-2.488
			c2.022,0.189,3.923,0.187,5.713,0.03c1.108,0.9,1.907,2.231,1.316,3.467c-1.129,2.362-6.646,1.967-4.676-1.193
			c-2.268,2.142,2.854,5.131,4.758,2.503c1.479-2.041,1.157-3.7,0.019-4.939c16.968-2.338,23.167-18.871,23.167-18.871
			c-15.565-2.276-24.614,3.378-29.645,8.975c-0.099-0.315-0.205-0.609-0.307-0.915c1.604-9.618,2.283-19.958,0.377-29.119
			c-0.398-1.894-1.222-4.275-0.156-6.108c0.211-0.364,2.163-2.426,2.699-1.273c0.389,0.835-0.597,2.828-1.145,2.711
			c0.694,0.544,2.273-0.355,1.985-1.585c-0.517-2.218-3.167-2.289-4.171-0.45c-0.997-4.887-2.136-9.761-3.754-14.483
			c2.606,10.808,3.65,22.075,2.843,33.192c-2.861,0.275-5.674-4.78-7.831-0.376c-1.126,2.338,1.396,4.568,2.907,3.5
			c-1.487,0.147-4.165-2.806-1.916-3.825c4.899-2.225,6.549,3.528,6.335,7.056c-0.102,1.683-0.278,3.378-0.509,5.074
			c-9.237-18.271-27.077-16.426-27.077-16.426c3.332,19.094,17.646,23.871,25.386,25.062c-1.02,4.122-2.311,8.213-3.853,12.194
			c-18.682-16.759-36.001-4.709-36.001-4.709c11.894,14.764,26.383,12.451,33.887,9.813c-1.582,3.577-3.312,7.044-5.145,10.324
			c-2.093-2.562-9.109-6.34-9.838-0.27c-0.303,2.531,3.947,5.009,5.053,2.035c-2.286,3.688-7.207-3.883-1.06-4.201
			c6.347-0.331,3.188,7.521,1.279,9.997c-4.938,6.393-10.199,12.209-15.842,17.696c-19.045-18.079-36.974-5.591-36.974-5.591
			c5.395,6.698,11.325,9.872,16.897,11.105c-0.377,0.352-0.723,0.835-1.022,1.496c-0.902,1.992,1.576,5.863,3.696,3.767
			c-2.916,1.665-3.011-1.506-1.912-3.406c0.548-0.952,1.15-1.353,1.744-1.423c0.251,0.03,0.499,0.058,0.75,0.083
			c1.304,0.486,2.384,2.512,2.393,4.232c0.034,5.031-6.869,7.772-10.386,9.991c-5.251,3.314-10.383,7.041-15.327,10.792
			c-0.652,0.496-1.282,1.022-1.928,1.533c-19.379-19.354-37.877-6.487-37.877-6.487c11.925,14.805,26.463,12.439,33.948,9.792
			c-3.29,2.926-6.356,6.093-8.899,9.697c-1.068,1.506-3.538,7.338-4.945,6.646c-1.885-0.927-3.746-2.001-5.808-2.488
			c-3.911-0.921-9.159,3.455-6.178,7.402c1.671,2.212,5.135,2.225,5.992-0.346c-0.75,1.683-3.418,1.469-4.581,0.028
			c-2.54-3.14,1.631-6.132,4.654-5.401c7.026,1.698,4.719,10.478,3.972,15.468c-0.888,5.915,0.009,12.273,1.371,18.335
			c-17.8-13.929-33.761-2.821-33.761-2.821c12.729,15.802,28.433,12.044,35.361,9.259c0.073,0.279,0.146,0.563,0.223,0.838
			c2.503,9.254,6.007,18.21,9.862,26.98c-5.208-1.334-13.715,1.3-10.486,8.295c1.71,3.709,9.382,2.332,7.467-1.928
			c-0.182,4.568-4.582,3.568-6.148,0.333c-2.641-5.453,6.625-6.086,9.464-3.341c4.076,3.944,5.242,10.095,4.449,15.777
			c-18.663-16.695-35.955-4.667-35.955-4.667c12.39,15.382,27.598,12.23,34.789,9.483c-0.303,0.823-0.63,1.631-1.019,2.377
			c-3.728,7.182-10.04,12.604-15.046,18.847c-2.225,0.208-5.104-4.603-7.552-5.217c-3.764-0.939-8.458,1.469-9.195,5.499
			c-0.857,4.673,8.188,7.518,8.549,2.687c-0.863,3.24-4.773,2.218-6.144-0.049c-1.864-3.075,1.928-7.032,5.146-6.319
			c2.105,0.468,3.654,2.42,4.859,4.07c0.63,0.863,1.212,1.756,1.812,2.641c-1.053,1.423-2.047,2.892-2.974,4.401
			c-3.231,5.256-5.579,11.043-6.659,17.129c-0.462,2.605-0.643,5.221-0.716,7.84c-0.04-1.477-0.046-2.955-0.125-4.434
			c-0.539-9.908-1.414-21.236-5.949-30.229c-2.711-5.376-8.608-14.471-1.279-19.021c3.152-1.961,8.997-0.125,7.292,4.382
			c-0.78,2.068-3.727,3.305-5.205,1.68c1.928,2.592,5.854,1.285,6.919-1.849c1.906-5.59-5.683-8.589-9.771-6.083
			c-2.154,1.322-3.865,3.237-5.655,4.991c-1.337,1.313-6.319-4.376-8.09-5.686c-2.785-2.062-5.774-3.797-8.847-5.37
			c15.426-3.314,21.124-18.513,21.124-18.513c-19.915-2.913-29.189,7.142-32.978,13.458c-0.486-0.174-0.97-0.37-1.459-0.539
			c-7.01-2.405-14.22-4.712-21.411-6.505c-2.053-0.514-4.835-0.924-7.5-1.646c-0.438-2.427-0.946-4.838-1.521-7.234
			c0.833-1.389,0.887-3.626-0.141-4.743c-0.478-0.52-0.946-0.866-1.405-1.129c-0.493-1.701-0.976-3.406-1.539-5.086
			c-0.942-2.812-2.014-5.581-3.149-8.323c15.928,13.428,34.015,2.482,34.015,2.482c-15.842-16.775-31.301-11.509-36.812-8.761
			c-1.511-2.99-3.69-6.022-4.461-9.244c-0.45-1.882-0.453-4.226,0.417-6.071c3.075,0.131,5.863-0.098,8.357-0.621
			c0.392,2.889-4.012,6.551-5.031,2.494c-0.043,3.724,6.775,1.803,6.092-2.01c-0.043-0.245-0.113-0.45-0.171-0.673
			c13.984-3.372,18.853-15.333,18.853-15.333c-20.162-6.576-31.386,6.524-35.22,12.335c-4.979-7.09-10.799-14.253-17.305-20.251
			c24.771,4.45,33.394-18.571,33.394-18.571c-24.844-3.635-33.155,12.928-34.872,17.212c-2.721-2.39-5.554-4.575-8.501-6.432
			c-1.955-1.23-4.682-2.497-5.373-4.933c-0.138-0.483-0.291-3.868,1.144-3.372c1.041,0.358,1.934,2.861,1.377,3.231
			c1.043-0.144,1.585-2.246,0.285-3.021c-2.334-1.395-4.59,0.823-3.846,3.21c-3.167-2.017-6.386-3.959-9.676-5.768
			c0.229-0.465,0.358-0.768,0.358-0.768c-1.276-0.416-2.506-0.734-3.712-0.998c-0.835-0.422-1.667-0.854-2.518-1.251
			c0.563,0.331,1.095,0.716,1.652,1.056c-12.329-2.399-20.848,2.775-26.01,7.889c-4.416-11.505-7.111-23.688-8.115-35.937
			c-0.074,5.958,0.459,11.91,1.157,17.821c-1.827-1.708-4.801-0.64-4.562,2.069c0.134,1.505,2.261,1.934,2.846,1.056
			c-0.575,0.339-2.439-1.552-2.313-2.644c0.178-1.505,3.158,0.101,3.534,0.435c1.894,1.68,1.848,4.688,2.108,6.983
			c0.487,4.287,1.521,8.629,2.864,12.94c-2.485,3.039-3.681,5.508-3.681,5.508c2.111,0.508,4.076,0.811,5.973,1.016
			c1.873,4.786,4.07,9.464,6.432,13.926c-19.667-20.526-38.675-7.292-38.675-7.292c16.249,20.171,37.354,8.473,38.847,7.607
			c1.472,2.763,2.98,5.459,4.504,8.011c-0.688,0.104-1.325,0.245-1.958,0.468c-4.26,1.469-10.508,6.922-4.783,11.062
			c3.14,2.271,7.831-3.036,4.458-4.615c3.415,2.849-2.69,5.358-4.854,3.1c-1.83-1.91,0.361-5.471,2.243-6.408
			c2.628-1.31,5.924,0.046,8.02,1.756c2.739,2.231,4.575,5.838,6.787,8.574c3.167,3.917,6.567,7.647,10.171,11.163
			c1.775,1.731,3.605,3.409,5.478,5.037c-15.979,1.665-23.173,16.561-23.173,16.561c18.023,4.345,28.045-3.094,32.917-8.941
			c2.836,2.026,5.722,3.978,8.712,5.771c-3.195,2.503-7.54,8.418-3.317,11.971c5.566,4.691,9.939-3.014,6.625-4.59
			c1.267,0.903-1.72,3.721-3.626,4.257c-6.487,1.82-2.806-6.53,0.232-8.354c2.98-1.793,6.536,0.288,9.211,1.683
			c3.782,1.977,7.687,3.712,11.622,5.367c-15.184,2.23-22.029,16.432-22.029,16.432c20.747,5,30.915-5.612,34.795-11.438
			c0.144,0.052,0.284,0.11,0.428,0.162c0.976,11.732,0.903,23.326-0.254,35.315c-3.234-2.445-13.293-2.644-10.622,4.085
			c0.964,2.427,6.34,3.507,6.301-0.052c-0.988,3.886-3.788,1.337-4.51-1.181c-1.347-4.679,4.119-4.1,6.533-1.799
			c4.315,4.109,1.031,12.214-0.006,17.087c-17.791-13.939-33.749-2.83-33.749-2.83c11.16,13.852,24.608,12.67,32.424,10.293
			c-0.722,4.309-1.362,8.629-1.891,12.941c-18.589-16.441-35.762-4.492-35.762-4.492c12.623,15.67,28.177,12.105,35.19,9.33
			c-0.633,6.529-0.747,13.137,0.242,19.627c-17.549,0.416-25.413,16.707-25.413,16.707c7.42,1.787,13.452,1.549,18.366,0.271
			c-1.956,3.438-1.371,8.645,3.271,9.211c3.283,0.4,6.169-2.566,4.669-5.432c0.823,2.039-1.573,4.152-3.773,3.957
			c-4.801-0.422-3.914-6.486-0.777-8.473c7.283-4.625,12.91,4.635,16.576,9.416c1.812,2.361,3.969,4.504,6.301,6.502
			c-11.989,19.891,4.382,36.188,4.382,36.188c8.094-12.629,7.182-22.844,4.458-29.74c3.167,2.002,6.404,3.834,9.501,5.541
			c6.594,3.633,13.452,6.76,20.417,9.621c0.382,3.881,2.889,7.436,6.454,8.764c-2.656,4.113-3.106,9.305,2.904,11.402
			c4.602,1.605,9.78-6.123,4.535-8.008c3.773,3.943-0.735,6.891-4.811,5.553c-4.538-1.49-2.959-5.682-0.012-8.412
			c0.86,0.043,1.756-0.029,2.681-0.256c1.089-0.42,2.05-1.225,2.791-2.217c6.827-0.023,13.127,4.266,17.246,9.824
			c0.361,15.596-13.207,31.281-17.739,45.951c-0.242,0.781-0.382,1.572-0.575,2.359c-17.341-12.613-32.635-1.977-32.635-1.977
			c10.682,13.258,23.458,12.744,31.386,10.59c-0.422,9.707,2.13,19.525,6.389,28.227c-0.802,9.838,0.092,15.369,0.092,15.369
			l-6.585,5.955c0,0-1.622,8.936,0,14.891s0,9.926,0,9.926s2.892,0.992-0.722,5.955s0,11.393,0,11.393s-15.523,4.488-18.504,4.488
			s-14.89,5.959-14.89,5.959h190.592c0,0,0.991-8.982-8.936-10.447c-9.926-1.467-15.138-0.857-21.961-5.627
			c-6.827-4.773-13.115-7.752-10.964-11.721c2.15-3.971-5.132-6.949,0-11.912c5.131-4.963,0-14.891,0-14.891
			s-3.183-3.221-5.521-7.609c1.612-3.551,2.289-6.982,2.236-10.303c0.107-0.098,0.227-0.139,0.331-0.26
			c10.905-13.037,15.138-29.156,12.011-45.84c3.277-6.83,5.64-14.076,6.558-21.674c0.646-5.344,0.988-10.703,1.429-16.057
			c5.799,23.789,29.811,22.932,29.811,22.932c-6.353-24.727-25.358-25.621-29.565-25.508c0.367-4.088,0.805-8.172,1.554-12.227
			c1.225-6.611,4.309-12.348,8.798-17.289l8.299-5.008c17.268-0.994,20.019,5.637,8.256,19.896c-3.795,0.34-3.825,6.299,0,5.955
			c23.042-2.059,16.573-34.033-3.663-32.631c1.236-0.918,2.448-1.879,3.642-2.859c16.15,14.711,34.97,3.342,34.97,3.342
			c-9.752-10.324-19.354-12.295-26.589-11.643c0.854-1.057,1.692-2.121,2.421-3.246c3.271-5.059,8.137-14.74,15.769-10.715
			c3.283,1.73,4.654,7.703-0.099,8.508c-2.179,0.369-4.736-1.545-4.079-3.641c-1.264,2.973,1.849,5.699,5.093,5.035
			c5.786-1.18,4.541-9.244,0.312-11.506c-2.228-1.189-4.746-1.697-7.163-2.355c-1.39-0.377-0.307-4.682,0.379-7.656
			c15.784,12.676,33.425,2.018,33.425,2.018c-12.828-13.58-25.404-12.713-32.653-10.432c0.019-6.191-0.845-12.379-2.068-18.443
			c-0.691-3.428-1.436-6.879-2.234-10.318c25.242,4.941,34.013-18.452,34.013-18.452c-23.504-3.439-32.194,11.178-34.521,16.395
			c-0.762-3.158-1.555-6.307-2.457-9.391c-1.396-4.761-5.413-12.668-1.41-17.145c2.221-2.485,7.622-3.501,6.655,1.27
			c-0.518,2.567-3.104,5.331-4.4,1.54c0.245,3.552,5.517,2.044,6.282-0.453c2.123-6.922-7.886-5.918-10.915-3.222
			c-0.777-4.348-1.393-8.654-1.873-12.944c1.616-0.942,3.24-1.87,4.826-2.867c1.404-0.884,2.843-1.812,4.287-2.757
			c16.462,16.885,36.472,4.795,36.472,4.795c-9.967-10.551-19.78-12.378-27.062-11.601c3.767-3.078,7.216-6.478,9.832-10.336
			c3.381-4.985,8.461-14.557,16-10.364c3.247,1.802,4.483,7.803-0.284,8.503c-2.188,0.325-4.7-1.649-3.999-3.73
			c-1.328,2.947,1.723,5.737,4.979,5.15c5.811-1.053,4.746-9.14,0.565-11.493c-2.2-1.239-4.706-1.802-7.108-2.512
			c-1.796-0.533,0.753-7.65,1.034-9.835c0.383-2.925,0.518-5.86,0.478-8.797c16.754,19.642,38.195,6.686,38.195,6.686
			c-17.543-18.574-34.611-10.129-38.226-7.999c-0.153-4.89-0.777-9.771-1.637-14.584c-0.989-5.529-2.158-11.099-3.471-16.604
			c15.977,13.685,34.211,2.653,34.211,2.653c-14.525-15.383-28.73-12.231-35.239-9.483c-0.125-0.872-0.575-1.432-1.264-1.774
			c-0.765-2.35-1.585-4.988-1.784-7.476c2.381-2.788,4.866-5.478,7.482-8.048c0.848,0.438,1.318,1.396,0.933,3.103
			c-0.575,2.555-3.219,5.264-4.434,1.441c0.165,3.556,5.472,2.164,6.291-0.315c0.931-2.809-0.204-4.324-2.071-4.973
			c5.024-4.862,10.419-9.339,16.126-13.338c-5.177,2.947-10.043,6.414-14.795,10.003c0.554-2.439-1.873-4.468-4.091-2.892
			c-1.233,0.875-0.526,2.928,0.526,2.989c-0.585-0.327,0.106-2.888,1.113-3.332c1.39-0.609,1.509,2.778,1.411,3.271
			c-0.236,1.184-0.958,2.136-1.846,2.962c-2.573-0.263-5.713,0.569-7.215,1.848c-1.381-8.856-2.13-17.528-2.316-26.233
			c16.582,17.907,37.136,5.477,37.136,5.477c-16.221-17.172-32.038-11.245-37.188-8.571c-0.033-6.203,0.221-12.436,0.774-18.782
			c0.324-3.718,3.907-13.164,9.211-7.742c5.138,5.251-5.304,7.916-4.327,2.83c-1.436,3.504,4.303,4.768,6.083,2.301
			c4.272-5.918-4.944-8.274-8.853-7.72c0.169-0.701,0.377-1.414,0.558-2.121c24.719,3.776,32.653-15.695,32.653-15.695
			c-14.202-4.63-23.967,0.502-29.842,5.973c4.155-12.638,10.199-25.181,18.385-35.202c2.668-3.268,8.767-6.98,11.267-1.068
			c1.185,2.797-3.861,3.155-4.853,1.677c0.287,2.319,4.538,2.448,5.462-0.587c1.668-5.612-4.894-3.449-7.179-6.004
			C481.951,16.423,491.978,7.378,503.012,0z M322.879,117.008c3.864,0.184,7.396-0.435,10.257-1.249
			c-2.354,2.096-4.765,4.149-7.283,6.151C325.669,120.402,324.421,118.342,322.879,117.008z M173.735,184.518
			c-0.325,0.364-0.649,0.729-0.937,1.15c-0.312-0.474-0.655-0.958-0.976-1.435C172.465,184.337,173.114,184.448,173.735,184.518z
			 M181.33,228.671c-12.573-4.633-24.119-10.279-35.321-17.182c0.003-0.006,0.018-0.043,0.018-0.043
			c-0.058-0.018-0.113-0.03-0.168-0.049c-2.457-1.518-4.905-3.075-7.337-4.718c-3.091-2.09-9.605-9.813-2.289-11.812
			c7.087-1.937,4.339,8.482,0.37,5.159c2.365,2.956,6.258-1.441,4.97-4.198c-3.094-6.609-9.633,0.297-11.05,3.984
			c-12.393-11.39-24.257-26.086-30.533-41.879c-0.034-0.083-0.061-0.171-0.092-0.257c16.601,0.08,23.975-11.046,26.019-14.887
			c9.272,6.077,17.871,13.253,25.272,21.515c-2.133,2.684-8.81,0.909-6.817,6.411c1.102,2.978,5.333,2.601,5.486,0.27
			c-0.906,1.533-5.964,1.469-4.945-1.393c2.151-6.05,8.458-2.699,11.31,0.41c11.497,12.515,19.581,29.584,24.453,45.695
			c-3.935-0.324-12.999,2.564-8.387,8.222c1.921,2.359,7.576,0.765,5.939-2.65c1.27,5.019-9.309,2.968-4.486-2.573
			c3.84-4.416,7.167,0.064,8.736,4.039C181.489,224.714,181.015,227.095,181.33,228.671z M183.276,227.058
			c-0.263-0.814-0.333-1.763-0.236-2.665c0.156,0.551,0.275,1.065,0.337,1.496c0.088,0.612,0.156,1.218,0.239,1.827
			C183.518,227.49,183.355,227.303,183.276,227.058z M449.061,139.212c0.967-1.035,2.491-1.753,3.853-1.919
			c-0.716,0.551-1.459,1.05-2.108,1.536c-1.04,0.78-2.038,1.646-3.041,2.503C448.054,140.567,448.467,139.848,449.061,139.212z
			 M299.195,383.746c0.746-2.32,1.771-5.113,3.984-6.43c1.211-0.719,2.729-0.768,4.137-0.367c-0.937,2.758-1.769,5.555-2.512,8.369
			c-0.123-0.145-0.261-0.236-0.374-0.41c0.092,0.223,0.215,0.398,0.331,0.582c-0.521,1.982-0.995,3.971-1.444,5.961
			c-0.062-0.053-0.113-0.111-0.175-0.16c-1.615-1.361-3.293-2.652-5.016-3.873C298.479,386.188,298.803,384.957,299.195,383.746z
			 M264.271,315.648c0.281,7.295,0.869,14.615-0.511,21.889c-0.006,0.029-0.015,0.064-0.021,0.094
			c-0.254,0.139-0.514,0.275-0.75,0.426C263.705,330.611,264.173,323.131,264.271,315.648z M208.698,246.875
			c-1.527,0.484-2.751,1.637-3.678,3.122c0.364-0.924,0.456-2.099,0.083-3.556c-0.092-0.361-0.272-0.618-0.414-0.918
			C206.027,245.969,207.364,246.419,208.698,246.875z M196.979,242.912c-1.521,0.285-2.983,0.765-4.101,1.312
			c-0.085-0.942-0.232-1.878-0.339-2.821C194.017,241.912,195.5,242.41,196.979,242.912z M193.141,346.025
			c-1.239-2.252-2.286-4.617-3.124-7.104c0.015-0.035,0.049-0.113,0.049-0.113c-0.034-0.012-0.064-0.018-0.101-0.029
			c-1.692-5.074-2.546-10.627-2.332-16.732c0.26-7.025,2.546-17.441,12.402-13.963c3.384,1.197,4.703,5.486,2.083,8.125
			c-2.414,2.426-7.108-1.057-4.948-3.881c-5.083,6.635,5.854,7.434,8.213,3.197c4.434-7.953-11.096-14.473-16.294-8.957
			c1.129-9.328,2.396-18.65,3.277-28.007c15.667,12.13,32.984,1.665,32.984,1.665c-12.62-13.36-24.991-12.736-32.292-10.539
			c0.309-5.021,0.49-10.058,0.328-15.086c-0.095-3.014-0.425-7.121,2.484-9.027c1.34-0.878,3.938-1.288,5.97-1.013
			c0.695,0.232,1.386,0.468,2.081,0.704c1.007,0.704,1.188,1.903-0.425,3.733c-1.31,1.484-5.146,2.95-5.407,1.417
			c-0.015,2.598,4.413,3.054,6.355,0.594c-2.751,5.686-1.502,14.835,5.242,14.437c4.841-0.285,8.874-10.483,0.692-8.788
			c3.482-0.722,4.581,5.021,1.346,6.141c-3.513,1.215-6.805-1.836-6.414-5.407c1.15-10.392,11.524-7.922,17.965-5.104
			c20.792,9.155,28.696,27.983,29.192,49.696c-5.557-7.152-21.23-6.281-22.042,4.236c-0.765,9.93,13.902,5.162,10.328,0.379
			c1.031,3.09-3.167,6.436-5.9,4.539c-3.06-2.254-2.889-5.934-0.184-8.395c6.252-5.68,15.092,1.105,17.418,7.494
			c1.539,4.232-0.627,11.9-1.004,16.42c-0.208,2.494-0.478,4.973-0.753,7.453c-17.405-12.783-32.785-2.082-32.785-2.082
			c1.221,1.514,2.469,2.83,3.733,4.002C206.37,334.521,197.777,340.459,193.141,346.025z M244.782,397.467
			c-2.95-0.5-4.559-2.748-4.865-5.338c2.561,1.018,5.131,2,7.714,2.953C246.633,395.695,245.657,396.518,244.782,397.467z
			 M242.315,379.324c-4.278-1.592-11.916-2.98-15.009-6.154c-4.743-4.869-7.014-15.779,0.817-18.941
			c3.391-1.367,6.781,0.08,7.479,3.812c0.523,3.287-4.315,5.615-6.649,3.346c2.754,5.293,13.421-5.846,4.146-9.469
			c-9.826-3.836-17.42,9.902-13.391,18.012c-7.8-3.984-14.626-8.867-19.976-14.744c14.557-1.686,21.374-13.764,23.226-17.701
			c9.553,7.732,19.795,6.895,26.408,5.006c-0.119,1.004-0.239,2.008-0.358,3.012c-0.985,8.342-0.906,16.922,2.506,24.578
			c-0.866,1.768-1.729,3.527-2.583,5.264C246.55,376.27,244.277,377.635,242.315,379.324z M260.409,385.725
			c-3.926-1.352-7.846-2.705-11.753-4.096c4.321-1.445,8.911-1.002,13.115,1.908c2.659,1.84,5.288,3.918,7.874,6.074
			C266.685,388.09,263.573,386.814,260.409,385.725z M272.089,453.148c-0.092-0.127-0.153-0.26-0.266-0.389
			c0.122,0.203,0.153,0.387,0.235,0.582c-0.196,1.123-0.416,2.234-0.646,3.336c-1.135,1.125-3.066,1.697-4.725,1.318
			c-4.186-0.951-4.44-7.488-1.16-9.66c2.114-1.398,5.012-1.139,7.405-0.811C272.689,449.414,272.411,451.291,272.089,453.148z
			 M273.307,444.35c-2.638,0.33-6.227-0.021-7.98,1.07c-3.926,2.451-5.75,8.479-2.904,12.455c2.004,2.797,6.441,1.896,8.77-0.199
			c-0.903,4.094-2.062,8.008-3.577,11.555c-4.688-4.385-7.901-10.09-9.25-16.625c2.463-7.945,6.368-15.912,10.713-24.281
			c1.79-3.449,3.198-7.033,4.128-10.662c0.701,2.76,1.138,5.576,1.438,8.416C274.344,431.699,273.999,437.996,273.307,444.35z
			 M311.306,463.186c-0.93-3.645-2.053-7.211-3.402-10.271c-2.2-4.99-5-6.43-8.514-7.785c-0.63-2.791-1.264-5.578-1.896-8.369
			c1.236-1.619,2.093-3.396,1.145-5.258c-1.928-3.785-5.068-7.889-8.352-11.654c-0.446-2.051-0.854-4.094-1.168-6.102
			c-0.282-1.785-0.252-3.473,0.021-5.064c4.289,4.629,8.484,9.508,11.631,14.639c1.982,3.238,2.687,6.852,3.57,10.49
			c1.454,5.967,3.593,11.732,6.512,17.143c1.031,1.908,2.186,3.742,3.388,5.541C313.36,458.805,312.386,461.047,311.306,463.186z
			 M325.345,410.609c-0.349,4.574-1.056,9.324-1.988,14.027c-1.638-5.643-3.458-11.213-6.265-16.414
			c-0.679-1.264-1.45-2.467-2.228-3.67c0.909-2.723,1.879-5.424,2.904-8.1C322.809,399.428,325.82,404.336,325.345,410.609z
			 M351.254,452.924l-5.783-10.191c2.065-0.375,4.33-0.545,6.163,0.469C355.08,445.102,355.352,451.639,351.254,452.924z
			 M376.542,393.807c-2.295,8.611-2.084,17.996-2.757,26.807c-1.056,13.764-6.377,26.244-14.141,37.404l-6.298-3.828
			c0.869-0.318,1.628-0.871,2.146-1.734c2.519-4.189,0.217-10.053-3.893-12.182c-1.769-0.916-5.138-0.354-7.757-0.416l-3.032-5.346
			l0,0c0.012-8.123-0.652-16.369,1.315-24.281c2.219-8.912,10.337-18.324,20.162-18.779c4.707-0.219,12.504,7.662,5.833,10.461
			c-3.954,1.658-8.685-0.918-5.239-5.148c-5.076,2.301,0.701,9.59,5.162,7.619c8.412-3.715,2.877-12.791-2.84-15.707
			c5.75-2.666,11.436-5.494,16.999-8.535C379.697,384.174,377.868,388.832,376.542,393.807z M419.042,310.195
			c-25.637-1.998-31.916,18.525-31.916,18.525c18.021,4.105,27.923-6.057,32.348-12.797c0.44,20.076-11.319,34.887-28.452,45.449
			c3.366-8.408-5.306-21.492-14.792-16.881c-8.956,4.354,2.57,14.602,4.894,9.105c-2.146,2.451-7.154,0.518-6.897-2.799
			c0.397-3.777,3.659-5.49,7.151-4.4c8.06,2.523,6.671,13.584,2.335,18.816c-2.874,3.467-10.585,5.471-14.676,7.43
			c-5.714,2.734-11.516,5.205-17.313,7.738c-9.064,3.963-17.699,9.326-22.32,18.422c-2.374-3.006-5.918-5.512-9.776-6.936
			c2.074-4.902,4.397-9.656,7.154-14.082c3.593-5.768,8.237-10.605,12.983-15.346c14.526,7.969,29.144-0.875,29.144-0.875
			c-6.19-6.555-12.326-9.742-17.831-11.031c1.687-2.008,3.309-4.072,4.734-6.303c3.975-6.219,6.597-13.193,8.011-20.424
			c0.407-2.074,0.72-4.168,0.945-6.266c1.243-0.291,2.476-0.607,3.725-0.854c2.39-0.475,5.33-0.938,7.555,0.357
			c3.403,1.98,3.531,8.52-0.594,9.713c-3.038,0.881-7.298-1.387-5.431-4.928c-3.587,4.533,6.648,9.352,9.679,4.557
			c2.609-4.135,0.438-10.045-3.623-12.264c-2.647-1.445-9.064,0.449-10.848-1.531c0.425-6.172,0.101-12.484,0.505-18.699
			c15.195-2.814,20.449-15.64,20.449-15.64c-6.077-1.983-11.331-2.163-15.826-1.307c3.85-6.178,10.254-11.218,17.482-11.396
			c4.712-0.113,12.331,7.938,5.603,10.588c-3.99,1.573-8.663-1.108-5.126-5.263c-5.125,2.188,0.493,9.605,4.994,7.732
			c8.491-3.528,3.158-12.723-2.494-15.765c6.114-2.671,12.158-5.532,18.069-8.632c0.267,2.268,0.551,4.535,0.888,6.791
			c1.741,11.677,4.339,23.2,6.692,34.765c-5.621-5.08-20.579,2.662-15.523,10.236c2.692,4.033,13.531,2.359,7.932-3.844
			c2.384,2.641-2.02,6.49-4.621,4.262c-2.821-2.416-1.851-6.799,1.426-8.264C414.838,294.062,418.067,303.277,419.042,310.195z
			 M446.463,186.431c2.111,22.623-10.502,38.681-29.235,49.67c1.689-3.96,0.661-9.021-1.891-12.785
			c0.07-2.794,0.174-5.6,0.357-8.434c0.242-3.724,3.617-13.247,9.036-7.94c5.254,5.138-5.128,8.029-4.266,2.925
			c-1.358,3.534,4.407,4.672,6.133,2.167c4.14-6.01-5.126-8.164-9.021-7.524c3.565-16.451,10.258-34.113,20.714-47.507
			c0.706-0.906,1.674-1.845,2.751-2.622c0.997,5.566,2.056,11.12,3.06,16.683c-5.511-5.202-20.634,2.209-15.744,9.89
			c2.602,4.094,13.474,2.656,8.015-3.669c2.325,2.693-2.16,6.444-4.713,4.162c-2.769-2.479-1.701-6.839,1.606-8.231
			C442.908,169.166,445.793,179.432,446.463,186.431z"/>
		<path d="M346.989,294.373c-19.759-20.922-38.938-7.557-38.938-7.557C324.905,307.742,346.989,294.373,346.989,294.373z"/>
		<path d="M362.194,151.348c-7.157-27.874-30.41-25.462-30.41-25.462C336.398,152.351,362.194,151.348,362.194,151.348z"/>
		<path d="M417.911,180.837c-25.542-8.33-36.748,14.923-36.748,14.923C409.137,202.505,417.911,180.837,417.911,180.837z"/>
		<path d="M224.47,165.02c-16.23,21.407,2.075,39.608,2.075,39.608C242.074,180.399,224.47,165.02,224.47,165.02z"/>
		<path d="M235.011,136.403c-5.722,26.249,18.541,35.064,18.541,35.064C257.45,142.954,235.011,136.403,235.011,136.403z"/>
		<path d="M349.749,186.81c3.899-28.513-18.54-35.064-18.54-35.064C325.486,177.997,349.749,186.81,349.749,186.81z"/>
		<path d="M365.787,203.619c-5.723,26.249,18.54,35.064,18.54,35.064C388.225,210.17,365.787,203.619,365.787,203.619z"/>
	</g>
</g>
<g>
</g>
<g>
</g>
<g>
</g>
<g>
</g>
<g>
</g>
<g>
</g>
<g>
</g>
<g>
</g>
<g>
</g>
<g>
</g>
<g>
</g>
<g>
</g>
<g>
</g>
<g>
</g>
<g>
</g>
</svg>
