<?xml version="1.0" encoding="iso-8859-1"?>
<!-- Generator: Adobe Illustrator 16.0.0, SVG Export Plug-In . SVG Version: 6.00 Build 0)  -->
<!DOCTYPE svg PUBLIC "-//W3C//DTD SVG 1.1//EN" "http://www.w3.org/Graphics/SVG/1.1/DTD/svg11.dtd">
<svg version="1.1" id="Capa_1" xmlns="http://www.w3.org/2000/svg" xmlns:xlink="http://www.w3.org/1999/xlink" x="0px" y="0px"
	 width="593.334px" height="593.334px" viewBox="0 0 593.334 593.334" style="enable-background:new 0 0 593.334 593.334;"
	 xml:space="preserve">
<g>
	<g>
		<path fill="#B9C33E" d="M262.125,483.007v73.228c0,21.151,15.941,37.1,37.083,37.1s37.083-15.948,37.083-37.1v-74.276
			c82.652-19.204,117.039-100.299,117.039-197.456C453.331,173.062,408.108,0,296.667,0C185.226,0,140.003,173.065,140.003,284.507
			C140.003,383.618,175.817,465.981,262.125,483.007z M315.892,485.32v70.914c0,11.131-8.339,16.7-16.683,16.7
			s-16.683-5.565-16.683-16.7V485.72v-37.883c-32.86-3.076-60.286-26.585-71.245-59.874c-4.198-12.754,5.871-21.085,16.039-21.085
			c6.679,0,13.398,3.599,16.136,11.909c6.414,19.486,21.261,30.979,39.07,33.975v-46.288c-32.86-3.076-60.286-26.585-71.245-59.874
			c-4.198-12.754,5.871-21.085,16.039-21.085c1.371,0,2.738,0.191,4.08,0.506c5.186,1.211,9.882,4.798,12.056,11.399
			c6.414,19.486,21.261,30.979,39.07,33.974v-45.479c-20.829-1.95-39.454-12.13-53.109-27.785
			c-7.887-9.045-14.125-19.902-18.136-32.089c-4.198-12.754,5.871-21.085,16.039-21.085c3.138,0,6.267,0.828,9.009,2.533
			c3.092,1.922,5.679,4.97,7.127,9.376c6.414,19.486,21.261,30.979,39.07,33.974v-67.471c0-11.13,8.339-16.7,16.683-16.7
			s16.683,5.565,16.683,16.7v67.471c17.813-2.999,32.656-14.488,39.07-33.974c0.73-2.219,1.763-4.08,2.982-5.646
			c3.354-4.305,8.254-6.259,13.15-6.259c10.163,0,20.236,8.331,16.038,21.085c-4.847,14.721-12.921,27.516-23.256,37.491
			c-13.031,12.583-29.662,20.669-47.989,22.383v45.48c17.813-2.999,32.656-14.488,39.07-33.975c1.354-4.116,3.692-7.07,6.516-9.008
			c2.872-1.975,6.251-2.897,9.621-2.897c10.163,0,20.236,8.331,16.038,21.085c-10.959,33.289-38.389,56.798-71.245,59.874v46.288
			c17.813-2.999,32.656-14.488,39.07-33.975c2.733-8.311,9.453-11.909,16.137-11.909c10.163,0,20.236,8.336,16.038,21.086
			c-10.959,33.288-38.389,56.797-71.245,59.874v37.479H315.892z"/>
	</g>
</g>
<g>
</g>
<g>
</g>
<g>
</g>
<g>
</g>
<g>
</g>
<g>
</g>
<g>
</g>
<g>
</g>
<g>
</g>
<g>
</g>
<g>
</g>
<g>
</g>
<g>
</g>
<g>
</g>
<g>
</g>
</svg>
