<?xml version="1.0" encoding="iso-8859-1"?>
<!-- Generator: Adobe Illustrator 16.0.0, SVG Export Plug-In . SVG Version: 6.00 Build 0)  -->
<!DOCTYPE svg PUBLIC "-//W3C//DTD SVG 1.1//EN" "http://www.w3.org/Graphics/SVG/1.1/DTD/svg11.dtd">
<svg version="1.1" id="Capa_1" xmlns="http://www.w3.org/2000/svg" xmlns:xlink="http://www.w3.org/1999/xlink" x="0px" y="0px"
	 width="603.175px" height="603.175px" viewBox="0 0 603.175 603.175" style="enable-background:new 0 0 603.175 603.175;"
	 xml:space="preserve">
<g>
	<g>
		<path d="M157.09,371.28c1.106,0,2.203-0.05,3.301-0.082c28.328,32.024,71.628,54.166,103.126,68.879v126.729
			c0,20.734,15.867,36.369,36.908,36.369c21.042,0,36.909-15.635,36.909-36.369v-85.708c50.518-14.252,97.764-49.499,123.23-95.628
			c50.463-4.953,89.426-37.748,89.426-90.017c0-56.847-46.082-115.174-102.934-115.174s-102.93,46.087-102.93,102.934
			c0,33.95,16.441,64.052,41.791,82.8c-1.424,1.734-2.807,3.329-4.092,4.737c-12.281,13.447-27.953,24.773-44.492,32.473V182.67
			c33.152-14.998,56.238-48.344,56.238-87.1C393.568,42.791,350.777,0,297.993,0c-52.783,0-95.574,42.791-95.574,95.574
			c0,40.625,25.357,75.305,61.094,89.136v169.344c-0.355-0.191-0.706-0.383-1.061-0.579c-11.375-6.193-20.661-11.611-28.225-16.503
			c16.63-18.422,26.761-42.824,26.761-69.597c0-57.385-46.521-103.905-103.906-103.905c-57.385,0-103.897,46.524-103.897,103.905
			C53.185,324.76,99.705,371.28,157.09,371.28z M283.917,190.107v-79.254c0-10.645,8.254-15.969,16.508-15.969
			c8.254,0,16.508,5.325,16.508,15.969v78.409v242.45c32.199-7.205,65.238-27.895,86.691-55.178
			c17.172-21.836,26.932-47.896,22.848-74.66c-1.91-12.525,8.838-20.751,18.404-20.751c6.338,0,12.154,3.611,13.432,11.975
			c5.088,33.354-3.834,65.292-21.562,92.535c-26.234,40.314-71.768,70.322-119.812,79.319v101.853
			c0,10.645-8.254,15.97-16.508,15.97c-8.254,0-16.507-5.325-16.507-15.97v-139.78c-35.374-16.23-72.93-35.264-98.92-59.568
			c-25.924-24.243-40.339-53.733-29.588-90.927c2.346-8.119,8.796-11.632,15.349-11.632c9.918,0,20.058,8.062,16.487,20.408
			c-8.772,30.343,7.25,49.715,31.13,65.958c19.653,13.37,44.627,24.627,65.542,38.115L283.917,190.107L283.917,190.107z"/>
	</g>
</g>
<g>
</g>
<g>
</g>
<g>
</g>
<g>
</g>
<g>
</g>
<g>
</g>
<g>
</g>
<g>
</g>
<g>
</g>
<g>
</g>
<g>
</g>
<g>
</g>
<g>
</g>
<g>
</g>
<g>
</g>
</svg>
