<?xml version="1.0" encoding="iso-8859-1"?>
<!-- Generator: Adobe Illustrator 16.0.0, SVG Export Plug-In . SVG Version: 6.00 Build 0)  -->
<!DOCTYPE svg PUBLIC "-//W3C//DTD SVG 1.1//EN" "http://www.w3.org/Graphics/SVG/1.1/DTD/svg11.dtd">
<svg version="1.1" id="Capa_1" xmlns="http://www.w3.org/2000/svg" xmlns:xlink="http://www.w3.org/1999/xlink" x="0px" y="0px"
	 width="560.899px" height="560.899px" viewBox="0 0 560.899 560.899" style="enable-background:new 0 0 560.899 560.899;"
	 xml:space="preserve">
<g>
	<g>
		<path fill="#658744" d="M397.508,431.705c4.773-14.301,7.561-29.756,9.164-45.447c-13.484,2.59-27.674,4.717-42.49,6.389
			c-0.416,3.273-0.859,6.541-1.346,9.809c-1.705,11.49-4.268,23.941-16.182,28.793c-1.211,0.494-2.451,0.934-3.713,1.334
			l-3.691-37.59c-18.764,1.4-38.385,2.127-58.801,2.127s-40.041-0.727-58.801-2.127l-4.378,44.578
			c-17.434-6.16-33.387-15.271-44.701-30.285c-4.814-6.385-8.185-13.855-10.877-21.648c-16.654-2.941-32.321-6.535-46.854-10.805
			c5.549,21.184,13.647,41.299,26.083,57.795c18.238,24.193,44.346,37.43,72.322,45.98l-6.234,63.391
			c0,22.535,146.88,22.535,146.88,0l-7.002-71.252C369.377,467.094,389.116,456.85,397.508,431.705z"/>
		<path fill="#658744" d="M280.449,0C125.891,0,0.598,127.798,0.598,231.826c0,60.784,42.819,99.971,109.213,122.073
			c14.214,4.734,29.502,8.684,45.692,11.891c21.314,4.223,44.149,7.184,68.136,8.939c18.348,1.342,37.344,1.994,56.81,1.994
			c19.465,0,38.465-0.652,56.809-1.994c9.891-0.723,19.568-1.666,29.047-2.795c14.52-1.734,28.502-3.971,41.877-6.709
			c90.303-18.482,152.119-60.346,152.119-133.395C560.301,127.798,435.008,0,280.449,0z"/>
	</g>
</g>
<g>
</g>
<g>
</g>
<g>
</g>
<g>
</g>
<g>
</g>
<g>
</g>
<g>
</g>
<g>
</g>
<g>
</g>
<g>
</g>
<g>
</g>
<g>
</g>
<g>
</g>
<g>
</g>
<g>
</g>
</svg>
