<?xml version="1.0" encoding="iso-8859-1"?>
<!-- Generator: Adobe Illustrator 16.0.0, SVG Export Plug-In . SVG Version: 6.00 Build 0)  -->
<!DOCTYPE svg PUBLIC "-//W3C//DTD SVG 1.1//EN" "http://www.w3.org/Graphics/SVG/1.1/DTD/svg11.dtd">
<svg version="1.1" id="Capa_1" xmlns="http://www.w3.org/2000/svg" xmlns:xlink="http://www.w3.org/1999/xlink" x="0px" y="0px"
	 width="568.311px" height="568.311px" viewBox="0 0 568.311 568.311" style="enable-background:new 0 0 568.311 568.311;"
	 xml:space="preserve">
<g>
	<g>
		<path d="M511.861,192.103C492.134,98.177,403.802,18.495,301.827,2.636C290.594,0.89,279.106,0,267.674,0
			C180.186,0,99.557,51.612,67.044,128.434c-36.488,86.215-4.284,184.931,80.131,245.654
			c45.088,32.432,104.546,50.734,181.768,55.943c11.154,0.727,16.557-7.719,16.821-15.557c0.298-8.842-5.287-18.188-16.548-18.951
			C157.477,383.916,107.142,291.35,93.47,252.087c-13.913-39.963-10.44-81.474,10.045-120.038
			c23.513-44.272,67.128-78.544,116.668-91.682c15.341-4.068,31.224-6.132,47.209-6.132c76.834,0,152.633,46.785,193.11,119.189
			c22.999,41.143,27.282,90.017,11.746,134.097c-14.933,42.375-46.834,76.436-87.794,93.885v-4.68
			c4.688-7.682,9.947-15.104,15.039-22.289c9.123-12.873,18.556-26.189,25.067-41.502c10.841-25.496,15.202-54.361,12.607-83.472
			c-0.963-10.812-10.086-16.467-18.601-16.467c-4.912,0-9.396,1.819-12.301,4.998c-2.774,3.035-4.02,7.124-3.599,11.828
			c2.297,25.786-1.277,50.013-10.629,72.004c-2.521,5.92-5.72,11.82-10.114,18.596V107.647c0-11.004-8.683-16.757-17.259-16.757
			s-17.258,5.753-17.258,16.757V309.5c-32.375-50.061-49.735-107.866-50.278-167.626c-0.098-10.988-8.829-16.745-17.4-16.745
			c-4.884,0-9.482,1.812-12.615,4.978c-2.991,3.015-4.549,7.1-4.504,11.808c0.567,62.318,17.846,123.204,50.074,176.753
			c-33.183-25.328-59.421-59.78-74.436-97.985c-2.832-7.209-9.237-11.51-17.132-11.51c-6.189,0-11.914,2.767-14.953,7.222
			c-2.664,3.913-3.043,8.841-1.065,13.872c26.585,67.633,77.94,120.54,144.66,149.071c0.058,0.18,0.119,0.359,0.184,0.535v171.678
			c0,11.004,8.683,16.76,17.259,16.76c8.58,0,17.259-5.756,17.259-16.76v-62.506l35.357-27.793c3.288-2.586,5.255-6.58,5.532-11.256
			c0.33-5.541-1.718-11.24-5.354-14.873c-6.817-6.816-17.409-6.748-25.781-0.162l-9.755,7.67v-24.271
			C477.582,386.4,532.302,289.406,511.861,192.103z"/>
	</g>
</g>
<g>
</g>
<g>
</g>
<g>
</g>
<g>
</g>
<g>
</g>
<g>
</g>
<g>
</g>
<g>
</g>
<g>
</g>
<g>
</g>
<g>
</g>
<g>
</g>
<g>
</g>
<g>
</g>
<g>
</g>
</svg>
