<?xml version="1.0" encoding="iso-8859-1"?>
<!-- Generator: Adobe Illustrator 16.0.0, SVG Export Plug-In . SVG Version: 6.00 Build 0)  -->
<!DOCTYPE svg PUBLIC "-//W3C//DTD SVG 1.1//EN" "http://www.w3.org/Graphics/SVG/1.1/DTD/svg11.dtd">
<svg version="1.1" id="Capa_1" xmlns="http://www.w3.org/2000/svg" xmlns:xlink="http://www.w3.org/1999/xlink" x="0px" y="0px"
	 width="574.215px" height="574.215px" viewBox="0 0 574.215 574.215" style="enable-background:new 0 0 574.215 574.215;"
	 xml:space="preserve">
<g>
	<g>
		<path fill="#B9C33E" d="M377.225,244.483c0.2-6.136-0.131-12.33-0.987-18.694c-0.004-0.024-0.009-0.049-0.009-0.073
			c-2.958,0.795-6.829,2.55-9.396,3.712c-2.371,1.073-4.419,2.003-6.214,2.554c-3.905,1.2-7.712,2.13-11.396,2.799
			c1.313,0.306,2.619,0.625,3.917,0.959C361.067,237.768,369.603,240.363,377.225,244.483z"/>
		<path fill="#B9C33E" d="M439.583,190.738c-5.345,7.042-9.176,15.426-12.505,24.459c2.117-1.008,4.271-1.999,6.381-2.974
			c1.787-0.824,3.595-1.657,5.397-2.505c0.886-1.95,0.702-5.206,0.511-8.646c-0.172-3.105-0.372-6.622,0.184-10.155
			C439.562,190.856,439.575,190.795,439.583,190.738z"/>
		<path fill="#B9C33E" d="M432.052,277.238c-4.513-4.904-7.757-8.433-12.212-10.457c-2.509,1.771-4.447,4.146-5.989,7.291
			c-0.114,0.236-0.236,0.469-0.363,0.697l0.151,11.971h29.106c-3.198-2.125-6.116-4.565-8.649-7.286L432.052,277.238z"/>
		<path fill="#B9C33E" d="M331.055,197.678l1.167,1.326c2.709,3.097,4.477,5.026,6.577,5.582c0.686,0.179,1.351,0.408,1.999,0.681
			c4.644-0.498,9.111-1.591,13.306-3.256c1.546-0.612,3.215-1.277,4.978-1.938c-6.802-1.249-15.578-3.129-24.293-6.589
			c-1.795-0.709-3.606-1.521-5.41-2.415c-1.554-0.082-3.112-0.159-4.667-0.237c-0.229-0.012-0.457-0.024-0.686-0.033
			C326.604,193.01,328.934,195.295,331.055,197.678z"/>
		<path fill="#B9C33E" d="M123.938,261.521h3.962V225.81c-3.88,7.589-9.515,14.357-16.679,19.702C114.929,251.803,119.352,257.299,123.938,261.521z
			"/>
		<path fill="#B9C33E" d="M156.782,219.759v25.757c13.864-11.628,23.986-25.655,20.783-36.74c-0.563-1.946-0.718-3.913-0.49-5.81
			C172.502,210.024,166.015,216.144,156.782,219.759z"/>
		<path fill="#B9C33E" d="M18.454,261.521H58.98c-14.023-10.4-20.098-27.397-24.125-42.799c-1.134-4.337-0.27-8.789,2.37-12.208
			c2.774-3.59,7.206-5.732,11.861-5.732c6.552,0,11.865,4.129,13.533,10.514c2.889,11.065,8.438,22.632,14.667,28.164
			c-3.447-10.918-4.541-21.661-3.084-31.216c1.049-6.871,6.345-11.485,13.179-11.485c4.418,0,8.796,2.02,11.706,5.406
			c2.391,2.782,3.615,6.214,3.541,9.837c3.215-6.797,3.509-14.855,0.469-22.909c-1.632-4.325-1.146-8.862,1.334-12.448
			c2.64-3.819,7.172-6.1,12.118-6.1c4.663,0,8.878,2.105,11.607,5.594c1.249-6.683,6.932-11.432,14.186-11.432
			c8.233,0,14.439,6.12,14.439,14.235v0.192c1.656-5.528,2.423-12.354,2.819-20.18c0.396-7.833,6.704-13.737,14.672-13.737
			c3.994,0,7.785,1.571,10.388,4.316c2.554,2.689,3.852,6.328,3.656,10.249c-0.351,6.936-1.077,21.293-6.72,34.599
			c2.705-2.407,6.308-3.791,10.082-3.791c4.496,0,8.417,1.971,11.028,5.243c1.163,1.457,2.093,3.146,2.648,5.076
			c0.75,2.591,1.249,5.23,1.505,7.907c3.696-6.267,5.675-13.615,5.606-21.485c-0.033-3.86,1.375-7.426,3.962-10.041
			c2.644-2.668,6.417-4.198,10.351-4.198c8.152,0,14.354,6.059,14.423,14.092c0.241,27.401-14.811,51.249-38.499,62.865
			c-3.958,1.942-8.127,3.578-12.538,4.794c-0.363,0.102-0.73,0.188-1.098,0.257c-1.819,2.244-3.623,4.37-5.43,6.422h19.208
			c1.416,14.157,13.366,25.214,27.895,25.214h139.769l0.073-5.813c-0.465-0.91-0.845-1.877-1.134-2.897
			c-2.66-9.371-20.73-12.741-32.686-14.969c-1.926-0.359-3.758-0.702-5.45-1.044c-0.67,0.09-1.343,0.135-2.024,0.135
			c-0.253,0-0.506-0.008-0.767-0.021c-1.061-0.053-2.073-0.094-3.056-0.094c-3.04,0-4.79,0.412-6.691,1.579
			c-3.771,2.309-8.323,4.859-13.529,6.242c-4.949,1.314-9.764,1.955-14.713,1.955c-3.827,0-7.638-0.38-11.656-1.163
			c-7.593-1.481-12.379-7.875-11.636-15.545c0.71-7.34,6.071-13.072,12.905-14.214c-4.635-3.876-6.328-9.641-4.419-15.169
			c1.473-4.264,4.811-7.658,8.915-9.417c-0.82-2.562-0.91-5.385-0.171-8.242c0.359-1.379,0.881-2.68,1.546-3.872
			c-0.4-0.139-0.804-0.273-1.212-0.412c-8.829-2.995-18.833-6.385-26.288-16.279c-3.358-4.456-3.958-9.935-1.604-14.655
			c2.554-5.125,8.332-8.568,14.37-8.568c0.587,0,1.171,0.032,1.746,0.098c-0.734-2.215-1.322-4.537-1.771-6.957
			c-0.2-1.097-0.388-2.211-0.571-3.333c-0.824-5.002-1.604-9.731-4.19-12.367c-4.329-4.41-5.561-10.632-3.211-16.23
			c2.452-5.847,8.209-9.772,14.317-9.772c3.913,0,7.658,1.62,10.546,4.562c7.797,7.944,9.719,17.034,11.412,25.056
			c0.188,0.893,0.375,1.779,0.567,2.647c0.212-0.404,0.444-0.804,0.697-1.195c2.962-4.626,8.074-7.499,13.334-7.499
			c5.536,0,10.289,3.146,12.717,8.421c6.508,14.142,18.462,17.589,37.43,22.041c2.787,0.653,5.586,1.313,8.364,2.028
			c2.301,0.591,4.537,1.313,6.684,2.154c-0.522-1.114-1.257-2.281-2.073-3.574c-1.13-1.795-2.411-3.827-3.451-6.255
			c-4.953-11.55-5.027-22.57-4.37-32.762c0.53-8.238,7.271-14.452,15.676-14.452c4.264,0,8.282,1.677,11.023,4.603
			c2.681,2.86,4.011,6.732,3.742,10.902c-0.054,0.84-0.119,1.697-0.184,2.566c-0.339,4.566-0.689,9.286,0.375,12.726
			c0.689,2.232,1.95,4.386,3.415,6.858c6.487-7.482,11.334-14.671,11.501-23.419c0.159-8.466,6.765-14.847,15.37-14.847
			c4.194,0,8.2,1.632,10.995,4.476c2.726,2.778,4.187,6.568,4.108,10.681c-0.102,5.467-1.028,10.412-2.525,14.949
			c3.84-2.729,7.731-5.316,11.592-7.821c5.345-3.472,6.548-9.115,8.07-18.034c1.216-7.128,6.805-11.918,13.916-11.918
			c4.725,0,9.376,2.167,12.437,5.79c2.97,3.517,4.17,8.005,3.382,12.627c-0.036,0.229-0.077,0.457-0.118,0.685
			c1.118-0.922,2.167-1.876,3.158-2.872c2.889-2.905,6.622-4.504,10.51-4.504c6.148,0,11.922,3.945,14.361,9.816
			c2.33,5.606,1.069,11.812-3.292,16.198c-11.559,11.628-25.643,16.553-39.262,21.314c-1.424,0.498-2.84,0.991-4.239,1.489
			c0.954,1.155,1.754,2.456,2.362,3.868c0.094,0.212,0.18,0.429,0.261,0.645c2.407-1.648,5.329-2.57,8.507-2.57
			c5.015,0,9.747,2.305,12.665,6.165c2.758,3.647,3.586,8.38,2.28,12.982c-3.342,11.754-10.094,20.918-18.042,28.152
			c4.896,0.53,9.507,3.456,12.053,7.756c2.737,4.623,2.786,10.053,0.13,14.888c-0.032,0.062-0.064,0.123-0.102,0.18
			c1.285,1.138,2.529,2.297,3.754,3.439c4.112,3.827,7.996,7.442,12.574,9.58c6.353,2.97,9.498,9.216,8.009,15.92
			c-1.619,7.295-8.103,12.591-15.414,12.591c-2.272,0-4.509-0.506-6.646-1.506c-6.997-3.268-12.488-8.27-17.385-13.186l-0.841-0.845
			c-3.623-3.66-7.042-7.116-10.485-7.213c-0.073,0-0.146-0.004-0.216-0.008c-2.371,0.486-4.773,0.824-7.189,1.069
			c2.334,1.706,4.868,2.971,7.944,3.709c7.507,1.799,12.117,8.421,11.212,16.104c-0.253,2.13-0.931,4.101-1.901,5.871h69.176
			c15.488,0,28.038-12.554,28.038-28.038V44.192c0-15.488-12.554-28.038-28.038-28.038H230.744
			c-15.488,0-28.038,12.554-28.038,28.038v39.233H18.454C8.262,83.426,0,91.688,0,101.879v141.185
			C-0.004,253.26,8.262,261.521,18.454,261.521z"/>
		<path fill="#B9C33E" d="M284.205,248.988c-0.531-0.102-1.044-0.151-1.538-0.151c-7.781,0-10.641,12.159-2.224,13.799
			c3.431,0.669,6.772,1.012,10.094,1.012c4.189,0,8.352-0.547,12.619-1.681c4.019-1.069,7.842-3.158,11.358-5.312
			c3.668-2.248,7.091-2.783,10.955-2.783c1.113,0,2.265,0.045,3.468,0.106c0.122,0.004,0.241,0.008,0.355,0.008
			c0.754,0,1.428-0.123,2.056-0.306c14.243,3.109,41.225,5.455,45.957,22.117c0.322,1.135,0.837,2.053,1.474,2.783l-0.106,8.155
			l-3.432,265.11h33.611l-3.374-265.11l-0.163-12.803c0-0.559-0.049-1.089-0.106-1.612c0.489-0.506,0.942-1.089,1.313-1.84
			c3.097-6.324,7.426-10.216,12.502-12.644c9.33,2.558,14.238,8.748,21.044,16.047c5.83,6.259,13.737,10.481,21.979,12.46
			c0.636,0.151,1.248,0.225,1.832,0.225c7.515,0,10.167-11.897,1.934-13.872c-10.71-2.566-16.349-9.731-23.35-17.556
			c-0.445-0.498-0.938-0.947-1.416-1.412c8.617-0.322,17.531-0.151,25.487-2.003c0.29,0.041,0.563,0.102,0.873,0.11
			c7.12,0.208,12.167,5.732,16.871,10.457c4.517,4.537,9.209,8.817,15.06,11.55c1.094,0.51,2.17,0.738,3.194,0.738
			c6.663,0,11.114-9.612,3.949-12.958c-9.628-4.5-15.765-13.231-23.966-18.821c1.474-1.636,2.836-3.505,4.039-5.7
			c3.032-5.528-1.86-10.645-6.621-10.645c-2.134,0-4.239,1.028-5.598,3.501c-2.273,4.145-5.737,6.679-9.85,8.221
			c-0.037,0.016-0.073,0.024-0.106,0.041c-5.038,1.865-11.048,2.252-17.087,2.252c-4.268,0-8.552-0.192-12.509-0.192
			c-2.832,0-5.5,0.098-7.883,0.437c-0.049,0.008-0.098,0.021-0.151,0.024c7.418-4.562,15.599-8.213,22.648-11.53
			c18.417-8.67,36.455-20.584,42.317-41.208c1.506-5.3-2.848-8.756-7.095-8.756c-2.803,0-5.561,1.51-6.553,4.994
			c-2.758,9.698-9.053,16.691-16.83,22.269c0.221-8.124-0.412-16.279,5.725-22.779c4.811-5.096,0.024-12.191-5.296-12.191
			c-1.604,0-3.256,0.645-4.712,2.187c-4.982,5.275-8.209,11.24-9.336,18.45c-1.105,7.062,1.824,15.5-1.844,21.926
			c-0.326,0.571-0.543,1.134-0.701,1.689c-6.394,3.097-12.877,5.883-18.687,8.829c-4.839,2.457-9.608,5.427-14.023,8.837
			c7.308-22.375,13.93-46.345,33.583-60.184c20.322-14.312,47.059-14.386,65.251-32.685c4.97-4.998,0.143-12.105-5.283-12.105
			c-1.604,0-3.256,0.62-4.725,2.097c-6.472,6.507-14.325,10.767-22.681,14.264c3.125-5.814,4.65-12.407,5.81-19.201
			c0.914-5.369-3.651-8.89-7.772-8.89c-2.729,0-5.264,1.546-5.871,5.124c-1.596,9.372-3.183,17.993-11.669,23.509
			c-17.511,11.379-33.574,23.166-43.917,41.856c-3.688,6.667-6.564,13.754-9.151,20.906c-1.877,5.194-7.438,15.263-6.903,20.702
			c-0.42-4.296-1.021-8.499-1.408-12.64c-0.008-0.188-0.024-0.375-0.049-0.567c-0.722-8.188-0.497-16.165,3.889-24.235
			c11.6-21.355,35.361-33.215,35.867-60.151c0.086-4.566-3.407-6.842-6.944-6.842s-7.124,2.285-7.209,6.842
			c-0.29,15.483-11.478,26.467-21.873,37.846c-0.371-1.526-0.869-3.035-1.555-4.512c-2.329-5.006-5.789-9.192-7.438-14.517
			c-1.767-5.712-0.918-12.375-0.543-18.229c0.294-4.553-3.089-6.818-6.622-6.818c-3.541,0-7.237,2.281-7.531,6.818
			c-0.661,10.241-0.355,19.506,3.725,29.025c1.808,4.219,4.929,7.422,6.316,11.894c1.313,4.239-0.078,9.392-1.645,13.982
			c-4.382-3.268-9.743-5.634-15.373-7.087c-20.192-5.206-41.343-7.201-51.172-28.56c-1.195-2.595-3.211-3.672-5.304-3.672
			c-4.582,0-9.515,5.165-6.916,10.812c1.583,3.443,3.554,6.622,5.822,9.547c-1.102-0.061-2.203-0.126-3.309-0.188
			c-8.054-0.457-12.941-2.354-15.618-10.437c-3.709-11.195-2.979-22.191-11.812-31.191c-1.465-1.494-3.122-2.118-4.725-2.118
			c-5.398,0-10.216,7.103-5.284,12.125c5.177,5.275,5.683,12.999,6.964,19.935c1.314,7.124,4.101,13.55,9.062,18.85
			c4.068,4.345,10.689,6.051,16.373,6.585c8.907,0.836,17.879,1.159,26.814,1.645c2.027,1.065,4.116,2.036,6.258,2.889
			c7.602,3.015,15.35,4.806,23.375,6.258c6.626,1.2,19.147,3.636,21.24,11.367c-0.648-0.053-1.306-0.078-1.967-0.078
			c-7.801,0-16.442,3.407-23.333,6.145c-5.818,2.309-11.897,3.607-18.021,4.006c-0.665-0.477-1.437-0.877-2.383-1.126
			c-5.189-1.375-8.323-5.516-11.75-9.372c-4.129-4.639-8.825-8.491-13.95-11.975c-5.088-3.464-10.995-5.781-16.821-7.666
			c-5.729-1.853-13.056-2.893-16.924-8.025c-1.603-2.126-3.802-3.007-5.969-3.007c-5.161,0-10.123,5.01-6.25,10.151
			c8.641,11.473,21.767,12.036,33.9,17.919c4.211,2.04,7.744,5.022,11.077,8.254c-2.477-1.012-4.9-2.159-7.246-3.46
			c-1.195-0.665-2.37-0.955-3.476-0.955c-6.304,0-10.449,9.404-3.664,13.174c12.436,6.907,25.912,10.343,40.09,10.343
			c0.42,0,0.845-0.004,1.269-0.008c7.177-0.102,14.398-1.571,21.232-3.668c4.174-1.281,13.889-7.042,20.543-7.042
			c1.95,0,3.64,0.498,4.848,1.746c0.208,1.922,0.444,3.855,0.709,5.81c1.588,11.763,1.494,23.354-0.403,34.917
			c-8.177-8.805-21.045-12.954-32.808-15.969c-18.78-4.81-39.73-6.479-55.513-18.857c-1.464-1.151-3.06-1.636-4.602-1.636
			c-5.92,0-11.094,7.181-5.402,11.645c5.888,4.618,12.171,8.099,18.756,10.861c-4.814,2.248-9.294,3.892-14.635,3.892
			C287.982,249.543,286.159,249.367,284.205,248.988z"/>
		<path fill="#B9C33E" d="M54.725,213.361c-0.804-3.084-3.187-4.418-5.639-4.418c-3.705,0-7.556,3.048-6.336,7.719
			c3.741,14.321,9.266,30.257,22.02,39.078c3.831,2.648,8.025,4.619,12.362,5.781c2.88,0.771,5.822,1.2,8.768,1.2
			c2.839,0,5.675-0.396,8.462-1.2c0.779-0.224,1.554-0.469,2.321-0.759c0.175,0.261,0.334,0.502,0.506,0.759
			c9.866,14.639,16.047,26.117,30.71,28.862l-4.08,261.602c0,4.052,8.242,6.075,16.479,6.075c8.242,0,16.479-2.023,16.479-6.075
			l-4.08-276.032c7.487-3.436,13.839-8.438,19.784-14.431c4.312-4.349,8.417-9.204,12.55-14.439c0.4,0.086,0.816,0.135,1.253,0.135
			c0.542,0,1.114-0.074,1.713-0.241c5.267-1.453,10.184-3.546,14.704-6.157c18.764-10.845,30.539-30.882,30.339-53.562
			c-0.037-4.002-3.158-6.006-6.263-6.006c-3.104,0-6.189,2-6.152,6.006c0.139,15.61-6.593,29.454-17.919,38.552
			c-2.419,1.942-5.039,3.68-7.858,5.161c3.945-9.135,5.312-18.662,2.668-27.797c-0.894-3.088-3.35-4.427-5.838-4.427
			c-3.774,0-7.629,3.068-6.275,7.765c6.067,20.983-19.005,43.615-36.622,55.015c-0.053,0.032-0.11,0.073-0.159,0.106v-0.11v-47.748
			c24.753-5.883,30.392-31.628,31.546-54.411c0.204-3.999-2.795-5.99-5.896-5.99c-3.109,0-6.324,2.003-6.524,5.99
			c-0.833,16.487-3.317,34.969-19.127,41.306v-21.726c0-4.051-3.142-6.075-6.279-6.075c-3.142,0-6.279,2.024-6.279,6.075v82.579
			v16.214c-8.115-1.815-16.361-8.001-23.383-16.214c-4.761-5.569-8.968-12.064-12.167-18.796
			c21.326-11.775,30.841-36.899,22.191-59.817c-1.106-2.934-3.656-4.207-6.157-4.207c-3.823,0-7.532,2.97-5.818,7.507
			c6.512,17.254,0.755,35.1-14.688,44.705c-1.803-6.418-2.485-12.66-1.656-18.103c0.726-4.766-3.362-7.895-7.001-7.895
			c-2.411,0-4.626,1.375-5.112,4.558c-1.926,12.611,1.42,27.185,8.083,40.494c-2.007,0.673-3.933,0.983-5.781,0.983
			C68.332,250.955,58.271,226.927,54.725,213.361z"/>
	</g>
</g>
<g>
</g>
<g>
</g>
<g>
</g>
<g>
</g>
<g>
</g>
<g>
</g>
<g>
</g>
<g>
</g>
<g>
</g>
<g>
</g>
<g>
</g>
<g>
</g>
<g>
</g>
<g>
</g>
<g>
</g>
</svg>
