<?xml version="1.0" encoding="iso-8859-1"?>
<!-- Generator: Adobe Illustrator 16.0.0, SVG Export Plug-In . SVG Version: 6.00 Build 0)  -->
<!DOCTYPE svg PUBLIC "-//W3C//DTD SVG 1.1//EN" "http://www.w3.org/Graphics/SVG/1.1/DTD/svg11.dtd">
<svg version="1.1" id="Capa_1" xmlns="http://www.w3.org/2000/svg" xmlns:xlink="http://www.w3.org/1999/xlink" x="0px" y="0px"
	 width="576.055px" height="576.055px" viewBox="0 0 576.055 576.055" style="enable-background:new 0 0 576.055 576.055;"
	 xml:space="preserve">
<g>
	<g>
		<path d="M206.837,295.576c6.977,0,13.791-0.674,20.413-1.898v246.191c0,20.629,15.785,36.186,36.72,36.186
			c12.313,0,22.815-5.41,29.401-14.039c6.625,7.43,16.405,12,27.719,12c20.936,0,36.721-15.557,36.721-36.186V274.857
			c11.023,5.067,23.248,7.972,36.178,7.972c47.943,0,86.814-38.866,86.814-86.814c0-17.16-5.047-33.113-13.637-46.581
			c1.449-7.638,2.236-15.508,2.236-23.566C469.401,56.353,413.048,0,343.534,0c-51.225,0-95.273,30.616-114.918,74.538
			c-7.046-1.396-14.321-2.138-21.775-2.138c-61.628,0-111.588,49.959-111.588,111.588
			C95.249,245.616,145.208,295.576,206.837,295.576z M337.409,537.83c0,10.521-8.16,15.785-16.32,15.785
			s-16.319-5.264-16.319-15.785V245.628v-8.132V162.47c0-6.752,3.374-11.31,7.936-13.729c2.55-1.35,5.459-2.056,8.384-2.056
			c0.479,0,0.947,0.078,1.42,0.114c7.658,0.579,14.9,5.761,14.9,15.671v24.488c17.773-10.249,29.617-28.038,33.02-49.253
			c1.326-8.266,7.115-11.832,13.395-11.832c9.479,0,20.062,8.131,18.078,20.51c-5.654,35.263-31.322,64.492-64.492,76.406v28.793
			v10.192V537.83z M280.29,539.869c0,10.523-8.16,15.785-16.32,15.785c-8.16,0-16.32-5.262-16.32-15.785v-252.03v-22.484
			c-26.496-9.413-46.944-30.971-56.166-57.863c-4.133-12.048,5.712-19.922,15.663-19.922c6.537,0,13.122,3.398,15.81,11.244
			c4.525,13.187,13.387,23.538,24.692,30.38v-9.604c0-3.692,1.044-6.699,2.701-9.098c3.064-4.435,8.319-6.687,13.619-6.687
			c8.16,0,16.32,5.263,16.32,15.785v15.092v33.268V539.869z"/>
	</g>
</g>
<g>
</g>
<g>
</g>
<g>
</g>
<g>
</g>
<g>
</g>
<g>
</g>
<g>
</g>
<g>
</g>
<g>
</g>
<g>
</g>
<g>
</g>
<g>
</g>
<g>
</g>
<g>
</g>
<g>
</g>
</svg>
