<?xml version="1.0" encoding="iso-8859-1"?>
<!-- Generator: Adobe Illustrator 16.0.0, SVG Export Plug-In . SVG Version: 6.00 Build 0)  -->
<!DOCTYPE svg PUBLIC "-//W3C//DTD SVG 1.1//EN" "http://www.w3.org/Graphics/SVG/1.1/DTD/svg11.dtd">
<svg version="1.1" id="Capa_1" xmlns="http://www.w3.org/2000/svg" xmlns:xlink="http://www.w3.org/1999/xlink" x="0px" y="0px"
	 width="591.866px" height="591.866px" viewBox="0 0 591.866 591.866" style="enable-background:new 0 0 591.866 591.866;"
	 xml:space="preserve">
<g>
	<g>
		<path fill="#9FBF62" d="M255.496,369.755c0.673,0.375,1.359,0.714,2.04,1.069c0.682,0.358,1.354,0.729,2.04,1.068
			c5.765,2.856,11.779,5.084,17.94,6.59c0.677,0.167,1.358,0.293,2.04,0.444c0.677,0.146,1.358,0.273,2.04,0.404
			c4.867,0.93,9.792,1.473,14.745,1.473c2.31,0,4.599-0.123,6.867-0.335c0.685-0.065,1.358-0.191,2.04-0.277
			c0.681-0.086,1.362-0.176,2.04-0.277c6.189-0.942,12.19-2.692,17.939-5.206c0.678-0.298,1.371-0.559,2.04-0.881
			c0.686-0.327,1.358-0.69,2.04-1.037c5.361-2.75,10.485-6.136,15.259-10.244c21.869-18.817,32.028-50.136,25.28-77.929
			c-5.565-22.926-21.326-38.581-44.387-44.084c-7.491-1.787-15.255-2.885-23.081-3.26l-3.672-0.175l-0.208-3.668
			c-0.379-6.671-4.072-13.794-13.297-13.794c-0.792,0-1.62,0.053-2.464,0.155c-30.004,3.66-55.166,19.033-67.312,41.126
			c-10.922,19.865-10.727,42.914,0.567,66.643C224.623,345.695,238.813,360.416,255.496,369.755z M253.317,285.657
			c9.829-11.469,29.258-12.799,43.016-12.799c3.635,0,7.063,0.102,9.931,0.204c14.365,0.502,30.857,4.243,30.869,28.899
			c0.009,15.512-6.731,28.666-18.972,37.038c-7.523,5.145-15.541,7.756-23.828,7.756c-5.443,0-10.612-1.114-15.422-3.04
			c-2.962-1.183-5.77-2.696-8.438-4.435c-9.984-6.508-17.772-16.414-22.224-26.291l-0.31-0.686l-0.044-0.751
			c-0.021-0.318-0.025-0.637-0.033-0.95c-0.008-0.331-0.004-0.665-0.057-1.017C246.284,299.754,248.136,291.704,253.317,285.657z"/>
		<path fill="#9FBF62" d="M257.96,7.813c-0.253-4.484-3.219-8.438-9.004-7.731c-25.802,3.146-43.13,24.753-30.971,50.298
			c10.559,22.187,39.461,33.55,59.751,16.087c18.898-16.263,17.479-50.788-9.221-57.161C265.027,8.475,261.481,7.985,257.96,7.813z
			 M263.844,53.179c-11.493,7.858-23.619-0.392-28.294-10.771c-0.021-0.347-0.004-0.681-0.057-1.04
			c-2.252-14.521,14.296-14.431,24.039-14.093c7.76,0.273,11.926,2.881,11.93,10.992C271.461,44.358,268.846,49.76,263.844,53.179z"
			/>
		<path fill="#9FBF62" d="M514.536,148.484c13.321-11.465,12.322-35.806-6.499-40.298c-2.46-0.587-4.962-0.934-7.442-1.053
			c-0.179-3.162-2.269-5.949-6.348-5.451c-18.189,2.22-30.404,17.45-21.837,35.459C479.856,152.784,500.232,160.793,514.536,148.484
			z M501.701,120.85c5.471,0.191,8.404,2.032,8.408,7.752c0.004,4.292-1.844,8.103-5.369,10.514
			c-8.103,5.541-16.65-0.278-19.947-7.593c-0.016-0.245,0-0.481-0.04-0.734C483.165,120.552,494.833,120.609,501.701,120.85z"/>
		<path fill="#9FBF62" d="M172.276,67.035c13.321-11.465,12.322-35.806-6.5-40.298c-2.46-0.587-4.961-0.934-7.442-1.052
			c-0.179-3.162-2.268-5.949-6.348-5.451c-18.189,2.22-30.404,17.45-21.836,35.459C137.597,71.339,157.972,79.344,172.276,67.035z
			 M142.533,50.07c-0.016-0.245,0-0.481-0.041-0.734c-1.587-10.236,10.082-10.175,16.948-9.935c5.471,0.192,8.405,2.032,8.409,7.752
			c0,4.292-1.844,8.103-5.369,10.514C154.382,63.204,145.83,57.39,142.533,50.07z"/>
		<path fill="#9FBF62" d="M189.241,347.801c-25.802,3.146-43.13,24.753-30.971,50.298c6.193,13.016,18.707,22.244,32.081,24.178v37.618
			c0,2.391,0.591,4.602,1.64,6.36c1.114,2.538,3.117,4.5,5.949,5.826c22.011,10.298,45.072,20.184,68.568,29.393v77.703
			c0,8.332,6.564,12.689,13.052,12.689c6.483,0,13.048-4.357,13.048-12.689v-77.499l24.329-17.381
			c6.773-0.367,12.371-6.186,12.371-13.027c0-0.616-0.069-1.22-0.163-1.812c0.086-0.596,0.163-1.199,0.163-1.856v-24.929h72.285
			c3.076,0,5.757-0.906,7.96-2.688c4.406-2.105,6.924-6.202,6.924-11.281v-11.832c30.327-7.924,60.731-15.37,90.396-22.122
			c2.95-0.673,5.296-2.102,6.977-4.247c3.48-2.293,5.39-5.985,5.39-10.429v-70.829c-0.673,0.384-1.358,0.723-2.04,1.081
			c-0.681,0.359-1.354,0.747-2.039,1.082c-5.847,2.872-11.857,4.888-17.94,6.156c-0.682,0.143-1.358,0.326-2.04,0.449
			c-0.677,0.122-1.358,0.199-2.04,0.306v52.853c-25.896,5.969-51.669,12.269-76.663,18.735V371.24
			c8.018,0.15,16.128-2.371,23.195-8.454c18.898-16.263,17.479-50.788-9.221-57.16c-3.489-0.833-7.034-1.322-10.556-1.489
			c-0.253-4.484-3.219-8.438-9.004-7.732c-25.803,3.146-43.13,24.754-30.972,50.299c2.562,5.386,6.222,10.114,10.559,13.97
			c-0.024,0.359-0.105,0.682-0.105,1.057v54.848h-61.065v-39.151c-0.673,0.322-1.358,0.591-2.04,0.894
			c-0.678,0.302-1.358,0.575-2.04,0.853c-5.875,2.407-11.881,4.022-17.939,4.888c-0.682,0.098-1.359,0.184-2.041,0.261
			c-0.681,0.078-1.358,0.204-2.039,0.262v31.073H281.6v-32.171c-0.681-0.127-1.363-0.266-2.04-0.404
			c-0.677-0.143-1.363-0.249-2.04-0.403c-6.145-1.437-12.154-3.566-17.939-6.288c-0.686-0.322-1.363-0.665-2.04-1.003
			c-0.686-0.343-1.363-0.71-2.04-1.069v52.559c0,3.076,0.901,5.753,2.685,7.964c2.109,4.402,6.206,6.92,11.281,6.92h33.746v17.499
			l-22.542,17.34c-0.84,0.058-1.652,0.208-2.334,0.429c-0.669,0.057-1.362,0.171-2.105,0.351
			c-20.115-7.846-40.212-16.389-59.776-25.406v-36.116c0-0.158-0.041-0.293-0.045-0.448c0.535-0.412,1.085-0.763,1.612-1.216
			c18.898-16.263,17.479-50.788-9.221-57.161c-3.488-0.832-7.034-1.321-10.555-1.489
			C197.989,351.048,195.022,347.095,189.241,347.801z M421.467,323.581c7.76,0.273,11.926,2.881,11.93,10.992
			c0.004,6.091-2.615,11.493-7.617,14.912c-4.733,3.235-9.567,3.709-13.954,2.456c-1.489-1.122-3.219-1.889-5.059-2.31
			c-4.011-2.57-7.312-6.548-9.282-10.922c-0.021-0.347-0.004-0.682-0.057-1.04C395.175,323.157,411.724,323.243,421.467,323.581z
			 M211.742,385.985c0.004,6.091-2.615,11.493-7.617,14.912c-11.493,7.858-23.619-0.392-28.295-10.771
			c-0.021-0.347-0.004-0.681-0.057-1.04c-2.252-14.521,14.296-14.431,24.04-14.093C207.573,375.263,211.738,377.874,211.742,385.985
			z"/>
		<path fill="#9FBF62" d="M52.406,162.547c10.559,22.191,39.461,33.55,59.751,16.087c18.898-16.263,17.479-50.792-9.221-57.161
			c-3.488-0.833-7.034-1.322-10.555-1.489c-0.253-4.484-3.219-8.438-9.004-7.731C57.58,115.395,40.252,137.002,52.406,162.547z
			 M93.953,139.438c7.76,0.273,11.926,2.88,11.93,10.996c0.004,6.091-2.615,11.489-7.618,14.912
			c-11.493,7.858-23.619-0.392-28.294-10.771c-0.021-0.347-0.004-0.681-0.057-1.041C67.661,139.014,84.209,139.1,93.953,139.438z"/>
		<path fill="#9FBF62" d="M363.364,173.343c-3.488-0.833-7.034-1.322-10.555-1.489c-0.253-4.484-3.22-8.438-9.005-7.731
			c-25.802,3.146-43.13,24.749-30.972,50.298c10.56,22.191,39.462,33.55,59.752,16.088
			C391.479,214.245,390.059,179.716,363.364,173.343z M358.692,217.215c-11.493,7.858-23.619-0.392-28.295-10.771
			c-0.02-0.347-0.004-0.682-0.057-1.041c-2.252-14.521,14.296-14.431,24.039-14.092c7.761,0.273,11.926,2.884,11.93,10.996
			C366.309,208.395,363.69,213.796,358.692,217.215z"/>
		<path fill="#9FBF62" d="M555.022,218.966c-5.565-22.926-21.326-38.581-44.387-44.084c-7.49-1.787-15.255-2.885-23.08-3.26l-3.672-0.176
			l-0.208-3.668c-0.38-6.67-4.072-13.794-13.297-13.794c-0.792,0-1.62,0.053-2.465,0.155c-30.004,3.66-55.165,19.033-67.312,41.126
			c-10.922,19.865-10.727,42.913,0.567,66.643c15.152,31.844,47.442,53.241,80.347,53.241c3.934,0,7.81-0.363,11.624-0.979
			c0.682-0.11,1.363-0.208,2.04-0.335c0.686-0.13,1.359-0.317,2.04-0.469c6.223-1.383,12.228-3.586,17.94-6.589
			c0.685-0.359,1.366-0.723,2.039-1.106c0.682-0.383,1.371-0.742,2.041-1.15c3.643-2.215,7.156-4.749,10.501-7.625
			C551.611,278.077,561.77,246.759,555.022,218.966z M503.336,273.348c-7.523,5.145-15.541,7.756-23.827,7.756
			c-21.326,0-38.512-16.96-46.084-33.77l-0.31-0.686l-0.045-0.75c-0.021-0.322-0.029-0.637-0.033-0.955
			c-0.008-0.33-0.004-0.665-0.057-1.016c-1.526-9.829,0.33-17.879,5.508-23.929c9.829-11.469,29.258-12.799,43.016-12.799
			c3.635,0,7.062,0.102,9.931,0.204c14.365,0.502,30.856,4.243,30.869,28.899C522.321,251.822,515.581,264.976,503.336,273.348z"/>
		<path fill="#9FBF62" d="M456.147,65.558c-5.565-22.925-21.326-38.581-44.386-44.08c-7.487-1.787-15.256-2.885-23.081-3.26l-3.672-0.175
			L384.8,14.37c-0.38-6.671-4.072-13.794-13.297-13.794c-0.792,0-1.62,0.053-2.46,0.155c-30.005,3.66-55.166,19.033-67.312,41.126
			c-10.922,19.866-10.727,42.914,0.567,66.643c15.153,31.845,47.442,53.24,80.348,53.24c17.67,0,34.346-6.312,48.226-18.258
			C452.732,124.665,462.891,93.351,456.147,65.558z M404.461,119.936c-7.523,5.145-15.54,7.756-23.827,7.756
			c-21.326,0-38.511-16.96-46.083-33.77l-0.311-0.686l-0.045-0.75c-0.021-0.318-0.028-0.637-0.032-0.951
			c-0.009-0.334-0.005-0.665-0.058-1.016c-1.525-9.829,0.331-17.882,5.508-23.929c9.829-11.469,29.254-12.795,43.012-12.795
			c3.635,0,7.062,0.102,9.935,0.204c14.366,0.502,30.857,4.243,30.869,28.899C423.442,98.41,416.706,111.564,404.461,119.936z"/>
		<path fill="#9FBF62" d="M221.779,227.061c17.67,0,34.345-6.312,48.226-18.258c21.869-18.821,32.028-50.135,25.279-77.928
			c-5.565-22.926-21.326-38.581-44.386-44.081c-7.487-1.787-15.255-2.884-23.081-3.26l-3.672-0.175l-0.208-3.668
			c-0.379-6.671-4.072-13.794-13.297-13.794c-0.792,0-1.62,0.053-2.464,0.155c-30.004,3.66-55.166,19.033-67.312,41.126
			c-10.922,19.866-10.727,42.914,0.567,66.643C156.589,205.665,188.878,227.061,221.779,227.061z M178.755,131.911
			c9.829-11.469,29.254-12.799,43.012-12.799c3.635,0,7.062,0.102,9.935,0.204c14.366,0.502,30.857,4.243,30.869,28.898
			c0.008,15.512-6.732,28.666-18.972,37.038c-7.523,5.145-15.541,7.756-23.827,7.756c-21.326,0-38.511-16.96-46.084-33.77
			l-0.31-0.686l-0.045-0.751c-0.02-0.318-0.024-0.636-0.032-0.95c-0.008-0.335-0.004-0.665-0.057-1.016
			C171.722,146.007,173.574,137.958,178.755,131.911z"/>
		<path fill="#9FBF62" d="M43.397,302.198c15.153,31.845,47.442,53.24,80.348,53.24c17.67,0,34.345-6.312,48.226-18.259
			c21.869-18.816,32.028-50.135,25.279-77.928c-5.565-22.925-21.326-38.58-44.386-44.084c-7.487-1.787-15.255-2.885-23.081-3.26
			l-3.672-0.175l-0.208-3.668c-0.379-6.671-4.072-13.794-13.297-13.794c-0.792,0-1.62,0.053-2.464,0.155
			c-30.004,3.66-55.166,19.033-67.312,41.126C31.908,255.42,32.104,278.464,43.397,302.198z M80.717,260.292
			c9.829-11.469,29.258-12.799,43.016-12.799c3.635,0,7.062,0.102,9.931,0.204c14.366,0.501,30.857,4.243,30.869,28.898
			c0.008,15.512-6.732,28.667-18.972,37.039c-7.527,5.145-15.541,7.756-23.827,7.756c-21.326,0-38.511-16.961-46.083-33.771
			l-0.31-0.685l-0.045-0.751c-0.021-0.318-0.024-0.636-0.033-0.951c-0.008-0.33-0.004-0.665-0.057-1.016
			C73.683,274.389,75.54,266.338,80.717,260.292z"/>
	</g>
</g>
<g>
</g>
<g>
</g>
<g>
</g>
<g>
</g>
<g>
</g>
<g>
</g>
<g>
</g>
<g>
</g>
<g>
</g>
<g>
</g>
<g>
</g>
<g>
</g>
<g>
</g>
<g>
</g>
<g>
</g>
</svg>
