<?xml version="1.0" encoding="iso-8859-1"?>
<!-- Generator: Adobe Illustrator 16.0.0, SVG Export Plug-In . SVG Version: 6.00 Build 0)  -->
<!DOCTYPE svg PUBLIC "-//W3C//DTD SVG 1.1//EN" "http://www.w3.org/Graphics/SVG/1.1/DTD/svg11.dtd">
<svg version="1.1" id="Capa_1" xmlns="http://www.w3.org/2000/svg" xmlns:xlink="http://www.w3.org/1999/xlink" x="0px" y="0px"
	 width="586.904px" height="586.904px" viewBox="0 0 586.904 586.904" style="enable-background:new 0 0 586.904 586.904;"
	 xml:space="preserve">
<g>
	<g>
		<path d="M289.819,568.969c0,11.773,9.262,17.936,18.405,17.936c9.147,0,18.409-6.166,18.409-17.936v-84.771
			c8.384-13.035,19.942-23.125,32.162-33.789c4.978-4.338,10.119-8.83,14.986-13.51c34.618-33.248,33.786-82.252,33.056-125.484
			c-0.105-6.316-0.216-12.562-0.216-18.682V186.439c0-11.775-9.262-17.936-18.405-17.936c-9.147,0-18.409,6.165-18.409,17.936
			v68.719l-13.558-9.38c-27.434-18.98-27.353-41.424-27.246-72.493l0.017-79.968c0-11.779-9.262-17.939-18.405-17.939
			c-9.147,0-18.409,6.165-18.409,17.939v111.025c0,0.417,0.037,0.796,0.106,1.343c-3.925,42.518,36.521,68.262,69.039,88.964
			c2.88,1.831,5.708,3.636,8.453,5.413v58.287c0,0.225,0.013,0.434,0.037,0.621l-1.212,13.334c-0.106,1.17-0.062,2.357,0.139,3.617
			c-2.982,20.051-20.277,34.959-35.549,48.129l-2.33,2.016c-0.755,0.648-1.477,1.277-2.179,1.896
			c0.425-12.24-1.656-27.598-1.693-27.826c-2.121-13.557-9.942-23.027-17.503-32.186c-1.771-2.139-3.562-4.312-5.316-6.564
			l-76.655-98.623v-95.427c0-11.775-9.262-17.936-18.405-17.936c-9.144,0-18.405,6.165-18.405,17.936
			c0,9.27-0.665,19.106-1.371,29.515c-2.231,32.942-4.761,70.286,15.512,96.365l65.721,84.559c1.159,1.484,3.121,3.578,5.606,6.227
			c3.966,4.227,13.256,14.129,13.619,17.098v36.68c-3.228-2.166-7.724-5.051-13.995-9.041c-6.867-4.365-15.41-9.797-16.858-11.203
			c-19.499-18.916-19.494-34.855-19.486-61.266v-1.506c0-11.775-9.257-17.936-18.405-17.936s-18.409,6.16-18.409,17.939v2.967
			c-0.029,29.408-0.053,50.656,20.873,75.635c16.373,19.482,46.145,37.854,66.973,47.838c3.464,7.32,0.938,54.795-0.024,72.861
			C290.1,561.359,289.819,566.617,289.819,568.969z M293.899,446.176L293.899,446.176L293.899,446.176L293.899,446.176z"/>
		<path d="M417.584,37.03C381.064,12.803,338.367,0,294.111,0c-44.031,0-87.202,12.591-124.832,36.406
			C90.902,86.01,51.518,178.071,63.917,282.667C75.284,378.51,131.829,500.955,253.792,530.6c1.901,0.461,3.811,0.697,5.675,0.697
			c12.889,0,20.873-10.371,22.101-20.615c1.367-11.396-5.186-20.865-16.304-23.566c-105.599-25.668-151.303-137.35-158.357-225.188
			c-4.17-51.918,7.634-99.646,34.133-138.014c22.824-33.052,59.874-59.425,101.653-72.375c15.773-4.888,32.256-7.369,48.997-7.369
			c68.006,0,135.408,41.506,167.717,103.277c44.235,84.566,21.819,214.323-49.968,289.256
			c-17.018,17.768-38.018,32.105-60.735,41.457c-10.575,4.354-16.364,15.467-14.08,27.025c2.064,10.438,9.898,17.441,19.49,17.445
			c0.004,0,0.004,0,0.004,0c2.771,0,5.603-0.592,8.417-1.75c86.215-35.504,146.016-121.943,159.969-231.221
			C536.198,182.425,497.953,90.347,417.584,37.03z"/>
	</g>
</g>
<g>
</g>
<g>
</g>
<g>
</g>
<g>
</g>
<g>
</g>
<g>
</g>
<g>
</g>
<g>
</g>
<g>
</g>
<g>
</g>
<g>
</g>
<g>
</g>
<g>
</g>
<g>
</g>
<g>
</g>
</svg>
