<?xml version="1.0" encoding="iso-8859-1"?>
<!-- Generator: Adobe Illustrator 16.0.0, SVG Export Plug-In . SVG Version: 6.00 Build 0)  -->
<!DOCTYPE svg PUBLIC "-//W3C//DTD SVG 1.1//EN" "http://www.w3.org/Graphics/SVG/1.1/DTD/svg11.dtd">
<svg version="1.1" id="Capa_1" xmlns="http://www.w3.org/2000/svg" xmlns:xlink="http://www.w3.org/1999/xlink" x="0px" y="0px"
	 width="577.427px" height="577.427px" viewBox="0 0 577.427 577.427" style="enable-background:new 0 0 577.427 577.427;"
	 xml:space="preserve">
<g>
	<g>
		<path fill="#9FBF62" d="M565.445,210.246c-5.61-3.578-12.525-4.28-19.89-2.644c10.779-74.586-10.82-138.818-50.988-146.762
			c-15.725-3.109-32.102,2.864-47.315,15.643c-4.839-35.027-21.742-61.208-45.709-65.382c-24.684-4.3-50.204,15.912-66.568,48.931
			C319.555,23.753,293.961,0,264.974,0c-36.243,0-67.186,37.12-79.552,89.454c-15.712-35.022-43.26-56.5-66.28-49.478
			c-22.167,6.761-33.02,37.805-27.989,73.873c-19.555-12.591-39.943-16.557-57.124-9.037
			c-36.675,16.046-44.839,78.336-18.242,139.128c9.596,21.93,22.412,40.645,36.589,54.888c-14.655,3.276-25.79,10.747-30.518,22.023
			c-10.69,25.505,15.43,60.76,58.344,78.748c29.274,12.269,58.776,13.317,77.981,4.655c40.78,34.651,82.792,69.308,137.5,76.386
			c1.032,7.903,1.559,15.941,1.424,24.154c-0.028,1.827,0.266,3.439,0.689,4.948c0.118,18.115,0.604,42.555,1.126,51.947
			c1.167,20.926,33.812,21.04,32.641,0c-2.379-42.677-2.815-112.184,28.434-144.983c23.011-24.149,52.709-40.449,76.043-64.296
			c0.273,0.061,0.538,0.146,0.812,0.199c23.444,4.635,48.328-10.89,68.658-39.127c16.798,5.863,41.457-8.005,57.732-33.517
			C581.05,252.042,582.038,220.83,565.445,210.246z M264.974,280.161c32.113,0,60.074-29.144,74.63-72.191
			c2.399,2.697,4.949,5.12,7.675,7.156c-8.638,45.19-32.109,91.633-73.696,110.621c-0.531-1.379-1.098-2.75-1.616-4.133
			c-5.047-13.464-7.85-27.36-9.111-41.543C263.562,280.096,264.264,280.161,264.974,280.161z M154.091,301.871
			c2.509-4.688,4.619-9.816,6.198-15.415c13.815,13.864,29.735,20.453,43.946,16.12c11.562-3.524,20.053-13.659,24.827-27.662
			c0.693,14.574,2.827,28.932,7.156,42.95c5.949,19.274,14.092,37.936,22.493,56.521c-20.759-15.826-42.955-30.114-66.239-45.133
			C179.465,320.863,166.523,311.688,154.091,301.871z M179.073,379.473c1.302-7.373-0.016-15.288-3.57-23.231
			c16.756,10.971,33.856,21.366,50.739,32.436c23.129,15.165,43.77,34.595,61.355,56.06c0.208,0.669,0.392,1.342,0.596,2.016
			C246.275,438.335,211.375,407.506,179.073,379.473z M387.377,352.418c-25.896,20.73-52.693,38.731-70.972,67.141
			c-0.751,1.163-1.379,2.379-2.073,3.565c-8.176-22.791-18.515-45.002-28.306-67.389c51.501-23.673,81.844-77.814,92.929-133.135
			c1.714-0.327,3.42-0.792,5.121-1.33c-4.125,47.495,5.096,89.201,23.811,112.502C401.58,340.305,394.746,346.514,387.377,352.418z"
			/>
	</g>
</g>
<g>
</g>
<g>
</g>
<g>
</g>
<g>
</g>
<g>
</g>
<g>
</g>
<g>
</g>
<g>
</g>
<g>
</g>
<g>
</g>
<g>
</g>
<g>
</g>
<g>
</g>
<g>
</g>
<g>
</g>
</svg>
