<?xml version="1.0" encoding="iso-8859-1"?>
<!-- Generator: Adobe Illustrator 16.0.0, SVG Export Plug-In . SVG Version: 6.00 Build 0)  -->
<!DOCTYPE svg PUBLIC "-//W3C//DTD SVG 1.1//EN" "http://www.w3.org/Graphics/SVG/1.1/DTD/svg11.dtd">
<svg version="1.1" id="Capa_1" xmlns="http://www.w3.org/2000/svg" xmlns:xlink="http://www.w3.org/1999/xlink" x="0px" y="0px"
	 width="561.033px" height="561.032px" viewBox="0 0 561.033 561.032" style="enable-background:new 0 0 561.033 561.032;"
	 xml:space="preserve">
<g>
	<g>
		<path fill="#93C281" d="M51.016,393.72h192.866l-4.378,146.301c-0.163,5.512,1.91,10.861,5.753,14.818c3.843,3.958,9.123,6.193,14.639,6.193
			h52.403c5.512,0,10.792-2.231,14.631-6.185c3.839-3.954,5.92-9.295,5.761-14.803l-4.215-146.325h181.54
			c22.534,0,40.8-18.266,40.8-40.8V40.8c0-22.534-18.266-40.8-40.8-40.8h-459c-22.534,0-40.8,18.266-40.8,40.8v312.12
			C10.216,375.454,28.482,393.72,51.016,393.72z M312.295,540.633h-52.404l4.398-146.913l1.118-37.422
			c-0.991-1.142-1.795-2.57-2.297-4.337c-7.376-25.978-49.445-29.633-71.649-34.484c-0.975,0.286-2.028,0.481-3.207,0.481
			c-0.179,0-0.367-0.004-0.551-0.012c-1.876-0.094-3.668-0.163-5.406-0.163c-6.026,0-11.363,0.832-17.083,4.337
			c-5.479,3.357-11.44,6.618-17.707,8.282c-6.65,1.767-13.138,2.619-19.674,2.619c-5.182,0-10.392-0.534-15.741-1.579
			c-13.125-2.558-8.666-21.514,3.468-21.514c0.771,0,1.571,0.078,2.399,0.237c3.043,0.591,5.887,0.86,8.588,0.86
			c8.327,0,15.316-2.558,22.819-6.066c-10.27-4.305-20.065-9.731-29.241-16.933c-8.874-6.96-0.808-18.156,8.425-18.156
			c2.407,0,4.892,0.759,7.177,2.554c24.603,19.298,57.267,21.901,86.549,29.4c18.339,4.7,38.405,11.175,51.151,24.9
			c2.954-18.025,3.105-36.1,0.628-54.436c-0.412-3.044-0.784-6.059-1.106-9.058c-1.881-1.95-4.517-2.722-7.556-2.726
			c-10.371,0-25.516,8.984-32.028,10.979c-10.653,3.268-21.91,5.557-33.101,5.716c-0.657,0.008-1.318,0.012-1.975,0.012
			c-22.102,0-43.118-5.353-62.506-16.124c-10.575-5.875-4.112-20.539,5.716-20.539c1.73,0,3.558,0.453,5.422,1.489
			c3.656,2.032,7.438,3.814,11.297,5.394c-5.194-5.035-10.702-9.686-17.267-12.868c-18.919-9.176-39.38-10.049-52.852-27.936
			c-6.035-8.013,1.693-15.826,9.743-15.826c3.378,0,6.814,1.375,9.311,4.692c6.03,8.005,17.458,9.625,26.39,12.514
			c9.082,2.938,18.295,6.552,26.226,11.95c7.985,5.435,15.308,11.436,21.747,18.666c5.349,6.006,10.232,12.464,18.323,14.61
			c1.473,0.392,2.676,1.016,3.717,1.758c9.551-0.628,19.029-2.648,28.099-6.246c10.743-4.264,24.219-9.58,36.377-9.58
			c1.032,0,2.056,0.037,3.068,0.118c-3.264-12.056-22.787-15.851-33.117-17.723c-12.514-2.269-24.594-5.06-36.443-9.76
			c-3.337-1.326-6.593-2.839-9.755-4.5c-13.929-0.755-27.916-1.261-41.804-2.562c-8.866-0.833-19.185-3.493-25.529-10.27
			c-7.731-8.262-12.081-18.283-14.129-29.388c-1.991-10.816-2.783-22.856-10.857-31.082c-7.687-7.83-0.175-18.907,8.237-18.907
			c2.501,0,5.08,0.975,7.365,3.305c13.77,14.027,12.627,31.171,18.413,48.63c4.174,12.599,11.795,15.553,24.354,16.267
			c1.717,0.098,3.435,0.196,5.157,0.294c-3.537-4.562-6.605-9.519-9.074-14.884c-4.056-8.809,3.639-16.858,10.784-16.858
			c3.26,0,6.405,1.677,8.27,5.724c15.329,33.301,48.303,36.414,79.78,44.529c8.776,2.261,17.136,5.957,23.966,11.049
			c2.436-7.156,4.61-15.19,2.562-21.799c-2.163-6.973-7.026-11.967-9.845-18.544c-6.361-14.839-6.838-29.282-5.81-45.251
			c0.457-7.075,6.218-10.628,11.742-10.628c5.508,0,10.78,3.529,10.323,10.628c-0.588,9.127-1.914,19.519,0.845,28.425
			c2.57,8.303,7.968,14.831,11.599,22.636c1.073,2.305,1.849,4.659,2.428,7.038c16.206-17.744,33.644-34.868,34.101-59.009
			c0.135-7.107,5.725-10.669,11.241-10.669c5.516,0,10.958,3.554,10.824,10.669c-0.792,41.996-37.838,60.486-55.921,93.779
			c-6.834,12.579-7.185,25.015-6.059,37.785c0.036,0.298,0.065,0.591,0.073,0.881c0.6,6.458,1.534,13.007,2.195,19.703
			c-0.833-8.483,7.833-24.183,10.763-32.277c4.035-11.155,8.515-22.199,14.268-32.595c16.124-29.144,41.167-47.52,68.471-65.259
			c13.231-8.597,15.7-22.041,18.188-36.651c0.951-5.582,4.9-7.993,9.156-7.993c6.422,0,13.545,5.488,12.117,13.86
			c-1.804,10.591-4.182,20.873-9.054,29.935c13.023-5.451,25.275-12.093,35.361-22.24c2.289-2.301,4.867-3.268,7.364-3.268
			c8.458,0,15.985,11.077,8.233,18.87c-28.364,28.527-70.054,28.646-101.734,50.959c-30.641,21.579-40.968,58.952-52.358,93.836
			c6.883-5.321,14.316-9.947,21.86-13.783c9.054-4.598,19.168-8.939,29.131-13.77c0.253-0.869,0.592-1.746,1.098-2.636
			c5.712-10.016,1.15-23.17,2.872-34.182c1.759-11.236,6.785-20.535,14.554-28.764c2.269-2.399,4.843-3.407,7.344-3.407
			c8.295,0,15.753,11.069,8.254,19.009c-9.567,10.135-8.584,22.852-8.923,35.517c12.126-8.695,21.946-19.601,26.243-34.721
			c1.546-5.435,5.842-7.789,10.216-7.789c6.618,0,13.407,5.394,11.061,13.652c-9.139,32.154-37.263,50.73-65.974,64.248
			c-10.991,5.173-23.741,10.864-35.308,17.98c0.077-0.013,0.155-0.029,0.232-0.041c3.709-0.53,7.87-0.682,12.285-0.682
			c6.173,0,12.848,0.302,19.502,0.302c9.413,0,18.784-0.604,26.639-3.509c0.053-0.024,0.109-0.041,0.167-0.065
			c6.418-2.407,11.812-6.36,15.357-12.819c2.117-3.859,5.401-5.458,8.727-5.458c7.426,0,15.052,7.976,10.322,16.597
			c-1.876,3.423-4.002,6.332-6.299,8.887c12.786,8.711,22.35,22.325,37.364,29.343c11.167,5.219,4.227,20.204-6.161,20.204
			c-1.595,0-3.271-0.354-4.978-1.15c-9.118-4.26-16.434-10.935-23.476-18.009c-7.336-7.368-15.202-15.985-26.304-16.308
			c-0.486-0.013-0.91-0.114-1.363-0.176c-12.407,2.889-26.304,2.619-39.739,3.121c0.743,0.727,1.51,1.428,2.203,2.203
			c10.914,12.195,19.707,23.37,36.402,27.369c12.84,3.076,8.706,21.624-3.012,21.624c-0.909,0-1.86-0.11-2.852-0.352
			c-12.856-3.08-25.178-9.665-34.272-19.425c-10.607-11.383-18.262-21.032-32.807-25.019c-7.915,3.791-14.664,9.854-19.49,19.715
			c-0.575,1.175-1.285,2.081-2.044,2.868c0.09,0.812,0.167,1.637,0.167,2.51l1.285,44.663L312.295,540.633z"/>
	</g>
</g>
<g>
</g>
<g>
</g>
<g>
</g>
<g>
</g>
<g>
</g>
<g>
</g>
<g>
</g>
<g>
</g>
<g>
</g>
<g>
</g>
<g>
</g>
<g>
</g>
<g>
</g>
<g>
</g>
<g>
</g>
</svg>
