<?xml version="1.0" encoding="iso-8859-1"?>
<!-- Generator: Adobe Illustrator 16.0.0, SVG Export Plug-In . SVG Version: 6.00 Build 0)  -->
<!DOCTYPE svg PUBLIC "-//W3C//DTD SVG 1.1//EN" "http://www.w3.org/Graphics/SVG/1.1/DTD/svg11.dtd">
<svg version="1.1" id="Capa_1" xmlns="http://www.w3.org/2000/svg" xmlns:xlink="http://www.w3.org/1999/xlink" x="0px" y="0px"
	 width="588.874px" height="588.874px" viewBox="0 0 588.874 588.874" style="enable-background:new 0 0 588.874 588.874;"
	 xml:space="preserve">
<g>
	<g>
		<path fill="#658744" d="M148.906,77.683c-5.19,0.93-9.017,3.921-10.751,8.331c-18.858,10.171-34.909,31.604-29.253,57.667
			c4.659,21.494,20.824,37.568,42.566,42.632l1.853,77.149c0.11,4.586,1.979,8.613,5.279,11.403
			c0.351,0.453,0.714,0.902,1.146,1.326c23.554,23.256,51.204,40.604,82.257,51.779v121.417
			c-26.858-9.968-50.037-35.859-54.088-61.114c14.806-8.817,24.121-24.766,24.174-42.126c0.086-27.019-25.602-46.186-48.711-46.496
			l-0.547-0.004c-21.844,0-45.692,19.417-46.365,48.319c-0.563,24.239,19.947,42.562,41.159,46.54
			c6.728,39.43,42.008,75.786,84.378,86.855v92.31c0,8.666,6.634,15.202,15.439,15.202s15.438-6.536,15.438-15.202V458.551
			c31.628-12.799,61.249-27.218,80.67-55.227c6.834-9.854,11.444-17.463,14.558-24.35c27.377-8.331,50.302-27.234,63.611-52.812
			c17.527-33.672,13.019-73.632,9.266-105.892c5.744-1.485,11.138-3.742,16.079-6.728c27.025-16.349,29.869-52.938,15.565-76.855
			c-9.013-15.067-26.019-24.064-45.488-24.064c-5.418,0-10.775,0.714-15.933,2.118c-4.088-1.444-8.563-0.914-12.603,1.559
			c-27.422,16.765-36.622,49.454-21.869,77.724c6.793,13.015,18.352,22.22,32.778,26.189c0.013,0.126,0.025,0.253,0.041,0.383
			c3.076,26.442,6.564,56.41-2.717,84.309c-5.215,15.676-17.051,28.973-32.656,37.549c-0.037-3.351-0.119-6.965-0.221-10.931
			c14.855-6.695,26.377-22.652,27.915-39.788c2.224-24.868-19.225-43.525-40.481-46.68c-0.987-0.208-1.958-0.318-2.95-0.338
			c-1.175-0.078-2.26-0.008-3.28,0.143c-23.035,1.53-41.224,19.515-43.325,42.926c-1.881,21,13.529,37.903,31.253,44.326
			c0.686,27.009,0.551,27.78-14.26,52.603c-11.489,19.258-32.518,30.687-55.957,40.593V292.756
			c27.491-3.035,49.959-22.525,55.953-49.461c3.745-16.826,0.498-34.011-9.074-48.552l16.014-16.716
			c2.195-2.289,3.542-5.12,4.056-8.062c0.979-1.926,1.588-4.182,1.588-6.838v-49.956c3.121-0.645,6.214-1.505,9.225-2.701
			c28.486-11.33,42.158-46.067,31.767-74.264C371.759,7.328,336.969-6.585,308.699,3.019c-1.285,0.437-2.407,1.012-3.436,1.652
			c-1.351,0.359-2.717,0.861-4.104,1.693c-24.745,14.827-37.042,46.39-25.422,73.562c6.675,15.61,20.27,26.72,35.868,31.641
			c-0.024,0.367-0.106,0.693-0.106,1.077v47.487l-13.447,14.035c-7.026-4.129-14.77-7.018-22.917-8.291
			c-3.333-0.522-6.712-0.788-10.041-0.788c-31.469,0-58.516,23.264-64.313,55.316c-5.37,29.699,12.493,60.303,41.224,72.245v1.657
			c-21.175-9.017-40.445-21.669-57.438-37.862l-1.709-71.18c26.292-9.086,39-40.735,34.345-65.949
			C211.301,87.369,175.764,72.893,148.906,77.683z M141.354,125.117c3.791-7.724,11.257-13.566,18.584-14.545
			c2.407-0.322,4.626-1.126,6.622-2.395c11.942,2.379,18.556,13.072,19.674,22.358c1.387,11.534-4.488,21.037-15.712,25.418
			c-2.134,0.833-4.37,1.261-6.642,1.261c-9.755,0-18.438-7.442-22.709-14.823C137.261,135.647,139.607,128.675,141.354,125.117z
			 M268.866,196.101c8.299,0.469,15.606,3.994,21.126,10.204c6.435,7.234,9.771,17.303,9.151,27.625
			c-1.15,19.16-22.57,31.069-39.013,28.079c-3.207-0.583-6.132-0.22-8.825,0.894c-12.958-6.496-20.922-19.352-20.583-33.733
			c0.49-20.739,18.695-33.13,36.01-33.13C267.446,196.04,268.156,196.06,268.866,196.101z M163.883,330.504
			c0.302-0.024,0.604-0.036,0.902-0.036c7.731,0,15.724,7.947,16.455,16.356c0.763,8.809-8.168,16.826-15.985,17.589
			c-0.065,0.004-0.131,0.013-0.196,0.017l-0.139-0.004c-9.266-0.307-16.997-7.691-17.601-16.802
			C146.743,338.885,155.911,331.116,163.883,330.504z M366.345,299.777c-3.064,2.546-7.197,4.138-10.824,4.158
			c-7.062,0-12.799-8.458-12.836-15.463c-0.024-4.198,2.922-7.271,4.68-8.731c2.958-2.456,6.903-4.019,10.396-4.145
			c7.425,0.877,13.219,7.581,13.264,15.451C371.053,295.249,368.104,298.321,366.345,299.777z M405.251,152.306
			c1.481-0.506,2.93-1.273,4.317-2.293c10.8-7.952,24.32-8.079,33.725,0.057c4.729,4.092,7.206,10.216,6.965,17.25
			c-0.257,7.752-3.896,15.186-9.49,19.4c-4.753,3.582-9.669,5.397-14.622,5.397c-8.536,0-16.68-5.516-21.253-14.39
			C400.446,169.107,400.605,159.711,405.251,152.306z M305.207,72.195c-9.604-13.403-1.771-32.317,11.049-40
			c0.179-0.106,0.302-0.241,0.477-0.355c31.689-10.686,55.003,29.686,26.011,49.352C330.772,89.319,313.024,83.105,305.207,72.195z"
			/>
	</g>
</g>
<g>
</g>
<g>
</g>
<g>
</g>
<g>
</g>
<g>
</g>
<g>
</g>
<g>
</g>
<g>
</g>
<g>
</g>
<g>
</g>
<g>
</g>
<g>
</g>
<g>
</g>
<g>
</g>
<g>
</g>
</svg>
