<?xml version="1.0" encoding="iso-8859-1"?>
<!-- Generator: Adobe Illustrator 16.0.0, SVG Export Plug-In . SVG Version: 6.00 Build 0)  -->
<!DOCTYPE svg PUBLIC "-//W3C//DTD SVG 1.1//EN" "http://www.w3.org/Graphics/SVG/1.1/DTD/svg11.dtd">
<svg version="1.1" id="Capa_1" xmlns="http://www.w3.org/2000/svg" xmlns:xlink="http://www.w3.org/1999/xlink" x="0px" y="0px"
	 width="551.645px" height="551.645px" viewBox="0 0 551.645 551.645" style="enable-background:new 0 0 551.645 551.645;"
	 xml:space="preserve">
<g>
	<g>
		<path d="M366.933,360.574c0-33.383-17.963-62.555-44.736-78.422c22.873-15.088,37.988-40.984,37.988-70.437
			c0-36.68-23.447-67.802-56.141-79.421c24.125-10.804,40.955-34.974,40.955-63.118C344.999,30.971,314.028,0,275.823,0
			c-38.205,0-69.177,30.971-69.177,69.176c0,28.144,16.834,52.313,40.955,63.118c-32.693,11.62-56.141,42.742-56.141,79.421
			c0,29.453,15.116,55.349,37.989,70.437c-26.777,15.867-44.737,45.039-44.737,78.422c0,44.031,31.232,80.764,72.75,89.258v61.012
			h-26.52c-26.312,0-26.312,40.801,0,40.801h93.84c26.312,0,26.312-40.801,0-40.801h-26.52v-61.949
			C337.728,438.895,366.933,403.148,366.933,360.574z"/>
	</g>
</g>
<g>
</g>
<g>
</g>
<g>
</g>
<g>
</g>
<g>
</g>
<g>
</g>
<g>
</g>
<g>
</g>
<g>
</g>
<g>
</g>
<g>
</g>
<g>
</g>
<g>
</g>
<g>
</g>
<g>
</g>
</svg>
