<?xml version="1.0" encoding="iso-8859-1"?>
<!-- Generator: Adobe Illustrator 16.0.0, SVG Export Plug-In . SVG Version: 6.00 Build 0)  -->
<!DOCTYPE svg PUBLIC "-//W3C//DTD SVG 1.1//EN" "http://www.w3.org/Graphics/SVG/1.1/DTD/svg11.dtd">
<svg version="1.1" id="Capa_1" xmlns="http://www.w3.org/2000/svg" xmlns:xlink="http://www.w3.org/1999/xlink" x="0px" y="0px"
	 width="580.621px" height="580.621px" viewBox="0 0 580.621 580.621" style="enable-background:new 0 0 580.621 580.621;"
	 xml:space="preserve">
<g>
	<g>
		<path d="M69.395,274.564c2.118,2.501,5.206,3.876,8.703,3.876h30.886v24.248c0,9.062,8.809,12.855,15.304,10.971h29.865v68.405
			c0,1.061,0.139,2.077,0.441,3.175c0.967,5.744,5.471,9.583,11.297,9.583h69.936v26.875c-0.947-0.448-1.914-0.873-2.885-1.265
			c-5.52-2.224-12.672,1.592-14.684,7.401c-4.125,6.193-8.653,11.901-13.843,17.446c-1.31,1.403-2.236,3.011-2.746,4.794
			c-2.746,4.631-2.052,9.987,1.852,13.839l48.638,47.944v57.03c0,7.226,5.679,11.229,11.281,11.469
			c0.853,0.18,1.673,0.266,2.497,0.266h66.361c3.166,0,5.961-1.122,7.801-2.995c0.131-0.105,0.258-0.232,0.555-0.518l0.314-0.331
			c2.004-2.097,3.064-4.818,3.064-7.891V423.141c5.908-0.232,10.307-4.446,10.889-10.457c0.232-0.963,0.344-1.885,0.344-2.803
			v-17.36H457.61c1.752,0,3.404-0.358,4.93-1.064c5.447-0.461,10.637-4.374,10.637-11.44V266.184h28.078
			c5.014,0,9.119-2.909,10.738-7.503c1.656-2.003,2.529-4.504,2.529-7.295V45.427c0-5.773-3.863-10.29-9.514-11.269
			c-1.611-0.82-3.387-1.236-5.287-1.236h-94.689v-2.044c0-0.82-0.086-1.64-0.266-2.497c-0.049-3.138-1.232-6.104-3.283-8.222
			c-2.109-2.166-4.941-3.312-8.189-3.312h-95.455v-2.048c0-1.897-0.416-3.668-1.236-5.284C295.627,3.868,291.106,0,285.333,0
			H168.955c-5.365,0-9.669,3.313-11.032,8.454c-0.473,1.322-0.706,2.647-0.706,4.047V42.11h-39.56c-3.158,0-5.985,1.126-8.07,3.199
			c-3.758,1.95-5.969,5.646-5.969,10.069v99.287H80.134c-3.154,0-5.985,1.126-8.066,3.194c-3.757,1.95-5.969,5.651-5.969,10.074
			v94.174c0,1.269,0.184,2.485,0.546,3.644C66.409,268.982,67.396,272.209,69.395,274.564z M154.153,278.44v11.75h-21.697v-11.75
			H154.153z M177.495,59.617c2.073-2.085,3.199-4.908,3.199-8.07V23.468h93.673v52.33h-27.312c-5.565,0-9.902,3.48-11.134,8.784
			c-1.404,1.914-2.134,4.231-2.134,6.777v8.172h-70.959c-4.562,0-8.348,2.35-10.249,6.324c-1.473,1.955-2.252,4.337-2.252,6.944
			v41.861h-23.231V65.586h40.327C171.844,65.586,175.544,63.375,177.495,59.617z M173.798,167.933v-44.925h70.188
			c5.01,0,9.115-2.909,10.739-7.503c1.661-2.003,2.529-4.504,2.529-7.295v-8.935h54.627v100.816c0,5.773,3.867,10.29,9.514,11.269
			c1.613,0.82,3.383,1.236,5.285,1.236h79.379v86.015h-48.791c-1.963-1.318-4.346-2.032-6.875-2.032
			c-5.68,0-11.715,4.02-11.715,11.474V332.3h-45.435v-30.376c0-5.36-3.313-9.665-8.454-11.028c-1.322-0.473-2.648-0.705-4.047-0.705
			H177.629v-17.014c2.122-3.456,2.399-8.009,0.616-11.808c-1.877-4.007-5.729-6.402-10.311-6.402H89.579v-76.83h66.977
			C163.239,181.417,173.798,178.002,173.798,167.933z M398.798,56.398h92.248v186.317h-61.514v-34.203
			c0-2.823-0.9-5.361-2.574-7.356c0.078-2.925-0.844-5.79-2.619-7.984c-2.113-2.615-5.256-4.056-8.842-4.056H381.29V134.24
			c0-2.423-0.668-4.647-1.949-6.512c-0.783-5.083-4.697-9.816-11.318-9.816h-32.672V85.239c0-7.454-6.035-11.473-11.715-11.473
			c-2.525,0-4.908,0.714-6.875,2.036H297.83V40.319h83.722v5.871C381.56,56.259,392.128,59.695,398.798,56.398z M332.493,377.506
			c-0.473,1.322-0.705,2.648-0.705,4.048v15.223h-69.425v-6.549c0-1.399-0.229-2.733-0.677-3.986
			c0.857-3.37,0.302-7.103-1.562-9.946c-2.061-3.146-5.524-4.953-9.494-4.953h-73v-57.68h92.143v29.608
			c0,3.477,1.363,6.528,3.848,8.65c2.125,2.488,5.182,3.852,8.654,3.852h70.466c2.725-0.005,5.111-1.053,6.895-3.023
			c4.807-5.305,4.207-15.9,3.012-28.185c-0.086-0.869-0.164-1.701-0.236-2.477h54.619c4.564,0,8.352-2.351,10.248-6.324
			c1.477-1.95,2.256-4.333,2.256-6.944v-42.632H449.7v102.865H343.526C338.169,369.053,333.86,372.365,332.493,377.506z
			 M320.56,423.153v133.999h-43.321v-46.026c0.412-1.681,0.392-3.398,0-5.055V423.3h38.761c0.641,0,1.24-0.057,1.814-0.146H320.56z
			 M357.823,141.384v47.732h-22.469v-47.732H357.823z M235.41,440.33c1.771,1.073,4.435,2.688,7.148,4.378v29.249
			c-8.099-6.401-16.275-12.949-23.162-19.392c0.396-0.44,0.812-0.91,1.249-1.396c3.994-4.468,9.131-10.208,12.444-14.256
			C233.794,439.351,234.574,439.824,235.41,440.33z"/>
	</g>
</g>
<g>
</g>
<g>
</g>
<g>
</g>
<g>
</g>
<g>
</g>
<g>
</g>
<g>
</g>
<g>
</g>
<g>
</g>
<g>
</g>
<g>
</g>
<g>
</g>
<g>
</g>
<g>
</g>
<g>
</g>
</svg>
