<?xml version="1.0" encoding="iso-8859-1"?>
<!-- Generator: Adobe Illustrator 16.0.0, SVG Export Plug-In . SVG Version: 6.00 Build 0)  -->
<!DOCTYPE svg PUBLIC "-//W3C//DTD SVG 1.1//EN" "http://www.w3.org/Graphics/SVG/1.1/DTD/svg11.dtd">
<svg version="1.1" id="Capa_1" xmlns="http://www.w3.org/2000/svg" xmlns:xlink="http://www.w3.org/1999/xlink" x="0px" y="0px"
	 width="590.496px" height="590.495px" viewBox="0 0 590.496 590.495" style="enable-background:new 0 0 590.496 590.495;"
	 xml:space="preserve">
<g>
	<g>
		<path fill="#B9C33E" d="M59.917,278.648c1.244,4.72,6.254,7.491,12.975,8.956c0.396,2.346,1.771,4.488,3.851,6.43
			c0.926,1.608,2.35,2.917,4.194,3.955c-6.075,11.057-9.898,22.415-5.863,28.608c1.236,7.401,12.163,12.844,24.456,16.427
			c-0.6,2.138-0.686,4.174-0.119,6.042c-0.053,2.713,0.576,5.03,1.894,6.903c-3.758,5.822-5.37,11.354-2.897,15.598
			c2.709,4.651,9.225,5.766,17.075,4.974c-0.041,7.083,1.579,12.759,6.026,15.011c9.241,4.676,23.158-9.086,33.374-22.746
			c1.334-0.816,2.644-1.645,3.934-2.493c2.04,0.045,4.28-0.29,6.67-0.946c-0.657,2.391-0.991,4.627-0.946,6.671
			c-0.849,1.293-1.677,2.603-2.493,3.933c-13.664,10.217-27.426,24.134-22.746,33.375c2.252,4.447,7.931,6.066,15.01,6.025
			c-0.792,7.851,0.322,14.362,4.973,17.075c4.239,2.469,9.776,0.856,15.598-2.896c1.873,1.317,4.19,1.95,6.903,1.893
			c1.865,0.567,3.9,0.478,6.042-0.118c3.582,12.293,9.025,23.22,16.426,24.455c6.189,4.035,17.548,0.209,28.609-5.862
			c1.04,1.844,2.346,3.268,3.953,4.194c1.942,2.085,4.084,3.455,6.43,3.852c1.465,6.72,4.235,11.729,8.956,12.975
			c5.21,1.374,10.612-2.403,15.602-8.52c2.477,2.501,4.998,4.464,7.491,5.61c12.351,25.182,14.386,64.925,8.931,90.608
			c-1.493,7.029,0.278,14.305,4.859,19.959c8.384,10.355,23.048,11.901,31.041,11.901c18.621,0,38.658-9.461,38.658-30.236v-95.056
			v-14.688c10.689,5.704,21.481,9.159,27.454,5.264c7.401-1.236,12.844-12.163,16.427-24.456c2.142,0.6,4.174,0.686,6.042,0.118
			c2.713,0.054,5.03-0.575,6.903-1.893c5.818,3.758,11.354,5.369,15.598,2.896c4.651-2.709,5.766-9.225,4.974-17.075
			c7.083,0.041,12.758-1.578,15.011-6.025c4.676-9.241-9.087-23.158-22.746-33.375c-0.816-1.334-1.645-2.644-2.493-3.933
			c0.045-2.04-0.29-4.28-0.946-6.671c2.391,0.656,4.631,0.991,6.671,0.946c1.293,0.849,2.603,1.677,3.933,2.493
			c10.217,13.664,24.134,27.426,33.375,22.746c4.447-2.252,6.066-7.932,6.025-15.011c7.851,0.792,14.362-0.322,17.075-4.974
			c2.469-4.239,0.856-9.775-2.896-15.598c1.317-1.873,1.95-4.186,1.893-6.899c0.567-1.864,0.478-3.9-0.122-6.042
			c12.293-3.582,23.219-9.025,24.455-16.427c4.035-6.188,0.208-17.548-5.862-28.608c1.84-1.041,3.268-2.347,4.194-3.954
			c2.08-1.942,3.455-4.084,3.852-6.43c6.72-1.465,11.729-4.235,12.974-8.956c1.375-5.21-2.403-10.612-8.519-15.602
			c5.026-4.974,7.866-10.13,6.315-14.863c-3.223-9.825-22.733-9.943-39.601-7.516c-1.514-0.367-3.031-0.706-4.541-1.016
			c-1.403-1.473-3.223-2.823-5.369-4.047c2.146-1.224,3.966-2.57,5.369-4.047c1.51-0.314,3.027-0.653,4.546-1.016
			c16.866,2.424,36.381,2.31,39.6-7.515c1.551-4.733-1.289-9.89-6.315-14.863c6.116-4.99,9.894-10.396,8.519-15.602
			c-1.244-4.721-6.254-7.491-12.974-8.96c-0.396-2.346-1.771-4.488-3.852-6.43c-0.927-1.607-2.351-2.917-4.194-3.953
			c6.071-11.057,9.897-22.416,5.862-28.609c-1.235-7.401-12.162-12.844-24.455-16.426c0.6-2.142,0.686-4.174,0.122-6.042
			c0.054-2.713-0.575-5.031-1.893-6.899c3.758-5.822,5.369-11.354,2.896-15.598c-2.709-4.651-9.225-5.765-17.074-4.974
			c0.04-7.083-1.579-12.758-6.026-15.01c-9.241-4.676-23.158,9.086-33.375,22.746c-1.334,0.816-2.644,1.644-3.933,2.493
			c-2.04-0.045-4.28,0.29-6.671,0.947c0.657-2.387,0.991-4.627,0.946-6.671c0.849-1.293,1.682-2.603,2.493-3.933
			c13.664-10.216,27.426-24.133,22.746-33.375c-2.252-4.447-7.932-6.067-15.011-6.026c0.792-7.85-0.322-14.361-4.974-17.075
			c-4.238-2.468-9.775-0.856-15.598,2.897c-1.872-1.318-4.186-1.95-6.899-1.893c-1.864-0.567-3.9-0.478-6.042,0.123
			c-3.582-12.293-9.025-23.22-16.426-24.456c-6.189-4.035-17.549-0.208-28.609,5.863c-1.04-1.844-2.346-3.268-3.953-4.194
			c-1.942-2.085-4.085-3.456-6.431-3.852c-1.465-6.72-4.235-11.73-8.955-12.974c-5.211-1.375-10.612,2.403-15.603,8.519
			c-4.974-5.027-10.131-7.866-14.863-6.316c-9.824,3.223-9.942,22.734-7.515,39.604c-0.367,1.514-0.706,3.031-1.017,4.541
			c-1.473,1.404-2.823,3.223-4.047,5.369c-1.224-2.146-2.57-3.965-4.047-5.369c-0.314-1.51-0.653-3.027-1.016-4.541
			c2.423-16.867,2.309-36.381-7.516-39.604c-4.733-1.55-9.89,1.289-14.863,6.316c-4.99-6.116-10.392-9.894-15.602-8.519
			c-4.721,1.244-7.491,6.254-8.956,12.974c-2.346,0.396-4.488,1.771-6.43,3.852c-1.607,0.926-2.917,2.35-3.954,4.194
			c-11.057-6.075-22.416-9.898-28.609-5.863c-7.401,1.236-12.844,12.162-16.426,24.456c-2.142-0.6-4.174-0.686-6.042-0.123
			c-2.713-0.053-5.031,0.575-6.899,1.893c-5.818-3.758-11.354-5.369-15.598-2.897c-4.651,2.709-5.765,9.225-4.974,17.075
			c-7.083-0.041-12.758,1.579-15.01,6.026c-4.676,9.241,9.086,23.158,22.746,33.375c0.816,1.334,1.645,2.644,2.493,3.933
			c-0.045,2.04,0.29,4.28,0.946,6.671c-2.391-0.657-4.626-0.992-6.67-0.947c-1.293-0.849-2.603-1.681-3.933-2.493
			c-10.217-13.664-24.133-27.426-33.375-22.746c-4.447,2.252-6.067,7.932-6.026,15.01c-7.85-0.792-14.361,0.318-17.075,4.974
			c-2.468,4.239-0.857,9.776,2.897,15.598c-1.318,1.873-1.95,4.19-1.893,6.903c-0.567,1.865-0.478,3.901,0.118,6.042
			c-12.293,3.583-23.219,9.025-24.456,16.426c-4.035,6.189-0.208,17.548,5.863,28.609c-1.84,1.041-3.268,2.346-4.194,3.954
			c-2.084,1.942-3.456,4.084-3.851,6.43c-6.72,1.465-11.73,4.235-12.975,8.956c-1.375,5.206,2.403,10.612,8.519,15.602
			c-5.026,4.973-7.866,10.13-6.316,14.863c3.223,9.825,22.734,9.943,39.601,7.515c1.514,0.367,3.031,0.706,4.545,1.016
			c1.404,1.473,3.223,2.823,5.37,4.047c-2.146,1.224-3.966,2.57-5.37,4.047c-1.509,0.314-3.027,0.653-4.541,1.016
			c-16.867-2.427-36.381-2.309-39.601,7.516c-1.55,4.733,1.29,9.89,6.316,14.863C62.321,268.036,58.542,273.438,59.917,278.648z
			 M304.175,562.865c6.833-32.183,3.361-79.723-13.171-108.769c-0.085-0.146-0.159-0.31-0.245-0.461
			c-16.541-28.638-40.714-50.689-61.017-76.447c-37.523-47.601-57.785-104.211-56.598-165.064
			c0.192-9.817,7.911-14.729,15.533-14.729c7.613,0,15.125,4.904,14.933,14.729c-0.693,35.578,5.937,71.873,22.367,103.722
			c15.374,29.809,37.258,53.098,58.858,78.341c8.629,10.085,16.333,20.489,23.076,31.188V227.391
			c0-9.825,7.618-14.733,15.235-14.733s15.234,4.913,15.234,14.733v105.942c6.512-10.8,12.297-22.036,16.675-33.855
			c14.432-38.961,19.241-79.067,14.04-120.304c-1.225-9.698,5.74-14.504,13.333-14.504c7.638,0,15.916,4.863,17.132,14.504
			c4.888,38.752,1.815,79.372-10.881,116.484c-6.545,19.123-14.509,38.079-25.26,55.256c-7.014,11.203-16.308,21.257-21.135,33.721
			c-4.594,11.869-3.904,27.891-3.904,40.543c0,13.338,0,26.675,0,40.013c0,1.897,0,3.799,0,5.695c0,29.784,0,59.572,0,89.356
			c0,6.92-9.331,9.837-18.258,9.837C311.482,570.083,303.224,567.35,304.175,562.865z M295.24,135.763
			c0.987,1.53,2.072,3.072,3.228,4.606c-0.604-0.02-1.204-0.049-1.82-0.049c-0.449,0-0.922,0.008-1.407,0.017
			c-0.49-0.013-0.963-0.017-1.408-0.017c-0.616,0-1.216,0.029-1.82,0.049C293.167,138.835,294.252,137.296,295.24,135.763z
			 M230.184,165.983c-0.441,0.412-0.885,0.82-1.322,1.253c-0.302,0.302-0.649,0.681-0.971,1.02c-0.334,0.322-0.718,0.669-1.02,0.971
			c-0.433,0.433-0.84,0.877-1.252,1.318c-0.27-1.905-0.592-3.758-0.975-5.541C226.426,165.392,228.279,165.714,230.184,165.983z"/>
	</g>
</g>
<g>
</g>
<g>
</g>
<g>
</g>
<g>
</g>
<g>
</g>
<g>
</g>
<g>
</g>
<g>
</g>
<g>
</g>
<g>
</g>
<g>
</g>
<g>
</g>
<g>
</g>
<g>
</g>
<g>
</g>
</svg>
