<?xml version="1.0" encoding="iso-8859-1"?>
<!-- Generator: Adobe Illustrator 16.0.0, SVG Export Plug-In . SVG Version: 6.00 Build 0)  -->
<!DOCTYPE svg PUBLIC "-//W3C//DTD SVG 1.1//EN" "http://www.w3.org/Graphics/SVG/1.1/DTD/svg11.dtd">
<svg version="1.1" id="Capa_1" xmlns="http://www.w3.org/2000/svg" xmlns:xlink="http://www.w3.org/1999/xlink" x="0px" y="0px"
	 width="571.387px" height="571.387px" viewBox="0 0 571.387 571.387" style="enable-background:new 0 0 571.387 571.387;"
	 xml:space="preserve">
<g>
	<g>
		<path fill="#B9C33E" d="M460.506,211.833c-13.248,0-25.949,2.378-37.725,6.507c-10.836,3.803-20.873,9.099-29.84,15.41
			c-26.338,18.536-43.326,45.839-43.326,69.94c0,27.895,22.75,44.312,56.43,52.023c0.049,2.766-0.02,5.527-0.27,8.27
			c-0.244,2.709-0.619,5.406-1.154,8.082c-1.309,6.529-3.471,12.943-6.523,19.168c-18.779,6.047-39.389,9.633-57.32,14.248
			c-25.441,6.545-49.445,18.494-72.901,30.041c-2.113,1.041-4.182,2.184-6.214,3.379c7.948-56.203,20.62-112.609,58.201-157.015
			c11.27-13.317,22.387-25.716,31.797-39.564c1.953-2.88,3.822-5.838,5.613-8.866c1.713-2.893,3.338-5.871,4.871-8.939
			c8.258-1.322,16.01-3.093,23.113-5.333c9.254-6.332,19.145-11.457,29.441-15.304c9.967-8.572,15.709-19.678,15.709-33.68
			c0-41.22-49.646-91.857-110.887-91.857c-32.355,0-61.466,14.137-81.735,33.55c-2.819,2.701-5.459,5.508-7.923,8.388
			c-10.384,12.146-17.455,25.68-20.078,38.821c-0.742,3.708-1.142,7.393-1.15,11c0,0.033-0.004,0.065-0.004,0.098
			c0,33.729,33.248,50.69,78.883,55.745c0.09,1.648,0.105,3.288,0.252,4.945c0.1,1.093,0.277,2.207,0.494,3.329
			c0.527,2.738,1.348,5.561,2.322,8.434c4.047,11.962,10.424,24.773,6.32,35.557c-0.629,1.652-0.719,3.138-0.486,4.472
			c-3.143,3.974-6.156,8.035-8.932,12.257c-26.642,40.574-36.483,89.854-43.207,137.643c-11.257-27.324-27.14-53.342-43.477-78.148
			c-15.863-24.092-31.832-48.373-45.986-73.489c0.147-1.571-0.082-3.248-0.91-4.966c-3.868-8.062,4.341-24.406,6.777-32.199
			c3.852-12.317,7.47-24.549,9.686-37.283c1.24-7.136,1.685-14.247,1.358-21.257c-0.126-2.758-0.359-5.5-0.743-8.217
			c-0.379-2.685-0.881-5.349-1.521-7.985c8.739-2.252,16.679-5.12,23.566-8.682c2.611-18.45,12.362-37.605,27.475-54.101
			c-8.111-38.487-54.097-80.103-109.617-80.103C49.646,26.151,0,76.789,0,118.009c0,27.226,21.665,43.525,54.015,51.457
			c1.428,3.325,3.142,6.5,5.279,9.498c1.64,2.301,3.501,4.517,5.692,6.614c1.183,1.13,2.423,2.219,3.676,3.296
			c10.437,8.943,23.179,16.125,34.292,23.901c0.416,0.29,0.828,0.485,1.24,0.698c15.019,45.973,40.282,88.173,66.794,128.81
			c26.063,39.951,56.696,82.645,67.385,129.479c-0.012,0.396-0.053,0.779-0.053,1.184c0.004,1.861,0.506,3.395,1.277,4.664
			c3.447,18.102,3.839,36.812-0.282,56.234c-2.428,11.447,15.116,16.32,17.552,4.838c4.9-23.109,4.198-45.377-0.265-66.867
			c0.844-12.781,16.279-18.523,26.185-23.402c14.594-7.186,29.34-13.93,44.59-19.617c23.496-8.76,48.523-11.811,72.686-18.131
			c22.264-5.822,41.623-17.223,54.979-33.309c2.145-2.588,4.145-5.279,5.965-8.107c1.701-2.641,3.301-5.354,4.691-8.197
			c58.826-0.9,105.688-17.324,105.688-57.369C571.393,262.469,521.746,211.833,460.506,211.833z M306.652,235.517
			c-0.543-2.709-0.922-5.451-1.184-8.221c4.607,0.2,9.291,0.31,14.053,0.31c7.225,0,14.283-0.232,21.125-0.702
			c-1.648,2.897-3.414,5.72-5.283,8.474c-1.934,2.856-3.957,5.651-6.07,8.393c-4.5,5.838-9.328,11.469-14.223,17.055
			c-1.258-4.603-3.131-9.221-5.1-14.088c-0.4-0.987-0.756-1.987-1.098-2.991C307.945,241.049,307.211,238.303,306.652,235.517z
			 M84.607,177.793c-1.84-1.29-3.423-2.607-4.896-3.95c4.786,0.514,9.694,0.906,14.725,1.163c0.514,2.762,1.081,5.508,1.673,8.246
			c0.216,1.008,0.408,2.024,0.637,3.027c-1.542-1.081-3.084-2.158-4.627-3.239C89.613,181.293,87.108,179.543,84.607,177.793z
			 M139.001,250.76c-9.082-18.997-16.695-38.613-22.163-59.079c-0.722-2.701-1.432-5.406-2.077-8.135
			c-0.637-2.697-1.22-5.41-1.775-8.14c13.599-0.082,26.589-0.979,38.568-2.783c0.653,2.656,1.155,5.329,1.46,8.013
			c0.31,2.717,0.429,5.451,0.429,8.188c0.016,14.623-3.978,29.458-8.36,43.876C143.322,238.5,140.976,244.583,139.001,250.76z
			 M420.795,381.878c0.607-2.244,1.117-4.504,1.562-6.771c0.525-2.674,0.914-5.361,1.211-8.059c0.299-2.701,0.498-5.418,0.568-8.145
			c6.822,0.887,13.945,1.494,21.301,1.842c-1.926,2.811-4.08,5.404-6.441,7.809c-2.678,2.721-5.615,5.193-8.764,7.453
			C427.258,378.138,424.111,380.101,420.795,381.878z"/>
	</g>
</g>
<g>
</g>
<g>
</g>
<g>
</g>
<g>
</g>
<g>
</g>
<g>
</g>
<g>
</g>
<g>
</g>
<g>
</g>
<g>
</g>
<g>
</g>
<g>
</g>
<g>
</g>
<g>
</g>
<g>
</g>
</svg>
