<?xml version="1.0" encoding="iso-8859-1"?>
<!-- Generator: Adobe Illustrator 16.0.0, SVG Export Plug-In . SVG Version: 6.00 Build 0)  -->
<!DOCTYPE svg PUBLIC "-//W3C//DTD SVG 1.1//EN" "http://www.w3.org/Graphics/SVG/1.1/DTD/svg11.dtd">
<svg version="1.1" id="Capa_1" xmlns="http://www.w3.org/2000/svg" xmlns:xlink="http://www.w3.org/1999/xlink" x="0px" y="0px"
	 width="567.063px" height="567.063px" viewBox="0 0 567.063 567.063" style="enable-background:new 0 0 567.063 567.063;"
	 xml:space="preserve">
<g>
	<g>
		<path d="M519.673,328.193c-20.734,0.759-30.398-22.313-47.136-30.242c-7.271-3.442-15.774-4.379-23.871-2.989
			c2.062-2.197,4.072-4.419,6.056-6.625c14.917-16.58,29.006-32.237,62.491-32.834c0.82-0.016,1.48-0.673,1.502-1.487
			c0.021-0.82-0.605-1.509-1.42-1.57c-2.497-0.178-4.969-0.27-7.344-0.27c-29.948,0-45.307,13.85-60.159,27.243
			c-1.8,1.622-3.553,3.204-5.307,4.738c8.816-17.77,11.271-37.981,11.671-58.698c0.937-0.887,1.943-1.701,3.023-2.396
			c3.586-2.298,7.684-3.703,11.436-5.701c4.186-2.23,7.772-4.954,10.56-8.828c0.523-0.728,4.575-6.441,3.213-7.399
			c-0.752-0.536-4.485,2.059-5.232,2.411c-2.077,0.982-4.204,1.848-6.334,2.711c-4.281,1.735-8.721,3.323-12.445,6.135
			c-1.618,1.221-2.974,2.699-4.155,4.305c-0.003-0.48-0.006-0.961-0.009-1.441c0.71-0.982,1.257-1.704,1.328-1.777
			c7.925-8.027,20.621-8.562,29.109-16.028c3.614-3.18,5.747-7.521,6.364-12.268c0.147-1.129,0.196-2.262,0.159-3.4
			c-0.021-0.627-0.033-2.081-1-1.998c-0.921,0.077-1.301,2.179-1.689,2.836c-5.976,10.083-19.893,7.62-28.776,13.149
			c-2.23,1.389-4.146,3.262-5.753,5.392c-0.052-1.967-0.106-3.935-0.165-5.896c-0.597-20.958-1.184-42.417,2.65-62.152
			c1.307-0.643,2.695-1.129,4.131-1.374c3.277-0.56,6.652-0.321,9.96-0.618c3.69-0.331,7.1-1.197,10.282-3.134
			c0.6-0.364,5.251-3.24,4.562-4.342c-0.38-0.615-3.853,0.113-4.499,0.141c-1.793,0.073-3.586,0.049-5.379,0.021
			c-3.608-0.055-7.283-0.263-10.817,0.621c-2.724,0.686-5.171,2.084-7.222,3.959c0.095-0.401,0.193-0.802,0.291-1.199
			c1.787-1.246,4.4-2.775,4.56-2.84c8.146-3.357,17.436,0.123,25.813-2.662c3.568-1.184,6.423-3.66,8.312-6.885
			c0.449-0.768,0.829-1.566,1.15-2.396c0.178-0.459,0.609-1.505-0.11-1.741c-0.686-0.226-1.601,1.172-2.08,1.527
			c-7.369,5.432-16.629-0.579-24.697,0.694c-4.052,0.637-7.847,2.926-10.579,6.093c0.971-2.895,2.048-5.747,3.296-8.522
			c0.333-0.743,0.027-1.619-0.701-1.989c-0.728-0.37-1.612-0.11-2.022,0.597c-2.139,3.712-4.006,7.519-5.683,11.401
			c-1.548-5.37-5.015-10.242-9.669-13.139c-8.884-5.53-22.801-3.066-28.776-13.149c-0.389-0.658-0.771-2.763-1.689-2.837
			c-0.967-0.083-0.979,1.371-1,1.999c-0.037,1.138,0.012,2.271,0.159,3.399c0.617,4.749,2.75,9.091,6.364,12.268
			c4.333,3.81,9.762,5.817,15.092,7.935c-3.556,2.13-6.49,4.951-8.729,8.504c-2.98,4.725-4.548,10.291-5.175,16.107
			c-1.809-3.001-4.251-5.603-7.17-7.417c-8.883-5.53-22.8-3.066-28.776-13.149c-0.389-0.658-0.771-2.763-1.688-2.837
			c-0.964-0.083-0.979,1.371-1.001,1.999c-0.037,1.138,0.013,2.271,0.159,3.399c0.618,4.749,2.751,9.091,6.365,12.268
			c8.488,7.463,21.184,8.002,29.109,16.028c0.125,0.128,1.717,2.252,3.103,4.317c0.518,5.021,1.438,9.878,2.476,14.192
			c1.001,4.183,2.044,8.372,3.088,12.555c7.093,28.458,13.794,55.337,7.148,79.239c-7.62,27.424-27.647,46.075-61.228,57.014
			c-4.532,1.479-9.138,2.913-13.749,4.352c-13.394,4.18-27.219,8.488-39.409,13.901c0.811-8.075,0.74-15.657-0.209-23.103
			c-0.498-3.911-1.235-7.886-2.172-11.968c1.19-0.052,2.377-0.062,3.562-0.003c7.527,0.379,14.875,2.573,22.335,3.556
			c8.326,1.096,16.291,0.859,24.29-1.852c1.503-0.511,13.217-4.574,12.24-7.354c-0.535-1.545-8.58-1.648-10.019-1.909
			c-4.002-0.719-7.959-1.664-11.912-2.61c-7.953-1.906-15.982-4.186-24.238-3.969c-6.031,0.159-11.827,1.867-17.062,4.71
			c0.786-0.964,1.6-1.903,2.42-2.84c4.257-1.619,9.106-3.164,9.438-3.223c19.676-3.406,38.513,8.884,58.418,6.867
			c8.474-0.86,16.014-4.921,21.79-11.124c1.374-1.476,2.61-3.058,3.728-4.731c0.618-0.927,2.09-3.029,0.615-3.907
			c-1.401-0.838-4.116,1.802-5.355,2.35c-18.984,8.373-36.493-9.492-54.976-10.667c-2.613-0.166-5.251-0.012-7.861,0.382
			c1.75-1.5,3.498-2.993,5.229-4.471c4.061-3.467,8.118-6.931,12.124-10.425c8.607-7.516,20.395-17.803,13.366-32.742
			c-0.35-0.744-1.218-1.068-1.98-0.759c-0.756,0.318-1.126,1.178-0.838,1.949c4.676,12.479-8.599,22.032-19.263,29.709
			c-1.986,1.429-3.877,2.788-5.526,4.076c-11.665,8.929-24.813,18.99-36.2,29.896c-3.32-9.171-7.405-18.275-11.891-27.396
			c1.053-1.493,1.988-2.739,2.083-2.837c7.926-8.026,20.622-8.562,29.11-16.028c3.614-3.179,5.747-7.521,6.364-12.268
			c0.147-1.129,0.196-2.261,0.159-3.399c-0.021-0.627-0.033-2.081-1-1.998c-0.921,0.076-1.301,2.182-1.689,2.839
			c-5.976,10.083-19.893,7.62-28.776,13.149c-4.765,2.965-8.292,7.993-9.785,13.51c-2.779-5.425-5.661-10.863-8.605-16.334
			c1.307-1.166,2.62-2.332,3.933-3.498c10.608-9.407,21.579-19.134,28.656-29.639c3.023-4.489,5.178-9.244,6.971-14.048
			c0.784-0.006,1.567,0.018,2.345,0.101c4.234,0.444,8.313,1.903,12.49,2.687c4.664,0.869,9.165,0.982,13.761-0.306
			c0.863-0.242,7.596-2.179,7.127-3.776c-0.254-0.888-4.789-1.19-5.594-1.383c-2.236-0.529-4.439-1.181-6.64-1.836
			c-4.428-1.316-8.89-2.846-13.553-2.978c-2.69-0.073-5.315,0.444-7.804,1.356c0.11-0.337,0.224-0.677,0.331-1.013
			c2.206-0.673,4.409-1.246,4.577-1.267c11.203-1.322,21.454,6.184,32.745,5.652c4.808-0.227,9.184-2.289,12.632-5.612
			c0.82-0.79,1.563-1.646,2.246-2.555c0.377-0.505,1.271-1.646,0.465-2.185c-0.765-0.517-2.377,0.89-3.09,1.163
			c-10.964,4.146-20.297-6.466-30.689-7.689c-5.685-0.67-11.691,1.153-16.343,4.669c4.685-13.954,10.756-26.907,30.939-36.42
			c0.74-0.349,1.074-1.218,0.759-1.974c-0.318-0.756-1.166-1.129-1.937-0.848c-24.915,9.128-31.748,24.67-38.36,39.697
			c-0.48,1.09-0.952,2.164-1.426,3.223c0.223-21.646-9.955-42.66-19.835-63.055c-5.937-12.255-11.989-24.768-15.771-37.424
			c1.267-1.53,2.757-2.876,4.422-3.944c3.586-2.298,7.684-3.703,11.435-5.701c4.187-2.231,7.772-4.954,10.561-8.828
			c0.523-0.728,4.574-6.441,3.213-7.399c-0.753-0.536-4.486,2.059-5.232,2.411c-2.078,0.982-4.205,1.848-6.334,2.711
			c-4.281,1.735-8.722,3.323-12.445,6.136c-3.226,2.433-5.542,5.78-7.008,9.504c-0.144-0.588-0.275-1.175-0.41-1.763
			c1.331-2.35,4.4-6.475,4.578-6.659c7.926-8.026,20.621-8.562,29.109-16.028c3.614-3.179,5.747-7.521,6.365-12.268
			c0.146-1.129,0.196-2.261,0.159-3.399c-0.021-0.627-0.034-2.081-1.001-1.998c-0.921,0.076-1.3,2.182-1.688,2.839
			c-5.977,10.083-19.894,7.62-28.776,13.149c-5.429,3.378-9.211,9.437-10.245,15.845c-0.34-2.806-0.538-5.615-0.538-8.43
			c0-0.817-0.64-1.487-1.454-1.527c-0.762-0.088-1.518,0.563-1.597,1.374c-2.105,20.937,4.079,41.126,12.39,63.015
			c-11.552-11.359-25.875-26.699-25.814-40.034c0.021-5.009,2.017-9.333,6.096-13.216c0.585-0.56,0.637-1.472,0.119-2.093
			c-0.514-0.612-1.426-0.728-2.077-0.251c-2.815,2.069-5,4.443-6.533,7.103c-0.003-1.561-0.11-3.115-0.328-4.654
			c-1.181-8.391-5.627-15.468-13.213-21.035c-0.651-0.48-1.561-0.367-2.077,0.251c-0.518,0.618-0.466,1.533,0.119,2.093
			c6.282,5.982,9.352,12.65,9.385,20.383c0.098,21.3-23.682,45.737-41.463,63.072c11.022-28.718,19.822-55.41,20.353-82.461
			c1.373-2.371,4.317-6.331,4.491-6.508c7.926-8.026,20.622-8.562,29.11-16.028c3.613-3.179,5.746-7.521,6.364-12.268
			c0.147-1.129,0.196-2.261,0.159-3.399c-0.021-0.627-0.033-2.081-1-1.999c-0.921,0.077-1.301,2.179-1.689,2.837
			c-5.977,10.083-19.893,7.619-28.776,13.148c-4.143,2.58-7.304,6.735-9.055,11.402c-0.061-0.734-0.092-1.469-0.168-2.203
			c-0.079-0.814-0.823-1.429-1.598-1.374c-0.813,0.04-1.453,0.71-1.453,1.527c0,19.654-5.899,39.162-13.877,58.36
			c-0.909-5.211-3.314-10.168-7.001-13.807c-8.391-8.29-24.303-9.042-28.366-21.613c-0.264-0.82-0.159-3.229-1.151-3.541
			c-1.04-0.331-1.416,1.264-1.597,1.949c-0.321,1.242-0.551,2.5-0.671,3.776c-0.501,5.374,0.763,10.68,3.944,15.071
			c7.476,10.318,21.298,14.067,28.018,24.862c0.095,0.15,1.031,2.249,1.943,4.517c-0.184,0.404-0.373,0.805-0.557,1.209
			c-0.949-2.76-2.323-5.364-4.238-7.626c-3.394-4.015-7.88-6.866-12.157-9.841c-2.124-1.478-4.251-2.959-6.289-4.556
			c-0.734-0.575-4.191-4.354-5.152-3.954c-1.735,0.713,1.294,8.002,1.688,8.932c2.1,4.951,5.364,8.837,9.413,12.332
			c3.626,3.131,7.781,5.692,11.153,9.11c0.826,0.838,1.589,1.744,2.28,2.699c-2.271,4.813-4.587,9.608-6.895,14.373
			c-3.772,7.791-7.65,15.796-11.248,23.779c-1.179-10.68-3.666-22.191-10.343-31.996c-8.614-12.656-22.161-22.02-35.249-31.068
			c-0.991-0.701-2.117-1.432-3.302-2.2c-4.293-2.785-9.312-6.053-11.175-10.095c1.074-2.167,4.694-7.038,4.887-7.234
			c7.926-8.026,20.621-8.562,29.11-16.028c3.613-3.18,5.746-7.521,6.364-12.268c0.147-1.129,0.196-2.261,0.159-3.4
			c-0.021-0.627-0.033-2.081-1-1.998c-0.922,0.077-1.301,2.179-1.689,2.836c-5.977,10.083-19.894,7.62-28.776,13.149
			c-5.875,3.657-9.838,10.447-10.45,17.43c-0.743-0.223-1.551,0.138-1.857,0.869c-3.791,9.183,3.749,15.147,8.739,19.098
			c2.394,1.891,4.813,3.761,7.234,5.633c4.577,3.541,9.309,7.2,13.742,10.927c11.512,9.688,18.654,22.5,21.747,39.061
			c-9.513-7.999-24.152-11.793-38.359-15.475c-2.702-0.701-5.401-1.398-8.061-2.124c-19.257-5.26-31.068-15.224-36.104-30.453
			c-4.4-13.308-1.334-28.764,1.916-45.129c0.48-2.42,0.961-4.844,1.417-7.261c1.496-7.914,2.221-18.862-2.833-26.078
			c-2.574-3.675-6.362-5.945-11.258-6.744c-0.802-0.15-1.558,0.383-1.738,1.166c-0.181,0.786,0.282,1.579,1.053,1.812
			c3.987,1.19,6.744,3.36,8.43,6.637c4.348,8.442,0.569,22.641-3.152,33.978c-1.913-16.986-4.776-32.204-13.161-45.245
			c-0.438-0.686-1.337-0.906-2.047-0.499c-0.707,0.407-0.97,1.294-0.603,2.02c7.093,13.935,7.439,31.2,7.77,47.898
			c0.052,2.671,0.119,5.355,0.199,8.039c-2.209-2.43-4.804-4.48-7.729-5.838c-10.695-4.97-25.927-0.306-33.997-10.768
			c-0.526-0.683-1.239-2.987-2.28-2.944c-1.092,0.043-0.909,1.668-0.844,2.372c0.116,1.276,0.324,2.537,0.646,3.782
			c1.343,5.227,4.324,9.795,8.8,12.855c10.521,7.188,24.798,6.05,34.765,13.941c0.085,0.067,0.731,0.734,1.588,1.652
			c0.055,0.529,0.092,1.068,0.156,1.597c-1.502-1.561-3.161-2.974-5.067-4.076c-4.55-2.635-9.737-3.804-14.765-5.159
			c-2.5-0.673-5-1.35-7.457-2.167c-0.885-0.294-5.417-2.684-6.185-1.983c-1.392,1.258,3.92,7.096,4.608,7.84
			c3.647,3.95,8.033,6.508,13.023,8.43c4.471,1.723,9.248,2.732,13.574,4.81c1.454,0.698,2.806,1.595,4.085,2.589
			c1.053,4.511,2.448,8.886,4.431,13.011c-0.245-0.199-0.487-0.398-0.731-0.597c-8.485-6.94-17.258-14.11-33.005-14.11
			c-2.172,0-4.458,0.144-6.793,0.426c-0.814,0.095-1.405,0.817-1.343,1.631c0.061,0.814,0.798,1.417,1.573,1.417
			c18.831-0.575,27.243,7.876,36.123,16.836c4.477,4.517,9.104,9.186,15.129,12.534c8.42,4.672,19.183,7.469,29.589,10.177
			c14.38,3.743,29.245,7.607,37.296,16.374c10.229,11.136,9.85,27.604,8.158,42.078c-1.864,7.91-2.932,15.291-3.253,22.409
			c-0.38,2.552-0.744,5.101-1.065,7.638c-0.894-1.98-1.78-3.997-2.687-6.056c-9.247-21.016-18.791-42.706-50.554-56.527
			c-4.878-6.582-13.752-10.193-21.748-8.847c-10.318,1.735-19.119,12.794-30.272,9.192c-0.729-0.236-2.405-1.561-3.146-1.01
			c-0.777,0.578,0.171,1.674,0.572,2.16c0.726,0.875,1.512,1.692,2.372,2.442c3.608,3.149,8.079,4.994,12.892,4.985
			c11.304-0.024,21.175-8.026,32.43-7.255c0.141,0.009,1.759,0.343,3.607,0.787c30.566,16.043,37.613,37.833,44.991,60.857
			c0.542,1.689,1.089,3.388,1.646,5.092c-7.987-10.156-21.301-16.34-34.043-15.53c-18.482,1.175-35.994,19.042-54.976,10.667
			c-1.236-0.547-3.95-3.188-5.355-2.35c-1.475,0.875-0.003,2.98,0.615,3.907c1.117,1.677,2.353,3.256,3.727,4.731
			c5.774,6.203,13.314,10.263,21.79,11.123c19.908,2.017,38.742-10.272,58.418-6.867c0.447,0.08,9.257,2.91,13.557,4.93
			c0.357,0.93,0.713,1.86,1.092,2.785c-5.93-3.834-12.729-6.175-19.854-6.359c-8.256-0.217-16.285,2.062-24.238,3.969
			c-3.953,0.945-7.909,1.891-11.912,2.61c-1.441,0.26-9.483,0.364-10.018,1.91c-0.976,2.778,10.734,6.842,12.24,7.353
			c7.999,2.711,15.964,2.947,24.29,1.852c7.46-0.982,14.808-3.177,22.335-3.556c3.81-0.192,7.687,0.19,11.35,1.292
			c1.383,2.644,2.889,5.251,4.603,7.791c10.562,15.673,26.977,30.23,42.852,44.31c10.242,9.085,20.833,18.474,29.655,28.008
			c5.881,10.389,12.304,20.218,19.636,30.053l1.202,1.622c0.407,1.153,0.774,2.312,1.102,3.485
			c10.692,38.329-18.775,146.916-45.129,183.729c-4.85,6.777-10.352,14.458-15.443,22.142c-0.31,0.469-0.337,1.068-0.076,1.563
			c0.263,0.493,0.773,0.808,1.334,0.814l29.231,0.343c0.007,0,0.013,0,0.019,0c0.49,0,0.949-0.232,1.236-0.628
			c3.418-4.682,6.889-9.345,10.353-13.993c12.331-16.539,22.748-58.862,31.937-96.203c5.673-23.058,11.034-44.835,15.783-55.615
			c5.188-11.766,11.014-25.723,14.982-40.136c14.048-14.201,38.155-21.734,61.472-29.021c13.446-4.204,27.237-8.513,39.284-14.138
			c3.859,0.318,7.653,1.408,11.166,3.015c6.854,3.137,12.871,7.892,19.438,11.563c7.332,4.095,14.819,6.824,23.253,7.262
			c1.585,0.082,13.969,0.637,14.091-2.308c0.074-1.634-7.362-4.706-8.602-5.48c-3.451-2.148-6.78-4.489-10.104-6.83
			c-6.687-4.712-13.302-9.798-21.053-12.649c-4.688-1.727-9.624-2.396-14.541-2.182c0.7-0.478,1.398-0.958,2.077-1.454
			c3.987,0.119,7.846,0.395,8.128,0.453c19.538,4.112,32.497,22.494,51.738,27.98c8.191,2.335,16.698,1.35,24.357-2.279
			c1.82-0.863,3.556-1.876,5.214-3.018c0.915-0.633,3.063-2.044,2.017-3.402C524.524,326.694,521.026,328.145,519.673,328.193z
			 M242.392,270.791c-6.745-21.989-6.145-41.876,1.802-60.665c2.99-7.065,6.371-14.217,9.643-21.132
			c1.723-3.645,3.445-7.292,5.125-10.942c1.53-3.335,3.403-7.43,4.168-11.677c0.486-0.187,0.967-0.385,1.469-0.517
			c2.788-0.731,5.716-0.78,8.547-1.285c3.161-0.563,6.034-1.567,8.635-3.479c0.49-0.358,4.287-3.192,3.611-4.091
			c-0.374-0.502-3.317,0.389-3.871,0.462c-1.542,0.199-3.091,0.312-4.643,0.425c-3.117,0.224-6.307,0.321-9.287,1.353
			c-1.521,0.526-2.916,1.316-4.158,2.301c-0.016-0.211-0.03-0.419-0.052-0.63c1.077-0.817,2.068-1.518,2.157-1.564
			c6.774-3.513,15.055-1.211,22.074-4.244c2.99-1.291,5.267-3.641,6.652-6.57c0.331-0.698,0.597-1.414,0.812-2.154
			c0.119-0.41,0.41-1.346-0.227-1.493c-0.609-0.144-1.291,1.132-1.68,1.475c-5.949,5.242-14.392,0.756-21.261,2.463
			c-4.073,1.01-7.662,3.972-9.706,7.717c-0.873-1.965-2.225-3.865-4.278-5.625c-0.627-0.532-1.558-0.48-2.114,0.12
			c-0.561,0.603-0.545,1.536,0.033,2.117c6.885,6.949,0.78,17.503-4.122,25.982c-0.93,1.606-1.812,3.134-2.549,4.532
			c-9.969,18.47-20.275,37.567-22.821,57.531c-2.077,16.301,2.292,31.827,8.029,46.351c-1.062-0.952-2.114-1.9-3.164-2.855
			c-29.676-26.968-41.729-55.616-36.845-87.581c0.786-5.162,2.102-10.214,3.843-15.187c0.04-0.037,0.095-0.092,0.119-0.11
			c1.79-1.3,3.868-2.197,6.004-2.757c3.938-1.031,8.075-1.102,12.075-1.815c4.464-0.795,8.524-2.215,12.2-4.917
			c0.691-0.508,6.056-4.51,5.101-5.78c-0.526-0.71-4.685,0.551-5.468,0.652c-2.179,0.282-4.37,0.441-6.558,0.6
			c-4.403,0.315-8.908,0.453-13.121,1.913c-2.764,0.955-5.19,2.564-7.28,4.55c0.26-0.59,0.511-1.184,0.783-1.771
			c1.723-1.328,3.458-2.552,3.596-2.625c9.571-4.963,21.271-1.711,31.188-5.998c4.223-1.824,7.438-5.146,9.4-9.281
			c0.465-0.985,0.845-1.998,1.147-3.044c0.165-0.579,0.581-1.9-0.321-2.112c-0.859-0.202-1.824,1.601-2.371,2.084
			c-8.403,7.405-20.331,1.068-30.034,3.479c-1.331,0.331-2.607,0.854-3.853,1.457c7.895-12.687,17.717-25.178,27.824-38.018
			c3.021-3.837,6.047-7.681,9.024-11.539c6.031-7.806,12.598-17.95,16.043-28.581c1.295,9.208,7.008,18.387,12.146,25.037
			c1.989,2.58,4.012,5.147,6.031,7.711c13.666,17.362,26.576,33.758,29.388,52.179c3.226,21.12-4.755,40.062-24.397,57.91
			c-0.703,0.643-1.413,1.282-2.129,1.925l-0.928-1.612c-7.487-12.95-16.812-29.07-6.064-39.909c0.578-0.582,0.594-1.515,0.033-2.118
			c-0.557-0.597-1.49-0.648-2.114-0.119c-14.091,12.068-6.729,28.109-1.353,39.82c1.433,3.115,2.892,6.227,4.357,9.342l-0.009,0.009
			C263.775,241.659,248.426,255.24,242.392,270.791z M281.658,332.878c-1.958-2.358-4.036-4.715-6.133-6.949
			c-10.899-16.334-21.312-35.654-15.89-55.102c3.332-11.946,13.231-22.623,23.729-32.396c4.257,9.005,8.963,19.03,13.121,28.853
			c3.538,8.363,6.147,17.106,7.761,25.999c-5.107,5.746-9.29,11.315-12.775,17.01C287.322,317.067,284.096,324.479,281.658,332.878z
			 M301.998,348.644c-2.326,1.707-4.471,3.488-6.405,5.312c-0.419-0.863-0.859-1.724-1.312-2.586
			c2.121-14.64,6.02-27.482,11.87-39.073C306.401,324.011,305.008,336.204,301.998,348.644z M433.115,129.079
			c1.968-4.32,4.964-7.668,9.036-10.165c3.431,1.561,6.665,3.412,9.349,6.129c0.107,0.107,1.23,1.604,2.402,3.293
			c-6.983,19.856-9.187,41.787-10.545,65.597C435.382,173.635,425.459,145.903,433.115,129.079z"/>
	</g>
</g>
<g>
</g>
<g>
</g>
<g>
</g>
<g>
</g>
<g>
</g>
<g>
</g>
<g>
</g>
<g>
</g>
<g>
</g>
<g>
</g>
<g>
</g>
<g>
</g>
<g>
</g>
<g>
</g>
<g>
</g>
</svg>
